<svg width="465" height="647" viewBox="0 0 465 647" fill="none" xmlns="http://www.w3.org/2000/svg">
<path d="M462.43 644.981H2" stroke="#363636" stroke-width="4" stroke-linecap="round" stroke-linejoin="round"/>
<path d="M85.0652 164.208V218.534H38.0277" stroke="#363636" stroke-width="4" stroke-linecap="round" stroke-linejoin="round"/>
<path d="M132.107 164.208V218.534H85.0652V164.208" stroke="#363636" stroke-width="4" stroke-linecap="round" stroke-linejoin="round"/>
<path d="M38.0277 272.86H85.0652V218.534H38.0277" stroke="#363636" stroke-width="4" stroke-linecap="round" stroke-linejoin="round"/>
<path d="M132.103 218.534H85.0652V272.86H132.103V218.534Z" stroke="#363636" stroke-width="4" stroke-linecap="round" stroke-linejoin="round"/>
<path d="M179.144 164.208V218.534H132.107V164.208" stroke="#363636" stroke-width="4" stroke-linecap="round" stroke-linejoin="round"/>
<path d="M226.182 164.208V218.534H179.144V164.208" stroke="#363636" stroke-width="4" stroke-linecap="round" stroke-linejoin="round"/>
<path d="M179.144 218.534H132.107V272.86H179.144V218.534Z" stroke="#363636" stroke-width="4" stroke-linecap="round" stroke-linejoin="round"/>
<path d="M226.182 218.534H179.144V272.86H226.182V218.534Z" stroke="#363636" stroke-width="4" stroke-linecap="round" stroke-linejoin="round"/>
<path d="M38.0277 272.86H85.0652V327.186H38.0277" stroke="#363636" stroke-width="4" stroke-linecap="round" stroke-linejoin="round"/>
<path d="M132.103 272.86H85.0652V327.186H132.103V272.86Z" stroke="#363636" stroke-width="4" stroke-linecap="round" stroke-linejoin="round"/>
<path d="M38.0277 327.186H85.0652V381.512H38.0277" stroke="#363636" stroke-width="4" stroke-linecap="round" stroke-linejoin="round"/>
<path d="M132.103 327.186H85.0652V381.512H132.103V327.186Z" stroke="#363636" stroke-width="4" stroke-linecap="round" stroke-linejoin="round"/>
<path d="M179.144 272.86H132.107V327.186H179.144V272.86Z" stroke="#363636" stroke-width="4" stroke-linecap="round" stroke-linejoin="round"/>
<path d="M226.182 272.86H179.144V327.186H226.182V272.86Z" stroke="#363636" stroke-width="4" stroke-linecap="round" stroke-linejoin="round"/>
<path d="M179.144 327.186H132.107V381.512H179.144V327.186Z" stroke="#363636" stroke-width="4" stroke-linecap="round" stroke-linejoin="round"/>
<path d="M226.182 327.186H179.144V381.512H226.182V327.186Z" stroke="#363636" stroke-width="4" stroke-linecap="round" stroke-linejoin="round"/>
<path d="M273.224 164.208V218.534H226.182V164.208" stroke="#363636" stroke-width="4" stroke-linecap="round" stroke-linejoin="round"/>
<path d="M273.224 164.208V218.534H320.261V164.208" stroke="#363636" stroke-width="4" stroke-linecap="round" stroke-linejoin="round"/>
<path d="M273.219 218.534H226.182V272.86H273.219V218.534Z" stroke="#363636" stroke-width="4" stroke-linecap="round" stroke-linejoin="round"/>
<path d="M320.261 218.534H273.224V272.86H320.261V218.534Z" stroke="#363636" stroke-width="4" stroke-linecap="round" stroke-linejoin="round"/>
<path d="M367.303 164.208V218.534H320.261V164.208" stroke="#363636" stroke-width="4" stroke-linecap="round" stroke-linejoin="round"/>
<path d="M414.34 218.534H367.303V272.86H414.34" stroke="#363636" stroke-width="4" stroke-linecap="round" stroke-linejoin="round"/>
<path d="M414.34 218.534H367.303V164.208" stroke="#363636" stroke-width="4" stroke-linecap="round" stroke-linejoin="round"/>
<path d="M367.299 218.534H320.261V272.86H367.299V218.534Z" stroke="#363636" stroke-width="4" stroke-linecap="round" stroke-linejoin="round"/>
<path d="M273.219 272.86H226.182V327.186H273.219V272.86Z" stroke="#363636" stroke-width="4" stroke-linecap="round" stroke-linejoin="round"/>
<path d="M320.261 272.86H273.224V327.186H320.261V272.86Z" stroke="#363636" stroke-width="4" stroke-linecap="round" stroke-linejoin="round"/>
<path d="M273.219 327.186H226.182V381.512H273.219V327.186Z" stroke="#363636" stroke-width="4" stroke-linecap="round" stroke-linejoin="round"/>
<path d="M320.261 327.186H273.224V381.512H320.261V327.186Z" stroke="#363636" stroke-width="4" stroke-linecap="round" stroke-linejoin="round"/>
<path d="M367.299 272.86H320.261V327.186H367.299V272.86Z" stroke="#363636" stroke-width="4" stroke-linecap="round" stroke-linejoin="round"/>
<path d="M414.34 327.186H367.303V381.512H414.34" stroke="#363636" stroke-width="4" stroke-linecap="round" stroke-linejoin="round"/>
<path d="M414.34 327.186H367.303V272.86H414.34" stroke="#363636" stroke-width="4" stroke-linecap="round" stroke-linejoin="round"/>
<path d="M367.299 327.186H320.261V381.512H367.299V327.186Z" stroke="#363636" stroke-width="4" stroke-linecap="round" stroke-linejoin="round"/>
<path d="M173.195 296.094H260.742V360.827C260.742 364.078 259.451 367.196 257.152 369.495C254.853 371.794 251.735 373.086 248.484 373.086H185.458C182.206 373.086 179.088 371.794 176.789 369.495C174.491 367.196 173.199 364.078 173.199 360.827V296.094H173.195Z" fill="#FFFCF7" stroke="#363636" stroke-width="4" stroke-linecap="round" stroke-linejoin="round"/>
<path d="M260.742 302.498H270.952L281.941 295.654C282.229 295.429 282.437 295.118 282.536 294.767C282.634 294.415 282.618 294.041 282.488 293.699C282.361 293.419 282.171 293.171 281.933 292.976C281.695 292.78 281.416 292.641 281.116 292.57C280.816 292.499 280.504 292.498 280.204 292.566C279.904 292.634 279.623 292.77 279.383 292.963L269.545 298.883H260.742V302.498Z" fill="#FFFCF7" stroke="#363636" stroke-width="4" stroke-linecap="round" stroke-linejoin="round"/>
<path d="M173.19 302.498H162.976L151.992 295.654C151.704 295.429 151.496 295.118 151.397 294.767C151.299 294.415 151.315 294.041 151.445 293.699C151.572 293.419 151.762 293.171 152 292.976C152.238 292.78 152.517 292.641 152.817 292.57C153.117 292.499 153.429 292.498 153.729 292.566C154.029 292.634 154.31 292.77 154.55 292.963L164.388 298.883H173.178L173.19 302.498Z" fill="#FFFCF7" stroke="#363636" stroke-width="4" stroke-linecap="round" stroke-linejoin="round"/>
<path d="M260.742 295.979H173.195C177.438 289.991 195.437 285.478 216.969 285.478C238.501 285.478 256.499 289.986 260.742 295.979Z" fill="#FFFCF7" stroke="#363636" stroke-width="4" stroke-linecap="round" stroke-linejoin="round"/>
<path d="M224.18 277.664H210.741C209.458 277.664 208.547 278.87 209.03 279.982L211.408 285.512H223.496L225.891 279.973C226.353 278.861 225.463 277.664 224.18 277.664Z" fill="#FFFCF7" stroke="#363636" stroke-width="4" stroke-linecap="round" stroke-linejoin="round"/>
<path d="M125.216 373.086H75.5995C67.494 373.086 60.2397 367.714 57.4039 359.604L54.1146 350.194H146.701L143.412 359.604C140.576 367.714 133.322 373.086 125.216 373.086Z" fill="#FFFCF7" stroke="#363636" stroke-width="4" stroke-linecap="round" stroke-linejoin="round"/>
<path d="M147.817 346.421H53.0025C51.9868 346.421 51.1633 347.245 51.1633 348.26V348.363C51.1633 349.379 51.9868 350.202 53.0025 350.202H147.817C148.833 350.202 149.657 349.379 149.657 348.363V348.26C149.657 347.245 148.833 346.421 147.817 346.421Z" fill="#FFFCF7" stroke="#363636" stroke-width="4" stroke-linecap="round" stroke-linejoin="round"/>
<path d="M179.422 353.419H145.645L146.787 350.207H179.422V353.419Z" fill="#FFFCF7" stroke="#363636" stroke-width="4" stroke-linecap="round" stroke-linejoin="round"/>
<path d="M213.564 348.029H181.937C180.234 348.029 178.854 349.41 178.854 351.113V351.759C178.854 353.462 180.234 354.843 181.937 354.843H213.564C215.267 354.843 216.648 353.462 216.648 351.759V351.113C216.648 349.41 215.267 348.029 213.564 348.029Z" fill="#FFFCF7" stroke="#363636" stroke-width="4" stroke-linecap="round" stroke-linejoin="round"/>
<path d="M307.451 172.335C226.554 174.375 195.522 215.45 213.615 256.457C245.656 328.991 118.621 314.234 104.766 328.863C93.2947 340.989 118.856 346.528 118.856 346.528H95.2751C95.2751 346.528 55.8084 331.558 72.5797 304.114C89.351 276.671 137.411 281.282 137.411 253.172C137.411 225.061 49.5807 215.121 73.9356 172.442L307.451 172.335Z" fill="#FFFCF7" stroke="#363636" stroke-width="4" stroke-linecap="round" stroke-linejoin="round"/>
<path d="M423.712 144.999H30.0848C27.6398 144.999 25.6577 146.981 25.6577 149.426V167.613C25.6577 170.058 27.6398 172.04 30.0848 172.04H423.712C426.157 172.04 428.139 170.058 428.139 167.613V149.426C428.139 146.981 426.157 144.999 423.712 144.999Z" fill="#FFFCF7" stroke="#363636" stroke-width="4" stroke-linecap="round" stroke-linejoin="round"/>
<path d="M379.194 144.734H74.6029L176.946 60.1542H276.855L379.194 144.734Z" fill="#FFFCF7" stroke="#363636" stroke-width="4" stroke-linecap="round" stroke-linejoin="round"/>
<path d="M276.496 2H177.305V60.1542H276.496V2Z" fill="#FFFCF7" stroke="#363636" stroke-width="4" stroke-linecap="round" stroke-linejoin="round"/>
<path d="M355.194 201.797H319.992C317.905 201.797 315.904 200.968 314.428 199.493C312.952 198.018 312.123 196.018 312.121 193.931V156.962H347.324V193.931C347.325 196.018 348.154 198.018 349.63 199.493C351.106 200.968 353.107 201.797 355.194 201.797Z" fill="#FFFCF7" stroke="#363636" stroke-width="4" stroke-linecap="round" stroke-linejoin="round"/>
<path d="M348.936 162.715L342.58 155.431" stroke="#363636" stroke-width="4" stroke-linecap="round" stroke-linejoin="round"/>
<path d="M310.851 162.715L317.207 155.431" stroke="#363636" stroke-width="4" stroke-linecap="round" stroke-linejoin="round"/>
<path d="M322.81 168.639H337.751" stroke="#363636" stroke-width="4" stroke-linecap="round" stroke-linejoin="round"/>
<path d="M322.81 176.197H337.751" stroke="#363636" stroke-width="4" stroke-linecap="round" stroke-linejoin="round"/>
<path d="M322.81 183.755H337.751" stroke="#363636" stroke-width="4" stroke-linecap="round" stroke-linejoin="round"/>
<path d="M322.81 191.313H337.751" stroke="#363636" stroke-width="4" stroke-linecap="round" stroke-linejoin="round"/>
<path d="M385.503 162.125H359.865V188.426H385.503V162.125Z" fill="#E36824" stroke="#363636" stroke-width="4" stroke-linecap="round" stroke-linejoin="round"/>
<path d="M374.908 159.413H370.344V164.371H374.908V159.413Z" fill="#FFFCF7" stroke="#363636" stroke-width="4" stroke-linecap="round" stroke-linejoin="round"/>
<path d="M428.105 381.512H24.3703V616.481H428.105V381.512Z" fill="#FFFCF7" stroke="#363636" stroke-width="4" stroke-linecap="round" stroke-linejoin="round"/>
<path d="M428.105 399.994H24.3703V446.078H428.105V399.994Z" fill="#FFFCF7" stroke="#363636" stroke-width="4" stroke-linecap="round" stroke-linejoin="round"/>
<path d="M428.143 446.078H292.501V616.477H428.143V446.078Z" fill="#FFFCF7" stroke="#363636" stroke-width="4" stroke-linecap="round" stroke-linejoin="round"/>
<path d="M414.443 454.885H306.488V592.323H414.443V454.885Z" fill="#FFFCF7" stroke="#363636" stroke-width="4" stroke-linecap="round" stroke-linejoin="round"/>
<path d="M275.884 454.885H38.7249V592.323H275.884V454.885Z" fill="#FFFCF7" stroke="#363636" stroke-width="4" stroke-linecap="round" stroke-linejoin="round"/>
<path d="M428.1 644.981H414.76L414.443 616.481H428.1V644.981Z" fill="#FFFCF7" stroke="#363636" stroke-width="4" stroke-linecap="round" stroke-linejoin="round"/>
<path d="M24.3703 644.981H37.7112L38.0277 616.481H24.3703V644.981Z" fill="#FFFCF7" stroke="#363636" stroke-width="4" stroke-linecap="round" stroke-linejoin="round"/>
<path d="M292.318 616.481H278.66V644.985H292.318V616.481Z" fill="#FFFCF7" stroke="#363636" stroke-width="4" stroke-linecap="round" stroke-linejoin="round"/>
<path d="M409.815 458.542V494.642L310.962 571.142V458.542H409.815Z" fill="#363636"/>
<path d="M409.815 515.653V534.533L344.317 587.802H314.692L409.815 515.653Z" fill="#363636"/>
<path d="M398.412 463.033H322.515C320.701 463.033 319.23 464.504 319.23 466.318V468.273C319.23 470.087 320.701 471.558 322.515 471.558H398.412C400.226 471.558 401.697 470.087 401.697 468.273V466.318C401.697 464.504 400.226 463.033 398.412 463.033Z" fill="#FFFCF7" stroke="#363636" stroke-width="4" stroke-linecap="round" stroke-linejoin="round"/>
<path d="M352.779 424.109C353.478 419.793 350.546 415.727 346.229 415.028C341.913 414.329 337.847 417.261 337.148 421.577C336.449 425.894 339.381 429.959 343.698 430.659C348.014 431.358 352.08 428.425 352.779 424.109Z" fill="#FFFCF7" stroke="#363636" stroke-width="4" stroke-linecap="round" stroke-linejoin="round"/>
<path d="M377.733 424.634C378.734 420.377 376.096 416.115 371.839 415.114C367.583 414.112 363.321 416.751 362.319 421.007C361.318 425.263 363.957 429.526 368.213 430.527C372.469 431.529 376.732 428.89 377.733 424.634Z" fill="#FFFCF7" stroke="#363636" stroke-width="4" stroke-linecap="round" stroke-linejoin="round"/>
<path d="M344.941 422.805V414.892" stroke="#363636" stroke-width="4" stroke-linecap="round" stroke-linejoin="round"/>
<path d="M370.019 422.805V414.892" stroke="#363636" stroke-width="4" stroke-linecap="round" stroke-linejoin="round"/>
<path d="M81.7195 428.403C84.8114 425.312 84.8114 420.299 81.7195 417.207C78.6276 414.115 73.6147 414.115 70.5228 417.207C67.4309 420.299 67.4309 425.312 70.5228 428.403C73.6147 431.495 78.6277 431.495 81.7195 428.403Z" fill="#FFFCF7" stroke="#363636" stroke-width="4" stroke-linecap="round" stroke-linejoin="round"/>
<path d="M106.799 428.406C109.891 425.314 109.891 420.301 106.799 417.209C103.707 414.117 98.6945 414.117 95.6026 417.209C92.5107 420.301 92.5107 425.314 95.6026 428.406C98.6945 431.498 103.707 431.498 106.799 428.406Z" fill="#FFFCF7" stroke="#363636" stroke-width="4" stroke-linecap="round" stroke-linejoin="round"/>
<path d="M151.428 424.632C152.43 420.376 149.791 416.114 145.535 415.112C141.278 414.111 137.016 416.749 136.015 421.006C135.013 425.262 137.652 429.524 141.908 430.526C146.164 431.527 150.427 428.889 151.428 424.632Z" fill="#FFFCF7" stroke="#363636" stroke-width="4" stroke-linecap="round" stroke-linejoin="round"/>
<path d="M174.398 428.401C177.49 425.309 177.49 420.296 174.398 417.204C171.306 414.112 166.293 414.112 163.202 417.204C160.11 420.296 160.11 425.309 163.202 428.401C166.293 431.493 171.306 431.493 174.398 428.401Z" fill="#FFFCF7" stroke="#363636" stroke-width="4" stroke-linecap="round" stroke-linejoin="round"/>
<path d="M219.025 424.629C220.026 420.372 217.388 416.11 213.131 415.108C208.875 414.107 204.613 416.746 203.611 421.002C202.61 425.258 205.248 429.521 209.505 430.522C213.761 431.523 218.023 428.885 219.025 424.629Z" fill="#FFFCF7" stroke="#363636" stroke-width="4" stroke-linecap="round" stroke-linejoin="round"/>
<path d="M244.106 424.632C245.108 420.376 242.469 416.113 238.213 415.112C233.956 414.11 229.694 416.749 228.693 421.005C227.691 425.262 230.33 429.524 234.586 430.526C238.842 431.527 243.105 428.888 244.106 424.632Z" fill="#FFFCF7" stroke="#363636" stroke-width="4" stroke-linecap="round" stroke-linejoin="round"/>
<path d="M211.318 422.805L217.311 427.972" stroke="#363636" stroke-width="4" stroke-linecap="round" stroke-linejoin="round"/>
<path d="M236.396 422.805V414.892" stroke="#363636" stroke-width="4" stroke-linecap="round" stroke-linejoin="round"/>
<path d="M76.1213 422.805L83.1104 419.088" stroke="#363636" stroke-width="4" stroke-linecap="round" stroke-linejoin="round"/>
<path d="M101.203 422.805V414.892" stroke="#363636" stroke-width="4" stroke-linecap="round" stroke-linejoin="round"/>
<path d="M143.72 422.805V414.892" stroke="#363636" stroke-width="4" stroke-linecap="round" stroke-linejoin="round"/>
<path d="M168.802 422.805V414.892" stroke="#363636" stroke-width="4" stroke-linecap="round" stroke-linejoin="round"/>
<path d="M213.838 458.542L42.9209 582.879V458.542H213.838Z" fill="#363636"/>
<path d="M236.768 458.542H268.074L84.9326 586.891H53.627L236.768 458.542Z" fill="#363636"/>
<path d="M260.075 463.033H52.0273C50.4139 463.033 49.1059 464.341 49.1059 465.955V468.636C49.1059 470.25 50.4139 471.558 52.0273 471.558H260.075C261.689 471.558 262.997 470.25 262.997 468.636V465.955C262.997 464.341 261.689 463.033 260.075 463.033Z" fill="#FFFCF7" stroke="#363636" stroke-width="4" stroke-linecap="round" stroke-linejoin="round"/>
<path d="M189.098 381.512L197.751 374.621H238.984L247.637 381.512" fill="#FFFCF7"/>
<path d="M189.098 381.512L197.751 374.621H238.984L247.637 381.512" stroke="#363636" stroke-width="4" stroke-linecap="round" stroke-linejoin="round"/>
<path d="M218.367 374.621V381.512" stroke="#363636" stroke-width="4" stroke-linecap="round" stroke-linejoin="round"/>
<path d="M330.146 381.512L338.799 374.621H380.028L388.681 381.512" fill="#FFFCF7"/>
<path d="M330.146 381.512L338.799 374.621H380.028L388.681 381.512" stroke="#363636" stroke-width="4" stroke-linecap="round" stroke-linejoin="round"/>
<path d="M359.411 374.621V381.512" stroke="#363636" stroke-width="4" stroke-linecap="round" stroke-linejoin="round"/>
<path d="M70.548 381.512L79.201 374.621H120.434L129.087 381.512" fill="#FFFCF7"/>
<path d="M70.548 381.512L79.201 374.621H120.434L129.087 381.512" stroke="#363636" stroke-width="4" stroke-linecap="round" stroke-linejoin="round"/>
<path d="M99.8176 374.621V381.512" stroke="#363636" stroke-width="4" stroke-linecap="round" stroke-linejoin="round"/>
</svg>
