<svg width="456" height="333" viewBox="0 0 456 333" fill="none" xmlns="http://www.w3.org/2000/svg">
<path d="M253.06 292.917C141.327 292.917 50.7497 283.071 50.7497 270.925C50.7497 258.78 141.327 248.934 253.06 248.934C364.793 248.934 455.37 258.78 455.37 270.925C455.37 283.071 364.793 292.917 253.06 292.917Z" fill="#363636"/>
<path d="M234.878 311.709H214.591C211.565 311.709 209.113 309.257 209.113 306.231V304.858C209.113 301.833 211.565 299.38 214.591 299.38H234.878C237.904 299.38 240.357 301.833 240.357 304.858V306.231C240.357 309.257 237.904 311.709 234.878 311.709Z" fill="#FFFCF7" stroke="#363636" stroke-width="2.87566" stroke-linecap="round" stroke-linejoin="round"/>
<path d="M32.2161 331.156H200.996C206.981 331.156 212.721 328.778 216.953 324.546C221.185 320.314 223.563 314.574 223.563 308.589V302.924C223.563 296.939 221.185 291.199 216.953 286.967C212.721 282.735 206.981 280.357 200.996 280.357H32.2161L32.2161 331.156Z" fill="#FFFCF7" stroke="#363636" stroke-width="2.87566" stroke-linecap="round" stroke-linejoin="round"/>
<path d="M32.2232 330.998C21.1853 330.998 12.2374 319.662 12.2374 305.678C12.2374 291.694 21.1853 280.357 32.2232 280.357C43.2611 280.357 52.2091 291.694 52.2091 305.678C52.2091 319.662 43.2611 330.998 32.2232 330.998Z" fill="#FFFCF7" stroke="#363636" stroke-width="2.87566" stroke-linecap="round" stroke-linejoin="round"/>
<path d="M27.766 311.709H7.4782C4.4527 311.709 2.00006 309.257 2.00006 306.231V304.858C2.00006 301.833 4.4527 299.38 7.4782 299.38H27.766C30.7915 299.38 33.2442 301.833 33.2442 304.858V306.231C33.2442 309.257 30.7915 311.709 27.766 311.709Z" fill="#FFFCF7" stroke="#363636" stroke-width="2.87566" stroke-linecap="round" stroke-linejoin="round"/>
<path d="M250.112 241.011C249.965 241.083 249.842 241.197 249.761 241.339C249.68 241.481 249.643 241.645 249.657 241.808C249.67 241.971 249.732 242.127 249.835 242.254C249.938 242.381 250.078 242.474 250.234 242.521C277.223 250.235 310.235 254.778 345.85 254.778C381.638 254.778 414.773 250.199 441.818 242.427C441.962 242.381 442.09 242.295 442.187 242.18C442.285 242.065 442.349 241.925 442.371 241.775C442.393 241.626 442.374 241.473 442.314 241.335C442.255 241.196 442.158 241.076 442.034 240.99C433.314 235.145 379.711 233.383 345.85 233.383C312.701 233.369 259.954 236.525 250.112 241.011Z" fill="#FFFCF7" stroke="#363636" stroke-width="2.87566" stroke-linecap="round" stroke-linejoin="round"/>
<path d="M324.901 235.569C324.901 235.569 310.789 233.333 314.391 219.695" stroke="#363636" stroke-width="2.87566" stroke-linecap="round" stroke-linejoin="round"/>
<path d="M322.137 245.809C319.306 242.716 319.518 237.914 322.611 235.083C325.703 232.252 330.505 232.464 333.336 235.557C336.167 238.649 335.955 243.451 332.862 246.282C329.77 249.113 324.968 248.901 322.137 245.809Z" fill="#E36824" stroke="#363636" stroke-width="2.87566" stroke-linecap="round" stroke-linejoin="round"/>
<path d="M306.382 235.612C306.382 235.612 313.492 232.312 313.873 225.648L306.382 235.612Z" fill="#FFFCF7"/>
<path d="M306.382 235.612C306.382 235.612 313.492 232.312 313.873 225.648" stroke="#363636" stroke-width="2.87566" stroke-linecap="round" stroke-linejoin="round"/>
<path d="M301.215 245.288C298.4 243.28 297.745 239.37 299.754 236.554C301.762 233.739 305.672 233.085 308.488 235.093C311.303 237.101 311.957 241.011 309.949 243.827C307.941 246.642 304.031 247.297 301.215 245.288Z" fill="#E36824" stroke="#363636" stroke-width="2.87566" stroke-linecap="round" stroke-linejoin="round"/>
<path d="M385.606 257.331C385.606 257.331 371.494 255.088 375.089 241.45L385.606 257.331Z" fill="#FFFCF7"/>
<path d="M385.606 257.331C385.606 257.331 371.494 255.088 375.089 241.45" stroke="#363636" stroke-width="2.87566" stroke-linecap="round" stroke-linejoin="round"/>
<path d="M385.456 269.42C381.601 267.771 379.812 263.31 381.461 259.455C383.109 255.599 387.57 253.81 391.426 255.459C395.281 257.107 397.07 261.569 395.422 265.424C393.773 269.279 389.312 271.068 385.456 269.42Z" fill="#FFFCF7" stroke="#363636" stroke-width="2.87566" stroke-linecap="round" stroke-linejoin="round"/>
<path d="M367.087 257.374C367.087 257.374 374.19 254.067 374.571 247.402L367.087 257.374Z" fill="#FFFCF7"/>
<path d="M367.087 257.374C367.087 257.374 374.19 254.067 374.571 247.402" stroke="#363636" stroke-width="2.87566" stroke-linecap="round" stroke-linejoin="round"/>
<path d="M363.646 267.907C360.355 266.845 358.549 263.315 359.612 260.024C360.675 256.733 364.204 254.927 367.495 255.99C370.786 257.053 372.592 260.583 371.529 263.873C370.466 267.164 366.937 268.97 363.646 267.907Z" fill="#FFFCF7" stroke="#363636" stroke-width="2.87566" stroke-linecap="round" stroke-linejoin="round"/>
<path d="M338.891 255.109C338.891 255.109 324.98 259.236 319.028 246.482L338.891 255.109Z" fill="#FFFCF7"/>
<path d="M338.891 255.109C338.891 255.109 324.98 259.236 319.028 246.482" stroke="#363636" stroke-width="2.87566" stroke-linecap="round" stroke-linejoin="round"/>
<path d="M338.687 260.431C335.671 257.518 335.587 252.712 338.5 249.696C341.412 246.68 346.218 246.596 349.234 249.509C352.25 252.421 352.334 257.227 349.422 260.243C346.509 263.259 341.703 263.343 338.687 260.431Z" fill="#E36824" stroke="#363636" stroke-width="2.87566" stroke-linecap="round" stroke-linejoin="round"/>
<path d="M317.036 265.95C317.036 265.95 303.132 270.077 297.172 257.323L317.036 265.95Z" fill="#FFFCF7"/>
<path d="M317.036 265.95C317.036 265.95 303.132 270.077 297.172 257.323" stroke="#363636" stroke-width="2.87566" stroke-linecap="round" stroke-linejoin="round"/>
<path d="M314.529 266.252C314.284 262.066 317.48 258.475 321.665 258.231C325.851 257.987 329.442 261.182 329.686 265.367C329.931 269.553 326.735 273.144 322.55 273.389C318.364 273.633 314.773 270.438 314.529 266.252Z" fill="#FFFCF7" stroke="#363636" stroke-width="2.87566" stroke-linecap="round" stroke-linejoin="round"/>
<path d="M278.699 263.379C277.439 259.38 279.659 255.116 283.658 253.856C287.657 252.596 291.92 254.817 293.181 258.815C294.441 262.814 292.22 267.078 288.221 268.338C284.222 269.598 279.959 267.378 278.699 263.379Z" fill="#FFFCF7" stroke="#363636" stroke-width="2.87566" stroke-linecap="round" stroke-linejoin="round"/>
<path d="M312.298 247.92C312.298 247.92 318.589 243.247 317.611 236.64L312.298 247.92Z" fill="#FFFCF7"/>
<path d="M312.298 247.92C312.298 247.92 318.589 243.247 317.611 236.64" stroke="#363636" stroke-width="2.87566" stroke-linecap="round" stroke-linejoin="round"/>
<path d="M311.023 258.932C307.587 258.54 305.12 255.436 305.513 252C305.906 248.564 309.009 246.097 312.445 246.49C315.881 246.882 318.348 249.986 317.955 253.422C317.563 256.858 314.459 259.325 311.023 258.932Z" fill="#E36824" stroke="#363636" stroke-width="2.87566" stroke-linecap="round" stroke-linejoin="round"/>
<path d="M275.691 246.935C275.691 246.935 283.441 245.785 285.706 239.509L275.691 246.935Z" fill="#FFFCF7"/>
<path d="M275.691 246.935C275.691 246.935 283.441 245.785 285.706 239.509" stroke="#363636" stroke-width="2.87566" stroke-linecap="round" stroke-linejoin="round"/>
<path d="M272.923 257.151C269.465 257.151 266.662 254.347 266.662 250.889C266.662 247.431 269.465 244.627 272.923 244.627C276.382 244.627 279.185 247.431 279.185 250.889C279.185 254.347 276.382 257.151 272.923 257.151Z" fill="#E36824" stroke="#363636" stroke-width="2.87566" stroke-linecap="round" stroke-linejoin="round"/>
<path d="M399.179 243.247C399.179 243.247 406.182 238.481 405.427 231.313L399.179 243.247Z" fill="#FFFCF7"/>
<path d="M399.179 243.247C399.179 243.247 406.182 238.481 405.427 231.313" stroke="#363636" stroke-width="2.87566" stroke-linecap="round" stroke-linejoin="round"/>
<path d="M394.923 254.219C391.69 252.338 390.595 248.192 392.476 244.96C394.358 241.727 398.503 240.632 401.736 242.513C404.968 244.395 406.064 248.54 404.182 251.773C402.301 255.005 398.155 256.101 394.923 254.219Z" fill="#E36824" stroke="#363636" stroke-width="2.87566" stroke-linecap="round" stroke-linejoin="round"/>
<path d="M291.095 250.539C290.687 247.942 292.462 245.507 295.059 245.099C297.655 244.692 300.091 246.466 300.498 249.063C300.906 251.66 299.131 254.095 296.534 254.503C293.938 254.91 291.502 253.136 291.095 250.539Z" fill="#E36824" stroke="#363636" stroke-width="2.87566" stroke-linecap="round" stroke-linejoin="round"/>
<path d="M381.792 250.797C379.377 249.76 378.259 246.962 379.296 244.546C380.332 242.131 383.131 241.013 385.546 242.05C387.962 243.087 389.079 245.885 388.042 248.301C387.006 250.716 384.207 251.833 381.792 250.797Z" fill="#E36824" stroke="#363636" stroke-width="2.87566" stroke-linecap="round" stroke-linejoin="round"/>
<path d="M414.897 252.849C412.846 249.879 413.59 245.809 416.56 243.758C419.53 241.707 423.6 242.452 425.651 245.421C427.702 248.391 426.957 252.461 423.987 254.512C421.018 256.563 416.948 255.818 414.897 252.849Z" fill="#E36824" stroke="#363636" stroke-width="2.87566" stroke-linecap="round" stroke-linejoin="round"/>
<path d="M341.867 267.683C342.074 268.6 342.004 269.558 341.666 270.436C341.328 271.314 340.738 272.072 339.97 272.614C339.202 273.157 338.29 273.459 337.35 273.484C336.41 273.509 335.484 273.255 334.688 272.754C333.892 272.253 333.263 271.527 332.879 270.669C332.495 269.81 332.375 268.857 332.532 267.93C332.689 267.003 333.118 266.143 333.764 265.46C334.409 264.776 335.243 264.299 336.159 264.088C336.77 263.949 337.402 263.932 338.02 264.037C338.638 264.142 339.228 264.368 339.759 264.702C340.289 265.036 340.748 265.471 341.11 265.983C341.472 266.494 341.729 267.072 341.867 267.683Z" fill="#FFFCF7" stroke="#363636" stroke-width="2.87566" stroke-linecap="round" stroke-linejoin="round"/>
<path d="M355.683 247.542C354.646 244.243 356.48 240.728 359.779 239.691C363.078 238.654 366.593 240.488 367.63 243.787C368.667 247.086 366.834 250.601 363.535 251.638C360.235 252.675 356.72 250.841 355.683 247.542Z" fill="#E36824" stroke="#363636" stroke-width="2.87566" stroke-linecap="round" stroke-linejoin="round"/>
<path d="M407.266 265.84C403.83 265.447 401.363 262.344 401.756 258.908C402.148 255.472 405.252 253.005 408.688 253.398C412.124 253.79 414.591 256.894 414.198 260.33C413.805 263.766 410.702 266.233 407.266 265.84Z" fill="#FFFCF7" stroke="#363636" stroke-width="2.87566" stroke-linecap="round" stroke-linejoin="round"/>
<path d="M346.33 272.811C345.293 269.512 347.126 265.997 350.426 264.96C353.725 263.923 357.24 265.757 358.277 269.056C359.314 272.355 357.48 275.87 354.181 276.907C350.882 277.944 347.367 276.11 346.33 272.811Z" fill="#FFFCF7" stroke="#363636" stroke-width="2.87566" stroke-linecap="round" stroke-linejoin="round"/>
<path opacity="0.5" d="M249.645 242.399C250.199 263.815 292.449 280.365 345.865 280.365C399.28 280.365 441.56 263.47 442.113 242.018C414.794 250.041 382.285 254.405 345.879 254.405C309.473 254.405 276.942 250.415 249.645 242.399Z" fill="#FFFCF7" stroke="#363636" stroke-width="2.87566" stroke-linecap="round" stroke-linejoin="round"/>
<path d="M249.645 242.399C250.199 263.815 292.449 280.365 345.865 280.365C399.28 280.365 441.56 263.47 442.113 242.018C414.794 250.041 382.285 254.405 345.879 254.405C309.473 254.405 276.942 250.415 249.645 242.399Z" fill="#FFFCF7" stroke="#363636" stroke-width="2.87566" stroke-linecap="round" stroke-linejoin="round"/>
<path d="M274.081 84.9202H96.71C91.6535 84.9202 86.8041 86.9289 83.2286 90.5044C79.653 94.0799 77.6443 98.9293 77.6443 103.986V165.547H293.147V103.986C293.147 98.9293 291.138 94.0799 287.562 90.5044C283.987 86.9289 279.137 84.9202 274.081 84.9202Z" fill="#FFFCF7" stroke="#363636" stroke-width="2.87566" stroke-linecap="round" stroke-linejoin="round"/>
<path d="M114.302 52.3748V84.9201H253.053V52.3748C253.054 50.3787 252.661 48.402 251.898 46.5577C251.134 44.7134 250.015 43.0376 248.603 41.6261C247.192 40.2147 245.516 39.0953 243.672 38.3318C241.828 37.5684 239.851 37.1759 237.855 37.1769H129.471C125.673 37.1864 122.016 38.6186 119.221 41.1909C116.427 43.7632 114.697 47.2891 114.374 51.0735C114.324 51.5049 114.302 51.9362 114.302 52.3748Z" fill="#FFFCF7" stroke="#363636" stroke-width="2.87566" stroke-linecap="round" stroke-linejoin="round"/>
<path d="M87.055 87.1702V107.911C87.055 111.379 88.4327 114.705 90.8852 117.158C93.3376 119.61 96.6638 120.988 100.132 120.988C103.6 120.988 106.927 119.61 109.379 117.158C111.831 114.705 113.209 111.379 113.209 107.911V105.467C113.151 103.683 113.451 101.906 114.093 100.241C114.735 98.5766 115.705 97.0579 116.946 95.7756C118.187 94.4933 119.673 93.4737 121.316 92.7773C122.959 92.0809 124.725 91.7221 126.509 91.7221C128.293 91.7221 130.06 92.0809 131.702 92.7773C133.345 93.4737 134.831 94.4933 136.072 95.7756C137.313 97.0579 138.283 98.5766 138.925 100.241C139.567 101.906 139.868 103.683 139.809 105.467V134.691C139.896 138.691 141.546 142.499 144.406 145.298C147.267 148.097 151.109 149.665 155.111 149.665C159.113 149.665 162.956 148.097 165.816 145.298C168.676 142.499 170.327 138.691 170.413 134.691V115.999C170.413 113.448 171.427 111.001 173.231 109.197C175.035 107.393 177.481 106.38 180.032 106.38H180.327C182.806 106.38 185.183 107.364 186.936 109.117C188.688 110.87 189.673 113.247 189.673 115.726V125.855C189.673 129.001 190.923 132.018 193.147 134.243C195.372 136.467 198.389 137.717 201.535 137.717C204.681 137.717 207.698 136.467 209.923 134.243C212.148 132.018 213.397 129.001 213.397 125.855V101.419C213.397 96.1279 217.711 92.562 222.995 92.562H223.282C228.423 92.562 232.585 95.9985 232.585 101.139V119.687C232.585 120.962 232.836 122.225 233.325 123.402C233.813 124.58 234.528 125.651 235.43 126.552C236.332 127.453 237.403 128.168 238.581 128.655C239.76 129.143 241.023 129.393 242.298 129.392H242.585C243.823 129.392 245.048 129.148 246.191 128.675C247.334 128.201 248.373 127.506 249.247 126.631C250.122 125.756 250.815 124.717 251.288 123.573C251.761 122.43 252.004 121.204 252.003 119.967V116.092C252.003 112.428 253.459 108.913 256.05 106.322C258.641 103.73 262.156 102.275 265.821 102.275C269.485 102.275 273 103.73 275.591 106.322C278.182 108.913 279.638 112.428 279.638 116.092V127.063C279.638 128.698 279.96 130.316 280.586 131.827C281.212 133.337 282.129 134.709 283.286 135.865C284.442 137.021 285.815 137.937 287.325 138.562C288.836 139.187 290.455 139.508 292.09 139.507V102.612C292.088 98.2124 290.339 93.9932 287.228 90.8819C284.117 87.7706 279.897 86.0218 275.497 86.0199H93.1298C91.0507 86.019 88.9899 86.4092 87.055 87.1702Z" fill="#EFAF00" stroke="#1C1C1C" stroke-width="2.87566" stroke-linecap="round" stroke-linejoin="round"/>
<path d="M231.73 151.995C231.73 151.995 216.963 149.558 219.336 135.654L231.73 151.995Z" fill="#FFFCF7"/>
<path d="M231.73 151.995C231.73 151.995 216.963 149.558 219.336 135.654" stroke="#363636" stroke-width="2.87566" stroke-linecap="round" stroke-linejoin="round"/>
<path d="M227.433 157.227C227.213 153.04 230.43 149.467 234.617 149.248C238.804 149.028 242.376 152.245 242.595 156.432C242.815 160.619 239.598 164.191 235.411 164.411C231.224 164.63 227.652 161.414 227.433 157.227Z" fill="#E36824" stroke="#363636" stroke-width="2.87566" stroke-linecap="round" stroke-linejoin="round"/>
<path d="M213.289 153.684C213.289 153.684 220.069 149.766 219.86 143.095L213.289 153.684Z" fill="#FFFCF7"/>
<path d="M213.289 153.684C213.289 153.684 220.069 149.766 219.86 143.095" stroke="#363636" stroke-width="2.87566" stroke-linecap="round" stroke-linejoin="round"/>
<path d="M208.587 163.484C205.749 161.507 205.052 157.604 207.029 154.767C209.006 151.93 212.909 151.232 215.746 153.209C218.584 155.187 219.281 159.089 217.304 161.927C215.327 164.764 211.424 165.461 208.587 163.484Z" fill="#E36824" stroke="#363636" stroke-width="2.87566" stroke-linecap="round" stroke-linejoin="round"/>
<path d="M78.7085 139.098C79.1283 139.098 79.5439 139.015 79.9316 138.854C80.3194 138.693 80.6716 138.457 80.9681 138.16C81.2646 137.863 81.4995 137.51 81.6595 137.122C81.8195 136.734 81.9014 136.318 81.9005 135.898V132.153C81.921 131.721 81.8535 131.288 81.7022 130.883C81.5508 130.477 81.3188 130.107 81.02 129.793C80.7213 129.48 80.362 129.231 79.9641 129.06C79.5661 128.89 79.1378 128.802 78.7049 128.802C78.272 128.802 77.8436 128.89 77.4456 129.06C77.0477 129.231 76.6885 129.48 76.3897 129.793C76.091 130.107 75.8589 130.477 75.7076 130.883C75.5562 131.288 75.4888 131.721 75.5093 132.153V135.898C75.5093 136.747 75.8463 137.561 76.4463 138.161C77.0462 138.761 77.86 139.098 78.7085 139.098Z" fill="#FFFCF7" stroke="#363636" stroke-width="2.87566" stroke-linecap="round" stroke-linejoin="round"/>
<path d="M121.175 113.346C122.173 113.344 123.129 112.946 123.834 112.24C124.539 111.534 124.935 110.577 124.935 109.579V105.833C124.935 104.836 124.539 103.88 123.833 103.175C123.128 102.47 122.172 102.073 121.175 102.073C120.178 102.073 119.221 102.47 118.516 103.175C117.811 103.88 117.415 104.836 117.415 105.833V109.579C117.415 110.577 117.811 111.534 118.516 112.24C119.221 112.946 120.177 113.344 121.175 113.346Z" fill="#FFFCF7" stroke="#363636" stroke-width="2.87566" stroke-linecap="round" stroke-linejoin="round"/>
<path d="M283.873 153.994C284.366 153.994 284.855 153.896 285.312 153.707C285.768 153.518 286.182 153.241 286.531 152.892C286.881 152.543 287.157 152.129 287.346 151.672C287.535 151.216 287.633 150.727 287.633 150.234V146.488C287.655 145.98 287.574 145.473 287.395 144.997C287.216 144.521 286.942 144.086 286.59 143.719C286.239 143.351 285.816 143.059 285.349 142.859C284.881 142.659 284.378 142.556 283.869 142.556C283.361 142.556 282.857 142.659 282.39 142.859C281.922 143.059 281.499 143.351 281.148 143.719C280.796 144.086 280.523 144.521 280.343 144.997C280.164 145.473 280.083 145.98 280.106 146.488V150.234C280.107 151.231 280.505 152.188 281.211 152.893C281.918 153.598 282.875 153.994 283.873 153.994Z" fill="#FFFCF7" stroke="#363636" stroke-width="2.87566" stroke-linecap="round" stroke-linejoin="round"/>
<path d="M253.06 51.0735C252.813 52.8788 251.91 54.5297 250.522 55.7105C248.782 57.2034 246.56 58.0133 244.267 57.9895C239.379 57.9895 235.418 54.5028 235.418 50.2036V48.7658C235.404 47.698 235.161 46.6455 234.706 45.6794C234.251 44.7133 233.594 43.8561 232.779 43.1655C231.008 41.644 228.744 40.8187 226.41 40.8434C221.435 40.8434 217.402 44.3876 217.402 48.7514V66.142C217.39 67.3751 217.114 68.5913 216.59 69.7079C216.066 70.8244 215.309 71.815 214.368 72.6123C212.329 74.3539 209.73 75.301 207.049 75.2794C201.298 75.2794 196.69 71.196 196.69 66.1708V54.9844C196.69 51.8212 193.771 49.2331 190.176 49.2331H189.982C186.495 49.2331 183.663 51.7206 183.663 54.7903V60.8148C183.651 61.7663 183.435 62.7042 183.03 63.565C182.624 64.4258 182.038 65.1894 181.312 65.8041C179.734 67.1576 177.718 67.891 175.64 67.8674C171.211 67.8674 167.617 64.7114 167.617 60.8148V46.3574C167.617 43.2014 164.741 41.0878 161.146 41.0878H160.952C157.473 41.0878 154.655 43.1295 154.655 46.1849V57.2418C154.655 60.441 151.714 62.9932 148.084 62.9932H147.89C144.367 62.9932 141.513 60.4841 141.513 57.3856V55.0563C141.499 53.9474 141.247 52.8543 140.775 51.8509C140.302 50.8475 139.62 49.9573 138.774 49.2403C136.933 47.6631 134.583 46.8073 132.16 46.8319C126.991 46.8319 122.814 50.5128 122.814 55.0563V61.5841C122.802 62.5823 122.576 63.5663 122.151 64.4693C121.725 65.3724 121.11 66.1733 120.348 66.8178C118.689 68.2361 116.571 69.0026 114.388 68.9745V52.3748C114.387 50.3787 114.78 48.402 115.543 46.5577C116.306 44.7134 117.426 43.0376 118.837 41.6261C120.249 40.2147 121.925 39.0953 123.769 38.3318C125.613 37.5684 127.59 37.1759 129.586 37.1769H237.919C241.725 37.1757 245.393 38.6029 248.196 41.1763C251 43.7497 252.736 47.2817 253.06 51.0735Z" fill="#EFAF00" stroke="#1C1C1C" stroke-width="2.87566" stroke-linecap="round" stroke-linejoin="round"/>
<path d="M145.783 73.0795C145.783 73.0795 132.908 70.9227 135 58.8306L145.783 73.0795Z" fill="#FFFCF7"/>
<path d="M145.783 73.0795C145.783 73.0795 132.908 70.9227 135 58.8306" stroke="#363636" stroke-width="2.87566" stroke-linecap="round" stroke-linejoin="round"/>
<path d="M146.253 83.4858C142.842 82.167 141.146 78.3329 142.465 74.9222C143.784 71.5115 147.618 69.8157 151.028 71.1345C154.439 72.4534 156.135 76.2874 154.816 79.6981C153.497 83.1088 149.663 84.8046 146.253 83.4858Z" fill="#E36824" stroke="#363636" stroke-width="2.87566" stroke-linecap="round" stroke-linejoin="round"/>
<path d="M129.701 74.5533C129.701 74.5533 135.618 71.1384 135.452 65.3152L129.701 74.5533Z" fill="#FFFCF7"/>
<path d="M129.701 74.5533C129.701 74.5533 135.618 71.1384 135.452 65.3152" stroke="#363636" stroke-width="2.87566" stroke-linecap="round" stroke-linejoin="round"/>
<path d="M134.151 78.0257C134.274 79.0997 134.075 80.186 133.58 81.1471C133.085 82.1082 132.316 82.9009 131.371 83.4248C130.425 83.9488 129.345 84.1804 128.268 84.0905C127.191 84.0005 126.164 83.5931 125.319 82.9196C124.473 82.2461 123.846 81.3369 123.518 80.3071C123.189 79.2772 123.173 78.173 123.472 77.1341C123.771 76.0953 124.372 75.1685 125.198 74.4711C126.024 73.7736 127.038 73.3369 128.112 73.2161C129.551 73.0544 130.994 73.47 132.126 74.3717C133.259 75.2735 133.987 76.5876 134.151 78.0257Z" fill="#E36824" stroke="#363636" stroke-width="2.87566" stroke-linecap="round" stroke-linejoin="round"/>
<path d="M220.817 248.006H160.701C157.723 248.006 154.866 249.189 152.76 251.295C150.654 253.401 149.471 256.257 149.471 259.236V261.716H232.039V259.229C232.037 256.253 230.854 253.399 228.75 251.295C226.646 249.191 223.792 248.008 220.817 248.006Z" fill="#FFFCF7" stroke="#363636" stroke-width="2.87566" stroke-linecap="round" stroke-linejoin="round"/>
<path d="M222.276 248.006C219.101 248.006 216.057 246.745 213.812 244.5C211.567 242.255 210.306 239.211 210.306 236.036V196.704C210.305 195.132 210.614 193.575 211.215 192.123C211.816 190.67 212.698 189.35 213.81 188.238C214.921 187.126 216.241 186.245 217.694 185.644C219.147 185.042 220.704 184.733 222.276 184.734H159.241C162.416 184.734 165.461 185.995 167.705 188.24C169.95 190.485 171.211 193.53 171.211 196.704V236.036C171.209 239.21 169.948 242.254 167.703 244.498C165.459 246.743 162.415 248.004 159.241 248.006H222.276Z" fill="#FFFCF7" stroke="#363636" stroke-width="2.87566" stroke-linecap="round" stroke-linejoin="round"/>
<path d="M171.211 194.454C171.319 190.234 165.848 184.742 159.241 184.742H222.276C220.704 184.741 219.147 185.05 217.694 185.651C216.241 186.252 214.921 187.134 213.81 188.245C212.698 189.357 211.816 190.677 211.215 192.13C210.614 193.582 210.305 195.139 210.306 196.712V205.957L171.211 194.454Z" fill="#FFFCF7" stroke="#363636" stroke-width="2.87566" stroke-linecap="round" stroke-linejoin="round"/>
<path d="M222.276 248.006C219.101 248.006 216.057 246.745 213.812 244.5C211.567 242.255 210.306 239.211 210.306 236.036V196.704C210.305 195.132 210.614 193.575 211.215 192.123C211.816 190.67 212.698 189.35 213.81 188.238C214.921 187.126 216.241 186.245 217.694 185.644C219.147 185.042 220.704 184.733 222.276 184.734H159.241C162.416 184.734 165.461 185.995 167.705 188.24C169.95 190.485 171.211 193.53 171.211 196.704V236.036C171.209 239.21 169.948 242.254 167.703 244.498C165.459 246.743 162.415 248.004 159.241 248.006H222.276Z" fill="#FFFCF7" stroke="#363636" stroke-width="2.87566" stroke-linecap="round" stroke-linejoin="round"/>
<path d="M78.5933 184.734H302.895C307.234 184.705 311.456 183.325 314.976 180.787C318.495 178.25 321.137 174.679 322.536 170.572L324.29 165.539H57.1912L58.9525 170.572C60.351 174.679 62.9933 178.25 66.5128 180.787C70.0322 183.325 74.2544 184.705 78.5933 184.734Z" fill="#FFFCF7" stroke="#363636" stroke-width="2.87566" stroke-linecap="round" stroke-linejoin="round"/>
<path d="M179.738 20.7784C179.738 20.7784 165.704 14.6533 171.549 1.45398" stroke="#363636" stroke-width="2.87566" stroke-linecap="round" stroke-linejoin="round"/>
<path d="M181.772 34.1719C177.48 34.1719 174.001 30.6925 174.001 26.4004C174.001 22.1083 177.48 18.6289 181.772 18.6289C186.064 18.6289 189.544 22.1083 189.544 26.4004C189.544 30.6925 186.064 34.1719 181.772 34.1719Z" fill="#E36824" stroke="#363636" stroke-width="2.87566" stroke-linecap="round" stroke-linejoin="round"/>
</svg>
