<svg width="474" height="391" viewBox="0 0 474 391" fill="none" xmlns="http://www.w3.org/2000/svg">
<rect width="474" height="391" fill="#141414"/>
<rect width="1440" height="1389" transform="translate(-808 -460)" fill="white"/>
<path d="M211.205 125.846C211.205 125.846 228.096 97.8022 254.89 106.314" stroke="#070707" stroke-width="3.33158" stroke-linecap="round" stroke-linejoin="round"/>
<path d="M221.141 113.769C221.141 113.769 231.969 113.077 229.603 118.416C228.121 121.79 214.611 119.591 214.611 119.591C214.611 119.591 215.069 104.765 221.008 104.89C225.747 104.982 221.141 113.769 221.141 113.769Z" stroke="#070707" stroke-width="3.33158" stroke-linecap="round" stroke-linejoin="round"/>
<path d="M229.287 108.047C229.287 108.047 239.173 109.138 235.592 112.303C233.776 113.91 222.607 112.594 222.607 112.594C222.607 112.594 227.604 99.4014 232.443 98.9932C237.283 98.5851 229.287 108.047 229.287 108.047Z" stroke="#070707" stroke-width="3.33158" stroke-linecap="round" stroke-linejoin="round"/>
<path d="M242.113 104.574C242.113 104.574 249.826 107.206 247.152 109.754C245.853 110.987 235.4 106.056 235.4 106.056C235.4 106.056 240.123 97.544 244.712 98.9183C247.744 99.8511 242.113 104.574 242.113 104.574Z" stroke="#070707" stroke-width="3.33158" stroke-linecap="round" stroke-linejoin="round"/>
<path d="M245.536 104.482C245.536 104.482 262.511 99.8761 261.611 106.981C260.97 112.286 245.536 104.482 245.536 104.482Z" stroke="#070707" stroke-width="3.33158" stroke-linecap="round" stroke-linejoin="round"/>
<path d="M208.056 139.605C208.056 139.605 210.971 107.447 183.819 100.051" stroke="#070707" stroke-width="3.33158" stroke-linecap="round" stroke-linejoin="round"/>
<path d="M203.834 115.235C203.834 115.235 195.046 110.829 196.088 115.351C196.621 117.658 206.599 122.572 206.599 122.572C206.599 122.572 210.372 109.005 206.665 106.089C202.959 103.174 203.834 115.235 203.834 115.235Z" stroke="#070707" stroke-width="3.33158" stroke-linecap="round" stroke-linejoin="round"/>
<path d="M195.355 105.481C195.355 105.481 187.434 103.508 188.108 107.039C188.433 108.755 199.994 110.312 199.994 110.312C199.994 110.312 201.218 100.767 196.612 99.4347C193.572 98.5518 195.355 105.481 195.355 105.481Z" stroke="#070707" stroke-width="3.33158" stroke-linecap="round" stroke-linejoin="round"/>
<path d="M192.564 103.557C192.564 103.557 181.362 90.6393 177.856 96.9443C175.207 101.7 192.564 103.557 192.564 103.557Z" stroke="#070707" stroke-width="3.33158" stroke-linecap="round" stroke-linejoin="round"/>
<path d="M206.482 124.213C206.482 124.213 222.94 93.6877 201.676 76.0886" stroke="#070707" stroke-width="3.33158" stroke-linecap="round" stroke-linejoin="round"/>
<path d="M212.221 97.1609C212.221 97.1609 207.04 90.3561 205.949 94.8621C205.399 97.1609 212.212 105.615 212.212 105.615C212.212 105.615 221.524 96.4529 218.309 90.3395C216.127 86.2583 212.221 97.1609 212.221 97.1609Z" stroke="#070707" stroke-width="3.33158" stroke-linecap="round" stroke-linejoin="round"/>
<path d="M209.722 85.6919C209.722 85.6919 203.442 80.6945 202.451 84.1844C201.976 85.8502 211.746 91.9136 211.746 91.9136C211.746 91.9136 217.16 83.7846 213.587 80.7279C211.205 78.6623 209.722 85.6919 209.722 85.6919Z" stroke="#070707" stroke-width="3.33158" stroke-linecap="round" stroke-linejoin="round"/>
<path d="M208.056 82.7851C208.056 82.7851 203.734 66.602 197.72 70.8914C193.156 74.123 208.056 82.7851 208.056 82.7851Z" stroke="#070707" stroke-width="3.33158" stroke-linecap="round" stroke-linejoin="round"/>
<path d="M151.644 298.33C150.056 297.918 148.689 296.907 147.829 295.51C146.969 294.113 146.683 292.437 147.03 290.834L183.561 135.749C185.818 126.545 195.863 121.082 205.441 123.855L210.28 125.263C219.858 128.036 224.956 137.889 221.374 146.718L159.882 294.582C159.2 296.102 157.987 297.321 156.471 298.011C154.954 298.701 153.238 298.814 151.644 298.33Z" fill="#E36824" stroke="#070707" stroke-width="3.33158" stroke-linecap="round" stroke-linejoin="round"/>
<path d="M268.175 150.883C268.175 150.883 285.066 122.847 311.852 131.351" stroke="#070707" stroke-width="3.33158" stroke-linecap="round" stroke-linejoin="round"/>
<path d="M278.103 138.806C278.103 138.806 288.93 138.114 286.565 143.461C285.082 146.793 271.573 144.636 271.573 144.636C271.573 144.636 272.023 129.81 277.961 129.927C282.709 130.027 278.103 138.806 278.103 138.806Z" stroke="#070707" stroke-width="3.33158" stroke-linecap="round" stroke-linejoin="round"/>
<path d="M286.257 133.084C286.257 133.084 296.135 134.183 292.553 137.34C290.738 138.947 279.577 137.631 279.577 137.631C279.577 137.631 284.574 124.438 289.405 124.03C294.236 123.622 286.257 133.084 286.257 133.084Z" stroke="#070707" stroke-width="3.33158" stroke-linecap="round" stroke-linejoin="round"/>
<path d="M299.083 129.61C299.083 129.61 306.788 132.242 304.081 134.791C302.79 136.032 292.337 131.093 292.337 131.093C292.337 131.093 297.051 122.581 301.64 123.955C304.714 124.838 299.083 129.61 299.083 129.61Z" stroke="#070707" stroke-width="3.33158" stroke-linecap="round" stroke-linejoin="round"/>
<path d="M302.54 129.527C302.54 129.527 319.506 124.913 318.615 132.026C317.94 137.331 302.54 129.527 302.54 129.527Z" stroke="#070707" stroke-width="3.33158" stroke-linecap="round" stroke-linejoin="round"/>
<path d="M265.001 164.65C265.001 164.65 267.925 132.484 240.764 125.096" stroke="#070707" stroke-width="3.33158" stroke-linecap="round" stroke-linejoin="round"/>
<path d="M260.795 140.28C260.795 140.28 252.008 135.865 253.058 140.396C253.591 142.695 263.569 147.609 263.569 147.609C263.569 147.609 267.333 134.041 263.635 131.135C259.937 128.228 260.795 140.28 260.795 140.28Z" stroke="#070707" stroke-width="3.33158" stroke-linecap="round" stroke-linejoin="round"/>
<path d="M252.325 130.527C252.325 130.527 244.404 128.553 245.07 132.084C245.395 133.8 256.955 135.349 256.955 135.349C256.955 135.349 258.18 125.812 253.574 124.471C250.534 123.589 252.325 130.527 252.325 130.527Z" stroke="#070707" stroke-width="3.33158" stroke-linecap="round" stroke-linejoin="round"/>
<path d="M249.534 128.594C249.534 128.594 238.324 115.676 234.817 121.981C232.21 126.737 249.534 128.594 249.534 128.594Z" stroke="#070707" stroke-width="3.33158" stroke-linecap="round" stroke-linejoin="round"/>
<path d="M263.444 149.25C263.444 149.25 279.902 118.733 258.646 101.134" stroke="#070707" stroke-width="3.33158" stroke-linecap="round" stroke-linejoin="round"/>
<path d="M269.149 122.198C269.149 122.198 263.969 115.393 262.877 119.907C262.319 122.198 269.141 130.66 269.141 130.66C269.141 130.66 278.444 121.498 275.229 115.376C273.097 111.295 269.149 122.198 269.149 122.198Z" stroke="#070707" stroke-width="3.33158" stroke-linecap="round" stroke-linejoin="round"/>
<path d="M266.659 110.679C266.659 110.679 260.379 105.681 259.396 109.171C258.913 110.837 268.683 116.909 268.683 116.909C268.683 116.909 274.096 108.771 270.523 105.715C268.166 103.699 266.659 110.679 266.659 110.679Z" stroke="#070707" stroke-width="3.33158" stroke-linecap="round" stroke-linejoin="round"/>
<path d="M265.001 107.822C265.001 107.822 260.679 91.6388 254.665 95.9282C250.126 99.1682 265.001 107.822 265.001 107.822Z" stroke="#070707" stroke-width="3.33158" stroke-linecap="round" stroke-linejoin="round"/>
<path d="M208.606 323.367C207.017 322.956 205.65 321.946 204.791 320.548C203.932 319.15 203.648 317.473 204 315.871L240.539 160.811C242.796 151.607 252.841 146.143 262.419 148.925L267.267 150.333C276.845 153.106 281.934 162.959 278.353 171.78L216.86 319.619C216.179 321.143 214.964 322.366 213.443 323.057C211.923 323.747 210.202 323.857 208.606 323.367Z" fill="#E36824" stroke="#070707" stroke-width="3.33158" stroke-linecap="round" stroke-linejoin="round"/>
<path d="M65.552 125.454L61.6448 127.544L179.47 347.841L183.377 345.751L65.552 125.454Z" fill="#FDEED9" stroke="#070707" stroke-width="3.33158" stroke-linecap="round" stroke-linejoin="round"/>
<path d="M72.2915 121.853L68.3843 123.943L186.209 344.24L190.117 342.15L72.2915 121.853Z" fill="#FDEED9" stroke="#070707" stroke-width="3.33158" stroke-linecap="round" stroke-linejoin="round"/>
<path d="M85.7694 114.639L81.8622 116.729L199.687 337.025L203.595 334.935L85.7694 114.639Z" fill="#FDEED9" stroke="#070707" stroke-width="3.33158" stroke-linecap="round" stroke-linejoin="round"/>
<path d="M99.2483 107.428L95.341 109.518L213.166 329.815L217.073 327.725L99.2483 107.428Z" fill="#FDEED9" stroke="#070707" stroke-width="3.33158" stroke-linecap="round" stroke-linejoin="round"/>
<path d="M79.031 118.244L75.1237 120.334L192.949 340.63L196.856 338.54L79.031 118.244Z" fill="#FDEED9" stroke="#070707" stroke-width="3.33158" stroke-linecap="round" stroke-linejoin="round"/>
<path d="M92.5088 111.029L88.6016 113.119L206.427 333.416L210.334 331.326L92.5088 111.029Z" fill="#FDEED9" stroke="#070707" stroke-width="3.33158" stroke-linecap="round" stroke-linejoin="round"/>
<path d="M105.999 103.83L102.092 105.92L219.917 326.217L223.824 324.127L105.999 103.83Z" fill="#FDEED9" stroke="#070707" stroke-width="3.33158" stroke-linecap="round" stroke-linejoin="round"/>
<path d="M116.108 120.041L112.201 122.131L230.026 342.427L233.934 340.338L116.108 120.041Z" fill="#FDEED9" stroke="#070707" stroke-width="3.33158" stroke-linecap="round" stroke-linejoin="round"/>
<path d="M122.84 116.44L118.932 118.53L236.757 338.826L240.665 336.736L122.84 116.44Z" fill="#FDEED9" stroke="#070707" stroke-width="3.33158" stroke-linecap="round" stroke-linejoin="round"/>
<path d="M129.583 112.838L125.676 114.928L243.501 335.224L247.408 333.134L129.583 112.838Z" fill="#FDEED9" stroke="#070707" stroke-width="3.33158" stroke-linecap="round" stroke-linejoin="round"/>
<path d="M136.33 109.233L132.422 111.322L250.248 331.619L254.155 329.529L136.33 109.233Z" fill="#FDEED9" stroke="#070707" stroke-width="3.33158" stroke-linecap="round" stroke-linejoin="round"/>
<path d="M66.5475 162.618H324.078V353.051C324.078 362.616 320.279 371.789 313.515 378.552C306.752 385.316 297.579 389.115 288.014 389.115H102.612C93.047 389.115 83.8739 385.316 77.1105 378.552C70.3472 371.789 66.5475 362.616 66.5475 353.051V162.618Z" fill="#FDEED9" stroke="#070707" stroke-width="3.33158" stroke-linecap="round" stroke-linejoin="round"/>
<path d="M324.078 181.475H354.121L386.437 161.385C387.288 160.728 387.903 159.813 388.193 158.778C388.483 157.743 388.431 156.642 388.045 155.638C386.67 152.165 381.94 151.049 378.883 153.473L349.898 170.889H324.078V181.475Z" fill="#FDEED9" stroke="#070707" stroke-width="3.33158" stroke-linecap="round" stroke-linejoin="round"/>
<path d="M66.5309 181.475H36.48L4.16372 161.36C3.31328 160.703 2.69757 159.788 2.40799 158.753C2.11841 157.718 2.1704 156.617 2.55624 155.613C3.93051 152.14 8.66968 151.024 11.7181 153.448L40.6445 170.864H66.4642L66.5309 181.475Z" fill="#FDEED9" stroke="#070707" stroke-width="3.33158" stroke-linecap="round" stroke-linejoin="round"/>
<path d="M324.078 106.348L84.4797 11.9308C102.562 0.0953627 156.642 7.16663 215.611 30.3961C274.58 53.6255 318.931 85.3588 324.078 106.348Z" fill="#FDEED9" stroke="#070707" stroke-width="3.33158" stroke-linecap="round" stroke-linejoin="round"/>
<path d="M243.721 16.7366L206.99 2.26088C203.434 0.861621 199.694 3.19373 199.802 6.75851L200.344 24.4658L233.435 37.509L245.928 24.9239C248.418 22.3919 247.277 18.1358 243.721 16.7366Z" fill="#FDEED9" stroke="#070707" stroke-width="3.33158" stroke-linecap="round" stroke-linejoin="round"/>
<path d="M444.482 179.359H439.826C440.21 180.137 440.412 180.991 440.417 181.858V186.114C440.417 187.142 440.009 188.128 439.283 188.856C438.557 189.583 437.572 189.993 436.544 189.995H412.998C412.489 189.995 411.984 189.895 411.513 189.7C411.042 189.505 410.614 189.219 410.254 188.858C409.893 188.498 409.607 188.07 409.412 187.599C409.217 187.128 409.117 186.624 409.117 186.114V181.891C409.122 181.024 409.324 180.17 409.708 179.393H404.853V171.255C404.851 170.505 404.998 169.762 405.284 169.069C405.571 168.376 405.991 167.746 406.521 167.216C407.051 166.685 407.68 166.264 408.373 165.977C409.065 165.689 409.808 165.542 410.558 165.542H438.768C439.519 165.54 440.262 165.687 440.956 165.974C441.65 166.261 442.28 166.682 442.811 167.213C443.341 167.743 443.762 168.374 444.049 169.067C444.336 169.761 444.483 170.505 444.482 171.255V179.359Z" fill="#FDEED9" stroke="#070707" stroke-width="3.33158" stroke-linecap="round" stroke-linejoin="round"/>
<path d="M463.072 289.01L458.199 360.697C458.035 363.708 456.734 366.545 454.558 368.634C452.383 370.722 449.496 371.907 446.481 371.949H402.854C399.838 371.909 396.949 370.725 394.774 368.636C392.598 366.547 391.297 363.709 391.135 360.697L386.296 289.01H463.072Z" fill="#FDEED9" stroke="#070707" stroke-width="3.33158" stroke-linecap="round" stroke-linejoin="round"/>
<path d="M471.942 268.429L465.013 367.427C464.748 370.986 463.149 374.314 460.536 376.744C457.923 379.175 454.489 380.53 450.92 380.537H398.448C394.873 380.529 391.434 379.17 388.821 376.732C386.207 374.294 384.611 370.958 384.355 367.393L377.392 268.429C377.112 264.489 377.849 260.543 379.532 256.97C381.215 253.397 383.788 250.316 387.004 248.023C390.508 245.589 393.373 242.345 395.354 238.565C397.335 234.786 398.373 230.585 398.381 226.318L398.081 189.112C398.025 187.852 398.225 186.594 398.668 185.413C399.111 184.233 399.789 183.154 400.661 182.242C401.533 181.331 402.58 180.606 403.74 180.11C404.9 179.614 406.148 179.359 407.41 179.359H441.916C443.179 179.357 444.429 179.611 445.591 180.105C446.753 180.6 447.802 181.325 448.676 182.236C449.549 183.148 450.229 184.228 450.673 185.409C451.118 186.591 451.318 187.851 451.261 189.112L450.953 226.318C450.966 230.585 452.007 234.786 453.989 238.564C455.971 242.343 458.835 245.588 462.339 248.023C465.552 250.318 468.122 253.4 469.804 256.973C471.485 260.545 472.222 264.49 471.942 268.429Z" fill="#E36824" stroke="#070707" stroke-width="3.33158" stroke-linecap="round" stroke-linejoin="round"/>
<path d="M448.913 328.506C448.171 332.67 437.56 337.826 424.592 337.826C411.624 337.826 401.013 332.628 400.263 328.506L400.363 276.391C401.696 272.444 412.024 267.471 424.592 267.471C437.16 267.471 447.488 272.468 448.821 276.391L448.913 328.506Z" fill="#FDEED9" stroke="#070707" stroke-width="3.33158" stroke-linecap="round" stroke-linejoin="round"/>
<path d="M386.679 285.645V375.789C386.679 376.361 386.566 376.927 386.347 377.455C386.128 377.983 385.807 378.462 385.402 378.866C384.998 379.27 384.518 379.59 383.989 379.808C383.461 380.026 382.894 380.138 382.323 380.137H347.982C347.411 380.138 346.845 380.026 346.317 379.808C345.789 379.59 345.31 379.27 344.906 378.866C344.502 378.462 344.182 377.982 343.963 377.454C343.745 376.926 343.634 376.36 343.635 375.789V285.645C343.63 282.617 344.682 279.682 346.608 277.345C348.534 275.009 351.214 273.417 354.188 272.843V251.338H376.126V272.843C379.099 273.418 381.778 275.011 383.704 277.347C385.63 279.683 386.682 282.617 386.679 285.645Z" fill="#FDEED9" stroke="#070707" stroke-width="3.33158" stroke-linecap="round" stroke-linejoin="round"/>
<path d="M380.357 298.605V369.942C380.357 372.557 378.5 374.673 376.193 374.673H354.096C351.806 374.673 349.932 372.557 349.932 369.942V298.605H380.357Z" fill="#EFAF00" stroke="black" stroke-width="3.33158" stroke-linecap="round" stroke-linejoin="round"/>
<path d="M379.033 247.973H351.281C350.177 247.973 349.282 248.868 349.282 249.972V252.954C349.282 254.058 350.177 254.953 351.281 254.953H379.033C380.137 254.953 381.032 254.058 381.032 252.954V249.972C381.032 248.868 380.137 247.973 379.033 247.973Z" fill="#FDEED9" stroke="#070707" stroke-width="3.33158" stroke-linecap="round" stroke-linejoin="round"/>
</svg>
