<svg width="24" height="24" viewBox="0 0 24 24" fill="none" xmlns="http://www.w3.org/2000/svg">
<path d="M22.001 9.75C21.591 9.75 21.251 9.41 21.251 9V7C21.251 4.42 19.581 2.75 17.001 2.75H7.00098C4.42098 2.75 2.75098 4.42 2.75098 7V9C2.75098 9.41 2.41098 9.75 2.00098 9.75C1.59098 9.75 1.25098 9.41 1.25098 9V7C1.25098 3.56 3.56098 1.25 7.00098 1.25H17.001C20.441 1.25 22.751 3.56 22.751 7V9C22.751 9.41 22.411 9.75 22.001 9.75Z" fill="#232323"/>
<path d="M17.001 22.75H7.00098C3.56098 22.75 1.25098 20.44 1.25098 17V15C1.25098 14.59 1.59098 14.25 2.00098 14.25C2.41098 14.25 2.75098 14.59 2.75098 15V17C2.75098 19.58 4.42098 21.25 7.00098 21.25H17.001C19.581 21.25 21.251 19.58 21.251 17V15C21.251 14.59 21.591 14.25 22.001 14.25C22.411 14.25 22.751 14.59 22.751 15V17C22.751 20.44 20.441 22.75 17.001 22.75Z" fill="#232323"/>
<path d="M12.0011 13.08C11.8711 13.08 11.7411 13.0499 11.6211 12.9799L6.32109 9.91992C5.96109 9.70992 5.84109 9.24995 6.05109 8.88995C6.26109 8.52995 6.72109 8.40993 7.07109 8.61993L11.9911 11.4699L16.8811 8.63995C17.2411 8.42995 17.7011 8.55991 17.9011 8.90991C18.1111 9.26991 17.9811 9.72994 17.6311 9.93994L12.3711 12.9799C12.2611 13.0399 12.1311 13.08 12.0011 13.08Z" fill="#232323"/>
<path d="M12.001 18.5201C11.591 18.5201 11.251 18.1801 11.251 17.7701V12.3301C11.251 11.9201 11.591 11.5801 12.001 11.5801C12.411 11.5801 12.751 11.9201 12.751 12.3301V17.7701C12.751 18.1801 12.411 18.5201 12.001 18.5201Z" fill="#232323"/>
<path d="M12.0012 18.7501C11.4212 18.7501 10.8512 18.62 10.3912 18.37L7.19121 16.5901C6.23121 16.0601 5.49121 14.7901 5.49121 13.6901V10.3C5.49121 9.21004 6.24121 7.94008 7.19121 7.40008L10.3912 5.62005C11.3112 5.11005 12.6912 5.11005 13.6112 5.62005L16.8112 7.40008C17.7712 7.93008 18.5112 9.20004 18.5112 10.3V13.6901C18.5112 14.7801 17.7612 16.0501 16.8112 16.5901L13.6112 18.37C13.1512 18.62 12.5812 18.7501 12.0012 18.7501ZM11.1212 6.94006L7.9212 8.72002C7.4312 8.99002 6.99121 9.75004 6.99121 10.3V13.6901C6.99121 14.2501 7.4312 15.0001 7.9212 15.2701L11.1212 17.05C11.5812 17.3 12.4212 17.3 12.8812 17.05L16.0812 15.2701C16.5712 15.0001 17.0112 14.2401 17.0112 13.6901V10.3C17.0112 9.74004 16.5712 8.99002 16.0812 8.72002L12.8812 6.94006C12.4212 6.69006 11.5812 6.69006 11.1212 6.94006Z" fill="#232323"/>
</svg>
