<svg width="24" height="24" viewBox="0 0 24 24" fill="none" xmlns="http://www.w3.org/2000/svg">
<path d="M16.0001 16.75C15.7101 16.75 15.4401 16.58 15.3101 16.3L12.0001 8.85L8.69009 16.31C8.52009 16.69 8.0701 16.86 7.7001 16.69C7.3201 16.52 7.15009 16.08 7.32009 15.7L11.3201 6.7C11.5601 6.16 12.4501 6.16 12.6901 6.7L16.6901 15.7C16.8601 16.08 16.6901 16.52 16.3101 16.69C16.2101 16.73 16.1001 16.75 16.0001 16.75Z" fill="#232323"/>
<path d="M12 12.75H8C7.59 12.75 7.25 12.41 7.25 12C7.25 11.59 7.59 11.25 8 11.25H12C12.41 11.25 12.75 11.59 12.75 12C12.75 12.41 12.41 12.75 12 12.75Z" fill="#232323"/>
<path d="M12 22.75C6.07 22.75 1.25 17.93 1.25 12C1.25 6.07 6.07 1.25 12 1.25C17.93 1.25 22.75 6.07 22.75 12C22.75 17.93 17.93 22.75 12 22.75ZM12 2.75C6.9 2.75 2.75 6.9 2.75 12C2.75 17.1 6.9 21.25 12 21.25C17.1 21.25 21.25 17.1 21.25 12C21.25 6.9 17.1 2.75 12 2.75Z" fill="#232323"/>
</svg>
