<svg width="24" height="24" viewBox="0 0 24 24" fill="none" xmlns="http://www.w3.org/2000/svg">
<path d="M12 22.75C6.07 22.75 1.25 17.93 1.25 12C1.25 6.07 6.07 1.25 12 1.25C17.93 1.25 22.75 6.07 22.75 12C22.75 17.93 17.93 22.75 12 22.75ZM12 2.75C6.9 2.75 2.75 6.9 2.75 12C2.75 17.1 6.9 21.25 12 21.25C17.1 21.25 21.25 17.1 21.25 12C21.25 6.9 17.1 2.75 12 2.75Z" fill="#232323"/>
<path d="M14.5 12.75H8.5C8.09 12.75 7.75 12.41 7.75 12C7.75 11.59 8.09 11.25 8.5 11.25H14.5C14.91 11.25 15.25 11.59 15.25 12C15.25 12.41 14.91 12.75 14.5 12.75Z" fill="#232323"/>
<path d="M12.4999 15.75C12.3099 15.75 12.1199 15.68 11.9699 15.53C11.6799 15.24 11.6799 14.76 11.9699 14.47L14.4399 12L11.9699 9.53C11.6799 9.24 11.6799 8.76 11.9699 8.47C12.2599 8.18 12.7399 8.18 13.0299 8.47L16.0299 11.47C16.3199 11.76 16.3199 12.24 16.0299 12.53L13.0299 15.53C12.8799 15.68 12.6899 15.75 12.4999 15.75Z" fill="#232323"/>
</svg>
