<svg width="24" height="24" viewBox="0 0 24 24" fill="none" xmlns="http://www.w3.org/2000/svg">
<path d="M9.18997 17.01H6.44998C6.01998 17.01 5.61994 16.78 5.40994 16.41C5.19994 16.04 5.19994 15.58 5.40994 15.2L11.01 5.59C11.21 5.24 11.5799 5.02 11.9799 4.99C12.3799 4.96 12.77 5.15 13.01 5.47L14.58 7.56C15.21 8.4 15.26 9.56 14.7 10.46L11.36 15.81C10.89 16.56 10.08 17.01 9.18997 17.01ZM6.95999 15.51H9.17996C9.54996 15.51 9.88999 15.32 10.08 15.01L13.42 9.66C13.65 9.29 13.63 8.81 13.37 8.46L12.07 6.73L6.95999 15.51Z" fill="#232323"/>
<path d="M17.5499 17.01H13.71C13.28 17.01 12.8799 16.78 12.6599 16.4C12.4499 16.02 12.4499 15.56 12.6699 15.19L14.59 11.99C15.03 11.26 16.21 11.26 16.65 11.99L18.57 15.19C18.79 15.56 18.8 16.03 18.58 16.4C18.39 16.77 17.9799 17.01 17.5499 17.01ZM14.2399 15.51H17.03L15.63 13.18L14.2399 15.51Z" fill="#232323"/>
<path d="M12 22.75C6.07 22.75 1.25 17.93 1.25 12C1.25 6.07 6.07 1.25 12 1.25C17.93 1.25 22.75 6.07 22.75 12C22.75 17.93 17.93 22.75 12 22.75ZM12 2.75C6.9 2.75 2.75 6.9 2.75 12C2.75 17.1 6.9 21.25 12 21.25C17.1 21.25 21.25 17.1 21.25 12C21.25 6.9 17.1 2.75 12 2.75Z" fill="#232323"/>
</svg>
