<svg width="24" height="24" viewBox="0 0 24 24" fill="none" xmlns="http://www.w3.org/2000/svg">
<path d="M20.5 15.25C20.09 15.25 19.75 14.91 19.75 14.5C19.75 14.09 20.09 13.75 20.5 13.75C21.09 13.75 21.22 13.66 21.23 13.66C21.25 13.6 21.25 13.25 21.25 13V11C21.25 10.75 21.25 10.41 21.21 10.32C21.2 10.33 21.05 10.25 20.5 10.25C20.09 10.25 19.75 9.91 19.75 9.5C19.75 9.09 20.09 8.75 20.5 8.75C22.58 8.75 22.75 9.77 22.75 11V13C22.75 14.23 22.58 15.25 20.5 15.25Z" fill="#232323"/>
<path d="M6.37995 14.75C6.31995 14.75 6.25995 14.74 6.19995 14.73C5.79995 14.63 5.54995 14.22 5.64995 13.82C5.94995 12.63 5.94995 11.37 5.64995 10.18C5.54995 9.78 5.78995 9.37 6.19995 9.27C6.59995 9.17 6.99995 9.42 7.09995 9.82C7.45995 11.25 7.45995 12.76 7.09995 14.18C7.01995 14.52 6.70995 14.75 6.37995 14.75Z" fill="#232323"/>
<path d="M9.87995 14.75C9.81995 14.75 9.75995 14.74 9.69995 14.73C9.29995 14.63 9.04995 14.22 9.14995 13.82C9.44995 12.63 9.44995 11.37 9.14995 10.18C9.04995 9.78 9.28995 9.37 9.69995 9.27C10.1 9.17 10.51 9.41 10.61 9.82C10.97 11.25 10.97 12.76 10.61 14.18C10.52 14.52 10.21 14.75 9.87995 14.75Z" fill="#232323"/>
<path d="M13 19.75H7C2.59 19.75 1.25 18.41 1.25 14V10C1.25 5.59 2.59 4.25 7 4.25H13C17.41 4.25 18.75 5.59 18.75 10V14C18.75 18.41 17.41 19.75 13 19.75ZM7 5.75C3.43 5.75 2.75 6.43 2.75 10V14C2.75 17.57 3.43 18.25 7 18.25H13C16.57 18.25 17.25 17.57 17.25 14V10C17.25 6.43 16.57 5.75 13 5.75H7Z" fill="#232323"/>
</svg>
