<svg width="24" height="24" viewBox="0 0 24 24" fill="none" xmlns="http://www.w3.org/2000/svg">
<path d="M8.34003 10.83C8.02003 10.83 7.70003 10.71 7.46003 10.46L5.73005 8.73C5.24005 8.24 5.24005 7.45 5.73005 6.96L10.88 1.81C11.37 1.32 12.16 1.32 12.65 1.81L14.38 3.54C14.87 4.03 14.87 4.82 14.38 5.31L9.23005 10.46C8.98005 10.71 8.66003 10.83 8.34003 10.83ZM6.96003 7.85L8.34003 9.23L13.13 4.44L11.75 3.06L6.96003 7.85Z" fill="#232323"/>
<path d="M8.34003 18.64C8.02003 18.64 7.70003 18.52 7.46003 18.27L5.73005 16.54C5.24005 16.05 5.24005 15.26 5.73005 14.77L14.78 5.72C15.27 5.23 16.06 5.23 16.55 5.72L18.28 7.45C18.77 7.94 18.77 8.73 18.28 9.22L9.23005 18.27C8.98005 18.52 8.66003 18.64 8.34003 18.64ZM6.96003 15.66L8.34003 17.04L17.04 8.34L15.66 6.96L6.96003 15.66Z" fill="#232323"/>
<path d="M12.2399 22.54C11.9199 22.54 11.5999 22.42 11.3599 22.17L9.62995 20.44C9.13995 19.95 9.13995 19.16 9.62995 18.67L18.6799 9.62C19.1699 9.13 19.96 9.13 20.45 9.62L22.1799 11.35C22.6699 11.84 22.6699 12.63 22.1799 13.12L13.13 22.17C12.88 22.42 12.5599 22.54 12.2399 22.54ZM10.8699 19.56L12.2499 20.94L20.95 12.24L19.57 10.86L10.8699 19.56Z" fill="#232323"/>
<path d="M4.43992 14.74C4.11992 14.74 3.79991 14.62 3.55991 14.38L1.8299 12.65C1.3399 12.16 1.3399 11.37 1.8299 10.88L3.55991 9.15C4.04991 8.66 4.8399 8.66 5.3299 9.15L7.05991 10.88C7.54991 11.37 7.54991 12.16 7.05991 12.65L5.3299 14.38C5.0799 14.62 4.75992 14.74 4.43992 14.74ZM3.05991 11.76L4.43992 13.14L5.81992 11.76L4.43992 10.38L3.05991 11.76Z" fill="#232323"/>
</svg>
