<svg width="24" height="24" viewBox="0 0 24 24" fill="none" xmlns="http://www.w3.org/2000/svg">
<path d="M12 22.75C6.07 22.75 1.25 17.93 1.25 12C1.25 6.07 6.07 1.25 12 1.25C17.93 1.25 22.75 6.07 22.75 12C22.75 17.93 17.93 22.75 12 22.75ZM12 2.75C6.9 2.75 2.75 6.9 2.75 12C2.75 17.1 6.9 21.25 12 21.25C17.1 21.25 21.25 17.1 21.25 12C21.25 6.9 17.1 2.75 12 2.75Z" fill="#232323"/>
<path d="M14.2 12.75H8.78003C8.37003 12.75 8.03003 12.41 8.03003 12V7.67C8.03003 7.26 8.37003 6.92 8.78003 6.92H14.2C15.75 6.92 17.12 8.28 17.12 9.84C17.12 11.44 15.81 12.75 14.2 12.75ZM9.53003 11.25H14.2C14.98 11.25 15.62 10.61 15.62 9.83C15.62 9.17 15 8.41 14.2 8.41H9.53003V11.25Z" fill="#232323"/>
<path d="M14.97 17.08H8.78003C8.37003 17.08 8.03003 16.74 8.03003 16.33V12C8.03003 11.59 8.37003 11.25 8.78003 11.25H14.97C16.75 11.25 18.2 12.56 18.2 14.17C18.2 15.78 16.75 17.08 14.97 17.08ZM9.53003 15.58H14.97C15.92 15.58 16.7 14.94 16.7 14.16C16.7 13.38 15.93 12.74 14.97 12.74H9.53003V15.58Z" fill="#232323"/>
<path d="M12.5701 19.25C12.1601 19.25 11.8201 18.91 11.8201 18.5V16.33C11.8201 15.92 12.1601 15.58 12.5701 15.58C12.9801 15.58 13.3201 15.92 13.3201 16.33V18.5C13.3201 18.91 12.9901 19.25 12.5701 19.25Z" fill="#232323"/>
<path d="M9.87012 19.25C9.46012 19.25 9.12012 18.91 9.12012 18.5V16.33C9.12012 15.92 9.46012 15.58 9.87012 15.58C10.2801 15.58 10.6201 15.92 10.6201 16.33V18.5C10.6201 18.91 10.2801 19.25 9.87012 19.25Z" fill="#232323"/>
<path d="M12.5701 8.42C12.1601 8.42 11.8201 8.08 11.8201 7.67V5.5C11.8201 5.09 12.1601 4.75 12.5701 4.75C12.9801 4.75 13.3201 5.09 13.3201 5.5V7.67C13.3201 8.08 12.9901 8.42 12.5701 8.42Z" fill="#232323"/>
<path d="M9.87012 8.42C9.46012 8.42 9.12012 8.08 9.12012 7.67V5.5C9.12012 5.09 9.46012 4.75 9.87012 4.75C10.2801 4.75 10.6201 5.09 10.6201 5.5V7.67C10.6201 8.08 10.2801 8.42 9.87012 8.42Z" fill="#232323"/>
<path d="M10.84 8.42H7.05005C6.64005 8.42 6.30005 8.08 6.30005 7.67C6.30005 7.26 6.64005 6.92 7.05005 6.92H10.84C11.25 6.92 11.59 7.26 11.59 7.67C11.59 8.08 11.26 8.42 10.84 8.42Z" fill="#232323"/>
<path d="M10.84 17.08H7.05005C6.64005 17.08 6.30005 16.74 6.30005 16.33C6.30005 15.92 6.64005 15.58 7.05005 15.58H10.84C11.25 15.58 11.59 15.92 11.59 16.33C11.59 16.74 11.26 17.08 10.84 17.08Z" fill="#232323"/>
</svg>
