<svg width="24" height="24" viewBox="0 0 24 24" fill="none" xmlns="http://www.w3.org/2000/svg">
<path d="M12.0008 13.2999C11.8708 13.2999 11.7408 13.2699 11.6208 13.1999L2.79083 8.0899C2.43083 7.8799 2.31081 7.41987 2.52081 7.05987C2.73081 6.69987 3.18081 6.57985 3.55081 6.78985L12.0008 11.6799L20.4008 6.81988C20.7608 6.60988 21.2208 6.7399 21.4308 7.0899C21.6408 7.4499 21.5108 7.90987 21.1608 8.11987L12.3908 13.1999C12.2608 13.2599 12.1308 13.2999 12.0008 13.2999Z" fill="#232323"/>
<path d="M12.001 22.36C11.591 22.36 11.251 22.02 11.251 21.61V12.54C11.251 12.13 11.591 11.79 12.001 11.79C12.411 11.79 12.751 12.13 12.751 12.54V21.61C12.751 22.02 12.411 22.36 12.001 22.36Z" fill="#232323"/>
<path d="M12.0009 22.75C11.0909 22.75 10.2209 22.54 9.56085 22.17L4.22086 19.21C2.77086 18.41 1.63086 16.48 1.63086 14.82V9.15997C1.63086 7.49997 2.77086 5.58001 4.22086 4.77001L9.56085 1.80999C10.9209 1.04999 13.0608 1.04999 14.4308 1.80999L19.7708 4.77001C21.2208 5.57001 22.3608 7.49997 22.3608 9.15997V12.82C22.3608 13.23 22.0208 13.57 21.6108 13.57C21.2008 13.57 20.8608 13.23 20.8608 12.82V9.15997C20.8608 8.05997 20.0108 6.62002 19.0508 6.09002L13.7108 3.13C12.8008 2.62 11.2108 2.62 10.3008 3.13L4.96085 6.09002C3.99085 6.63002 3.15085 8.05997 3.15085 9.15997V14.82C3.15085 15.92 4.00085 17.36 4.96085 17.89L10.3008 20.85C11.1808 21.34 12.8408 21.34 13.7108 20.85C14.0708 20.65 14.5309 20.78 14.7309 21.14C14.9309 21.5 14.8009 21.96 14.4409 22.16C13.7809 22.54 12.9109 22.75 12.0009 22.75Z" fill="#232323"/>
<path d="M19.201 22.15C17.021 22.15 15.251 20.38 15.251 18.2C15.251 16.02 17.021 14.25 19.201 14.25C21.381 14.25 23.151 16.02 23.151 18.2C23.151 20.38 21.381 22.15 19.201 22.15ZM19.201 15.75C17.851 15.75 16.751 16.85 16.751 18.2C16.751 19.55 17.851 20.65 19.201 20.65C20.551 20.65 21.651 19.55 21.651 18.2C21.651 16.85 20.551 15.75 19.201 15.75Z" fill="#232323"/>
<path d="M23.0009 22.75C22.8109 22.75 22.6209 22.68 22.4709 22.53L21.4709 21.53C21.1809 21.24 21.1809 20.7599 21.4709 20.4699C21.7609 20.1799 22.2409 20.1799 22.5309 20.4699L23.5309 21.4699C23.8209 21.7599 23.8209 22.24 23.5309 22.53C23.3809 22.68 23.1909 22.75 23.0009 22.75Z" fill="#232323"/>
</svg>
