<svg width="24" height="24" viewBox="0 0 24 24" fill="none" xmlns="http://www.w3.org/2000/svg">
<path d="M19.0012 22.75C17.6012 22.75 16.2912 22.14 15.3912 21.07C15.3812 21.05 15.3212 21 15.2712 20.92C15.1612 20.81 15.0312 20.61 14.9212 20.42C14.4812 19.71 14.2412 18.87 14.2412 17.99C14.2412 16.53 14.8912 15.18 16.0212 14.28C16.8612 13.61 17.9212 13.24 18.9912 13.24C20.1512 13.24 21.2212 13.64 22.0812 14.39C22.2012 14.47 22.3412 14.62 22.4712 14.76C23.2812 15.65 23.7312 16.79 23.7312 17.98C23.7312 18.85 23.4912 19.7 23.0412 20.43C22.8012 20.85 22.4712 21.23 22.0912 21.55C21.2812 22.33 20.1712 22.75 19.0012 22.75ZM19.0012 14.75C18.2612 14.75 17.5612 15 16.9712 15.47C16.2012 16.08 15.7512 17.01 15.7512 18C15.7512 18.59 15.9112 19.17 16.2212 19.67C16.3012 19.81 16.3812 19.92 16.4712 20.03C16.4912 20.05 16.5512 20.11 16.6012 20.19C17.1512 20.84 18.0512 21.26 19.0012 21.26C19.7912 21.26 20.5512 20.97 21.1312 20.45C21.3912 20.23 21.6112 19.97 21.7712 19.69C22.0912 19.18 22.2512 18.6 22.2512 18.01C22.2512 17.2 21.9412 16.41 21.3812 15.8C21.3112 15.72 21.2312 15.64 21.1512 15.58C20.5212 15.02 19.7912 14.75 19.0012 14.75Z" fill="#232323"/>
<path d="M20.491 18.73H17.501C17.091 18.73 16.751 18.39 16.751 17.98C16.751 17.57 17.091 17.23 17.501 17.23H20.491C20.901 17.23 21.241 17.57 21.241 17.98C21.241 18.39 20.911 18.73 20.491 18.73Z" fill="#232323"/>
<path d="M19.001 20.26C18.591 20.26 18.251 19.92 18.251 19.51V16.52C18.251 16.11 18.591 15.77 19.001 15.77C19.411 15.77 19.751 16.11 19.751 16.52V19.51C19.751 19.93 19.411 20.26 19.001 20.26Z" fill="#232323"/>
<path d="M12.0008 13.2999C11.8708 13.2999 11.7408 13.2699 11.6208 13.1999L2.79081 8.0899C2.43081 7.8799 2.31082 7.41987 2.52082 7.05987C2.73082 6.69987 3.19081 6.57985 3.54081 6.78985L11.9908 11.6799L20.3908 6.81988C20.7508 6.60988 21.2108 6.7399 21.4108 7.0899C21.6208 7.4499 21.4908 7.90987 21.1408 8.11987L12.3708 13.1999C12.2608 13.2599 12.1308 13.2999 12.0008 13.2999Z" fill="#232323"/>
<path d="M12.001 22.3598C11.591 22.3598 11.251 22.0198 11.251 21.6098V12.5398C11.251 12.1298 11.591 11.7898 12.001 11.7898C12.411 11.7898 12.751 12.1298 12.751 12.5398V21.6098C12.751 22.0198 12.411 22.3598 12.001 22.3598Z" fill="#232323"/>
<path d="M12.0009 22.7499C11.1209 22.7499 10.2409 22.5599 9.56085 22.1699L4.22086 19.2099C2.77086 18.4099 1.63086 16.4799 1.63086 14.8199V9.1599C1.63086 7.4999 2.77086 5.57994 4.22086 4.76994L9.56085 1.80992C10.9209 1.03992 13.0608 1.03992 14.4308 1.80992L19.7709 4.76994C21.2209 5.56994 22.3609 7.4999 22.3609 9.1599V14.8199C22.3609 14.9199 22.3609 14.9999 22.3409 15.0999C22.2909 15.3599 22.1009 15.5799 21.8509 15.6599C21.6009 15.7499 21.3209 15.6899 21.1109 15.5199C19.9609 14.5199 18.1809 14.4799 16.9709 15.4499C16.2009 16.0599 15.7509 16.9899 15.7509 17.9799C15.7509 18.5699 15.9109 19.1499 16.2209 19.6499C16.3009 19.7899 16.3809 19.8999 16.4709 20.0099C16.6209 20.1799 16.6809 20.4099 16.6409 20.6299C16.6009 20.8499 16.4608 21.0399 16.2608 21.1499L14.4308 22.1599C13.7508 22.5599 12.8809 22.7499 12.0009 22.7499ZM12.0009 2.74992C11.3809 2.74992 10.7509 2.87993 10.3009 3.12993L4.96086 6.08995C3.99086 6.61995 3.15085 8.0599 3.15085 9.1599V14.8199C3.15085 15.9199 4.00086 17.3599 4.96086 17.8899L10.3009 20.8499C11.2109 21.3599 12.8009 21.3599 13.7109 20.8499L14.8309 20.2299C14.4609 19.5599 14.2608 18.7799 14.2608 17.9799C14.2608 16.5199 14.9108 15.1699 16.0408 14.2699C17.4008 13.1799 19.3508 12.9499 20.8708 13.5999V9.13994C20.8708 8.03994 20.0209 6.59993 19.0609 6.06993L13.7209 3.10991C13.2509 2.87991 12.6209 2.74992 12.0009 2.74992Z" fill="#232323"/>
</svg>
