<svg width="24" height="24" viewBox="0 0 24 24" fill="none" xmlns="http://www.w3.org/2000/svg">
<path d="M12.0008 13.2999C11.8708 13.2999 11.7408 13.2699 11.6208 13.1999L2.79083 8.0899C2.43083 7.8799 2.31081 7.41987 2.52081 7.05987C2.73081 6.69987 3.18081 6.57985 3.55081 6.78985L12.0008 11.6799L20.4008 6.81988C20.7608 6.60988 21.2208 6.7399 21.4308 7.0899C21.6408 7.4499 21.5108 7.90987 21.1608 8.11987L12.3908 13.1999C12.2608 13.2599 12.1308 13.2999 12.0008 13.2999Z" fill="#232323"/>
<path d="M12.001 22.36C11.591 22.36 11.251 22.02 11.251 21.61V12.54C11.251 12.13 11.591 11.79 12.001 11.79C12.411 11.79 12.751 12.13 12.751 12.54V21.61C12.751 22.02 12.411 22.36 12.001 22.36Z" fill="#232323"/>
<path d="M12.0009 22.75C11.1209 22.75 10.2409 22.56 9.56085 22.17L4.22086 19.21C2.77086 18.41 1.63086 16.48 1.63086 14.82V9.15997C1.63086 7.49997 2.77086 5.58001 4.22086 4.77001L9.56085 1.80999C10.9209 1.04999 13.0608 1.04999 14.4308 1.80999L19.7708 4.77001C21.2208 5.57001 22.3608 7.49997 22.3608 9.15997V14.82C22.3608 14.89 22.3608 14.99 22.3308 15.12C22.2708 15.38 22.0808 15.59 21.8308 15.67C21.5808 15.75 21.3009 15.7 21.1009 15.52C19.9609 14.52 18.1808 14.48 16.9608 15.45C16.1908 16.06 15.7408 16.99 15.7408 17.98C15.7408 18.57 15.9008 19.15 16.2108 19.65C16.2908 19.79 16.3708 19.9 16.4608 20C16.6108 20.17 16.6709 20.4 16.6309 20.62C16.5909 20.84 16.4509 21.04 16.2509 21.14L14.4209 22.15C13.7509 22.56 12.8809 22.75 12.0009 22.75ZM12.0009 2.74999C11.3809 2.74999 10.7508 2.88 10.3008 3.13L4.96085 6.09002C3.99085 6.63002 3.15085 8.05997 3.15085 9.15997V14.82C3.15085 15.92 4.00085 17.36 4.96085 17.89L10.3008 20.85C11.2108 21.36 12.8008 21.36 13.7108 20.85L14.8308 20.23C14.4608 19.56 14.2609 18.78 14.2609 17.98C14.2609 16.52 14.9109 15.17 16.0409 14.27C17.4109 13.18 19.3508 12.95 20.8708 13.61V9.15002C20.8708 8.05002 20.0209 6.61001 19.0609 6.08001L13.7209 3.11999C13.2509 2.87999 12.6209 2.74999 12.0009 2.74999Z" fill="#232323"/>
<path d="M19.001 22.75C16.381 22.75 14.251 20.62 14.251 18C14.251 16.54 14.901 15.19 16.031 14.29C16.871 13.62 17.931 13.25 19.001 13.25C21.621 13.25 23.751 15.38 23.751 18C23.751 19.36 23.161 20.66 22.131 21.56C21.261 22.33 20.151 22.75 19.001 22.75ZM19.001 14.75C18.261 14.75 17.561 15 16.971 15.47C16.201 16.08 15.751 17.01 15.751 18C15.751 19.79 17.211 21.25 19.001 21.25C19.781 21.25 20.541 20.96 21.151 20.44C21.851 19.82 22.251 18.94 22.251 18C22.251 16.21 20.791 14.75 19.001 14.75Z" fill="#232323"/>
<path d="M18.0009 19.75C17.7509 19.75 17.5009 19.62 17.3609 19.39C17.1509 19.03 17.2609 18.57 17.6209 18.36L18.5109 17.83V16.75C18.5109 16.34 18.8509 16 19.2609 16C19.6709 16 20.0109 16.34 20.0109 16.75V18.25C20.0109 18.51 19.8709 18.76 19.6509 18.89L18.4009 19.64C18.2609 19.72 18.1309 19.75 18.0009 19.75Z" fill="#232323"/>
</svg>
