<svg width="24" height="24" viewBox="0 0 24 24" fill="none" xmlns="http://www.w3.org/2000/svg">
<path d="M10.43 18.37C10.28 18.37 10.14 18.33 10.01 18.24C9.80003 18.1 9.68003 17.87 9.68003 17.62C9.68003 17.47 9.67003 17.31 9.65003 17.15C9.56003 16.44 9.24003 15.82 8.70003 15.28C8.16003 14.74 7.49003 14.4 6.77003 14.31C6.65003 14.3 6.48003 14.29 6.32003 14.3C6.06003 14.32 5.82003 14.21 5.67003 14C5.52003 13.8 5.48003 13.53 5.56003 13.29C5.71003 12.88 5.93003 12.51 6.19003 12.21L7.73003 10.27C10.38 6.96004 15.75 2.98004 19.68 1.40004C20.51 1.08004 21.4 1.27004 22.01 1.87004C22.64 2.50004 22.83 3.40004 22.5 4.22004C20.92 8.16004 16.95 13.52 13.64 16.17L11.67 17.75C11.3 18.02 11 18.19 10.7 18.31C10.62 18.35 10.52 18.37 10.43 18.37ZM7.54003 12.94C8.38003 13.16 9.13003 13.6 9.76003 14.23C10.39 14.85 10.81 15.57 11.02 16.37L12.71 15.01C15.85 12.5 19.62 7.41004 21.11 3.67004C21.26 3.30004 21.05 3.04004 20.95 2.95004C20.88 2.88004 20.62 2.66004 20.22 2.81004C16.5 4.31004 11.41 8.08004 8.89003 11.22L7.54003 12.94Z" fill="#232323"/>
<path d="M4.07999 22.7501C3.32999 22.7501 2.60999 22.4501 2.06999 21.9101C1.44999 21.2901 1.14999 20.4301 1.24999 19.5501L1.51999 17.0901C1.77999 14.6501 3.77999 12.8401 6.25999 12.7901C6.44999 12.7801 6.69999 12.7901 6.92999 12.8101C8.01999 12.9501 8.98999 13.4401 9.76999 14.2201C10.54 14.9901 11 15.9101 11.14 16.9401C11.17 17.1601 11.19 17.4001 11.19 17.6101C11.19 18.9301 10.68 20.1601 9.75999 21.0901C8.98999 21.8501 7.99999 22.3201 6.87999 22.4601L4.40999 22.7301C4.29999 22.7401 4.18999 22.7501 4.07999 22.7501ZM6.44999 14.3001C6.40999 14.3001 6.35999 14.3001 6.31999 14.3001C4.80999 14.3301 3.20999 15.3601 3.00999 17.2601L2.73999 19.7201C2.68999 20.1401 2.83999 20.5501 3.12999 20.8501C3.41999 21.1401 3.82999 21.2901 4.23999 21.2401L6.69999 20.9701C7.46999 20.8701 8.15999 20.5501 8.67999 20.0301C9.31999 19.3901 9.67999 18.5301 9.67999 17.6101C9.67999 17.4601 9.66999 17.3001 9.64999 17.1401C9.55999 16.4301 9.23999 15.8101 8.69999 15.2701C8.15999 14.7301 7.48999 14.3901 6.76999 14.3001C6.68999 14.3001 6.56999 14.3001 6.44999 14.3001Z" fill="#232323"/>
<path d="M14.24 15.22C13.83 15.22 13.49 14.88 13.49 14.47C13.49 12.27 11.7 10.49 9.51001 10.49C9.10001 10.49 8.76001 10.15 8.76001 9.73999C8.76001 9.32999 9.09001 8.98999 9.50001 8.98999C12.52 8.98999 14.98 11.45 14.98 14.47C14.99 14.89 14.65 15.22 14.24 15.22Z" fill="#232323"/>
</svg>
