<svg width="24" height="24" viewBox="0 0 24 24" fill="none" xmlns="http://www.w3.org/2000/svg">
<path d="M14.97 22.75H8.96997C3.53997 22.75 1.21997 20.43 1.21997 15V9C1.21997 3.57 3.53997 1.25 8.96997 1.25H10.97C11.38 1.25 11.72 1.59 11.72 2C11.72 2.41 11.38 2.75 10.97 2.75H8.96997C4.35997 2.75 2.71997 4.39 2.71997 9V15C2.71997 19.61 4.35997 21.25 8.96997 21.25H14.97C19.58 21.25 21.22 19.61 21.22 15V13C21.22 12.59 21.56 12.25 21.97 12.25C22.38 12.25 22.72 12.59 22.72 13V15C22.72 20.43 20.41 22.75 14.97 22.75Z" fill="#232323"/>
<path d="M12.78 15.24C12.63 15.24 12.49 15.2 12.36 15.11C12.15 14.97 12.03 14.74 12.03 14.49C12.03 14.38 12.02 14.26 12 14.14C11.93 13.61 11.69 13.14 11.29 12.73C10.88 12.32 10.38 12.06 9.82996 11.99C9.74996 11.98 9.61996 11.97 9.49996 11.98C9.24996 12 8.99996 11.89 8.84996 11.69C8.69996 11.49 8.65996 11.22 8.73996 10.98C8.85996 10.64 9.04996 10.32 9.26996 10.07L10.5 8.53001C12.64 5.86001 16.95 2.66001 20.13 1.39001C20.86 1.11001 21.63 1.27001 22.16 1.80001C22.71 2.35001 22.87 3.13001 22.58 3.84001C21.31 7.01001 18.11 11.33 15.45 13.46L13.88 14.72C13.57 14.94 13.32 15.09 13.06 15.19C12.97 15.22 12.87 15.24 12.78 15.24ZM10.72 10.67C11.33 10.87 11.88 11.21 12.35 11.67C12.81 12.13 13.14 12.66 13.33 13.23L14.51 12.28C17 10.28 20 6.24001 21.19 3.27001C21.27 3.08001 21.18 2.94001 21.1 2.85001C21.05 2.80001 20.91 2.69001 20.68 2.78001C17.72 3.97001 13.68 6.97001 11.68 9.46001L10.72 10.67Z" fill="#232323"/>
<path d="M7.69999 18.75C7.05999 18.75 6.44999 18.5 5.98999 18.04C5.45999 17.51 5.19999 16.78 5.28999 16.03L5.49999 14.07C5.71999 12.04 7.36999 10.54 9.43999 10.5C9.59999 10.49 9.79999 10.5 9.98999 10.51C10.9 10.63 11.71 11.03 12.35 11.68C12.99 12.32 13.38 13.08 13.49 13.94C13.52 14.13 13.53 14.32 13.53 14.5C13.53 15.59 13.11 16.62 12.34 17.39C11.71 18.02 10.89 18.41 9.95999 18.53L7.97999 18.74C7.87999 18.75 7.78999 18.75 7.69999 18.75ZM9.59999 11.99C9.56999 11.99 9.52999 11.99 9.49999 11.99C8.34999 12.02 7.13999 12.79 6.98999 14.23L6.77999 16.2C6.74999 16.49 6.84999 16.78 7.04999 16.98C7.24999 17.18 7.52999 17.28 7.80999 17.25L9.77999 17.04C10.36 16.97 10.88 16.72 11.27 16.33C11.75 15.84 12.02 15.2 12.02 14.5C12.02 14.39 12.01 14.27 11.99 14.15C11.92 13.62 11.68 13.15 11.28 12.74C10.87 12.33 10.37 12.07 9.81999 12C9.76999 11.99 9.68999 11.99 9.59999 11.99Z" fill="#232323"/>
<path d="M15.82 12.7299C15.41 12.7299 15.07 12.3899 15.07 11.9799C15.07 10.3099 13.71 8.93994 12.03 8.93994C11.62 8.93994 11.28 8.59994 11.28 8.18994C11.28 7.77994 11.62 7.43994 12.03 7.43994C14.53 7.43994 16.57 9.46994 16.57 11.9799C16.57 12.3899 16.24 12.7299 15.82 12.7299Z" fill="#232323"/>
</svg>
