<svg width="24" height="24" viewBox="0 0 24 24" fill="none" xmlns="http://www.w3.org/2000/svg">
<path d="M11.5 9.25H2C1.59 9.25 1.25 8.91 1.25 8.5C1.25 8.09 1.59 7.75 2 7.75H11.5C11.91 7.75 12.25 8.09 12.25 8.5C12.25 8.91 11.91 9.25 11.5 9.25Z" fill="#232323"/>
<path d="M8 17.25H6C5.59 17.25 5.25 16.91 5.25 16.5C5.25 16.09 5.59 15.75 6 15.75H8C8.41 15.75 8.75 16.09 8.75 16.5C8.75 16.91 8.41 17.25 8 17.25Z" fill="#232323"/>
<path d="M14.5 17.25H10.5C10.09 17.25 9.75 16.91 9.75 16.5C9.75 16.09 10.09 15.75 10.5 15.75H14.5C14.91 15.75 15.25 16.09 15.25 16.5C15.25 16.91 14.91 17.25 14.5 17.25Z" fill="#232323"/>
<path d="M17.56 21.25H6.44C2.46 21.25 1.25 20.05 1.25 16.11V7.89C1.25 3.95 2.46 2.75 6.44 2.75H14.5C14.91 2.75 15.25 3.09 15.25 3.5C15.25 3.91 14.91 4.25 14.5 4.25H6.44C3.3 4.25 2.75 4.79 2.75 7.89V16.1C2.75 19.2 3.3 19.74 6.44 19.74H17.55C20.69 19.74 21.24 19.2 21.24 16.1V12.02C21.24 11.61 21.58 11.27 21.99 11.27C22.4 11.27 22.74 11.61 22.74 12.02V16.1C22.75 20.05 21.54 21.25 17.56 21.25Z" fill="#232323"/>
<path d="M15.5199 11.44C15.1299 11.44 14.7599 11.3 14.4999 11.03C14.1799 10.71 14.0399 10.25 14.1099 9.77001L14.3099 8.35001C14.3599 7.99001 14.5799 7.56001 14.8299 7.31001L18.5399 3.60001C20.0099 2.13001 21.2899 2.97001 21.9299 3.60001C22.5599 4.23001 23.3999 5.51001 21.9299 6.99001L18.2199 10.7C17.9599 10.96 17.5299 11.17 17.1799 11.22L15.7599 11.42C15.6799 11.43 15.5999 11.44 15.5199 11.44ZM20.2299 4.28001C20.0299 4.28001 19.8499 4.42001 19.5999 4.66001L15.8999 8.37001C15.8699 8.41001 15.8099 8.52001 15.7999 8.57001L15.5999 9.92001L16.9599 9.73001C17.0099 9.72001 17.1199 9.66001 17.1599 9.63001L20.8699 5.92001C21.3399 5.45001 21.4099 5.19001 20.8699 4.66001C20.6099 4.40001 20.4199 4.28001 20.2299 4.28001Z" fill="#232323"/>
<path d="M20.8702 7.73999C20.8002 7.73999 20.7302 7.73 20.6702 7.71C19.3002 7.32 18.2102 6.23999 17.8302 4.86999C17.7202 4.46999 17.9502 4.05999 18.3502 3.93999C18.7502 3.82999 19.1602 4.05999 19.2802 4.45999C19.5302 5.32999 20.2202 6.01999 21.0902 6.26999C21.4902 6.37999 21.7202 6.8 21.6102 7.19C21.5002 7.52 21.2002 7.73999 20.8702 7.73999Z" fill="#232323"/>
</svg>
