<svg width="24" height="24" viewBox="0 0 24 24" fill="none" xmlns="http://www.w3.org/2000/svg">
<path d="M13.75 10.5C12.92 10.5 12.25 9.83 12.25 9C12.25 8.17 12.92 7.5 13.75 7.5C14.58 7.5 15.25 8.17 15.25 9C15.25 9.83 14.58 10.5 13.75 10.5ZM13.75 8.5C13.47 8.5 13.25 8.72 13.25 9C13.25 9.28 13.47 9.5 13.75 9.5C14.03 9.5 14.25 9.28 14.25 9C14.25 8.72 14.03 8.5 13.75 8.5Z" fill="#232323"/>
<path d="M10.25 10.5C9.42 10.5 8.75 9.83 8.75 9C8.75 8.17 9.42 7.5 10.25 7.5C11.08 7.5 11.75 8.17 11.75 9C11.75 9.83 11.08 10.5 10.25 10.5ZM10.25 8.5C9.97 8.5 9.75 8.72 9.75 9C9.75 9.28 9.97 9.5 10.25 9.5C10.53 9.5 10.75 9.28 10.75 9C10.75 8.72 10.53 8.5 10.25 8.5Z" fill="#232323"/>
<path d="M15.5 13.5C14.67 13.5 14 12.83 14 12C14 11.17 14.67 10.5 15.5 10.5C16.33 10.5 17 11.17 17 12C17 12.83 16.33 13.5 15.5 13.5ZM15.5 11.5C15.22 11.5 15 11.72 15 12C15 12.28 15.22 12.5 15.5 12.5C15.78 12.5 16 12.28 16 12C16 11.72 15.78 11.5 15.5 11.5Z" fill="#232323"/>
<path d="M17.1499 10.25C16.4599 10.25 15.8999 9.69 15.8999 9C15.8999 8.31 16.4599 7.75 17.1499 7.75C17.8399 7.75 18.3999 8.31 18.3999 9C18.3999 9.69 17.8399 10.25 17.1499 10.25ZM17.1499 8.75C17.0099 8.75 16.8999 8.86 16.8999 9C16.8999 9.28 17.3999 9.28 17.3999 9C17.3999 8.86 17.2899 8.75 17.1499 8.75Z" fill="#232323"/>
<path d="M17.1499 16.25C16.4599 16.25 15.8999 15.69 15.8999 15C15.8999 14.31 16.4599 13.75 17.1499 13.75C17.8399 13.75 18.3999 14.31 18.3999 15C18.3999 15.69 17.8399 16.25 17.1499 16.25ZM17.1499 14.75C17.0099 14.75 16.8999 14.86 16.8999 15C16.8999 15.28 17.3999 15.28 17.3999 15C17.3999 14.86 17.2899 14.75 17.1499 14.75Z" fill="#232323"/>
<path d="M19.75 13.25C19.06 13.25 18.5 12.69 18.5 12C18.5 11.31 19.06 10.75 19.75 10.75C20.44 10.75 21 11.31 21 12C21 12.69 20.44 13.25 19.75 13.25ZM19.75 11.75C19.61 11.75 19.5 11.86 19.5 12C19.5 12.28 20 12.28 20 12C20 11.86 19.89 11.75 19.75 11.75Z" fill="#232323"/>
<path d="M6.80005 10.25C6.11005 10.25 5.55005 9.69 5.55005 9C5.55005 8.31 6.11005 7.75 6.80005 7.75C7.49005 7.75 8.05005 8.31 8.05005 9C8.05005 9.69 7.49005 10.25 6.80005 10.25ZM6.80005 8.75C6.66005 8.75 6.55005 8.86 6.55005 9C6.55005 9.28 7.05005 9.28 7.05005 9C7.05005 8.86 6.94005 8.75 6.80005 8.75Z" fill="#232323"/>
<path d="M6.80005 16.25C6.11005 16.25 5.55005 15.69 5.55005 15C5.55005 14.31 6.11005 13.75 6.80005 13.75C7.49005 13.75 8.05005 14.31 8.05005 15C8.05005 15.69 7.49005 16.25 6.80005 16.25ZM6.80005 14.75C6.66005 14.75 6.55005 14.86 6.55005 15C6.55005 15.28 7.05005 15.28 7.05005 15C7.05005 14.86 6.94005 14.75 6.80005 14.75Z" fill="#232323"/>
<path d="M4.19995 13.25C3.50995 13.25 2.94995 12.69 2.94995 12C2.94995 11.31 3.50995 10.75 4.19995 10.75C4.88995 10.75 5.44995 11.31 5.44995 12C5.44995 12.69 4.88995 13.25 4.19995 13.25ZM4.19995 11.75C4.05995 11.75 3.94995 11.86 3.94995 12C3.94995 12.28 4.44995 12.28 4.44995 12C4.44995 11.86 4.33995 11.75 4.19995 11.75Z" fill="#232323"/>
<path d="M15.8999 6.45C15.2099 6.45 14.6499 5.89 14.6499 5.2C14.6499 4.51 15.2099 3.95 15.8999 3.95C16.5899 3.95 17.1499 4.51 17.1499 5.2C17.1499 5.89 16.5899 6.45 15.8999 6.45ZM15.8999 4.95C15.7599 4.95 15.6499 5.06 15.6499 5.2C15.6499 5.48 16.1499 5.48 16.1499 5.2C16.1499 5.06 16.0399 4.95 15.8999 4.95Z" fill="#232323"/>
<path d="M8.1001 6.45C7.4101 6.45 6.8501 5.89 6.8501 5.2C6.8501 4.51 7.4101 3.95 8.1001 3.95C8.7901 3.95 9.3501 4.51 9.3501 5.2C9.3501 5.89 8.7901 6.45 8.1001 6.45ZM8.1001 4.95C7.9601 4.95 7.8501 5.06 7.8501 5.2C7.8501 5.48 8.3501 5.48 8.3501 5.2C8.3501 5.06 8.2401 4.95 8.1001 4.95Z" fill="#232323"/>
<path d="M12.05 7.25C11.36 7.25 10.8 6.69 10.8 6C10.8 5.31 11.36 4.75 12.05 4.75C12.74 4.75 13.3 5.31 13.3 6C13.3 6.69 12.74 7.25 12.05 7.25ZM12.05 5.75C11.91 5.75 11.8 5.86 11.8 6C11.8 6.28 12.3 6.28 12.3 6C12.3 5.86 12.19 5.75 12.05 5.75Z" fill="#232323"/>
<path d="M15.8999 20.25C15.2099 20.25 14.6499 19.69 14.6499 19C14.6499 18.31 15.2099 17.75 15.8999 17.75C16.5899 17.75 17.1499 18.31 17.1499 19C17.1499 19.69 16.5899 20.25 15.8999 20.25ZM15.8999 18.75C15.7599 18.75 15.6499 18.86 15.6499 19C15.6499 19.28 16.1499 19.28 16.1499 19C16.1499 18.86 16.0399 18.75 15.8999 18.75Z" fill="#232323"/>
<path d="M8.1001 20.25C7.4101 20.25 6.8501 19.69 6.8501 19C6.8501 18.31 7.4101 17.75 8.1001 17.75C8.7901 17.75 9.3501 18.31 9.3501 19C9.3501 19.69 8.7901 20.25 8.1001 20.25ZM8.1001 18.75C7.9601 18.75 7.8501 18.86 7.8501 19C7.8501 19.28 8.3501 19.28 8.3501 19C8.3501 18.86 8.2401 18.75 8.1001 18.75Z" fill="#232323"/>
<path d="M12.05 19.45C11.36 19.45 10.8 18.89 10.8 18.2C10.8 17.51 11.36 16.95 12.05 16.95C12.74 16.95 13.3 17.51 13.3 18.2C13.3 18.89 12.74 19.45 12.05 19.45ZM12.05 17.95C11.91 17.95 11.8 18.06 11.8 18.2C11.8 18.48 12.3 18.48 12.3 18.2C12.3 18.06 12.19 17.95 12.05 17.95Z" fill="#232323"/>
<path d="M8.5 13.5C7.67 13.5 7 12.83 7 12C7 11.17 7.67 10.5 8.5 10.5C9.33 10.5 10 11.17 10 12C10 12.83 9.33 13.5 8.5 13.5ZM8.5 11.5C8.22 11.5 8 11.72 8 12C8 12.28 8.22 12.5 8.5 12.5C8.78 12.5 9 12.28 9 12C9 11.72 8.78 11.5 8.5 11.5Z" fill="#232323"/>
<path d="M10.25 16.5C9.42 16.5 8.75 15.83 8.75 15C8.75 14.17 9.42 13.5 10.25 13.5C11.08 13.5 11.75 14.17 11.75 15C11.75 15.83 11.08 16.5 10.25 16.5ZM10.25 14.5C9.97 14.5 9.75 14.72 9.75 15C9.75 15.28 9.97 15.5 10.25 15.5C10.53 15.5 10.75 15.28 10.75 15C10.75 14.72 10.53 14.5 10.25 14.5Z" fill="#232323"/>
<path d="M13.75 16.5C12.92 16.5 12.25 15.83 12.25 15C12.25 14.17 12.92 13.5 13.75 13.5C14.58 13.5 15.25 14.17 15.25 15C15.25 15.83 14.58 16.5 13.75 16.5ZM13.75 14.5C13.47 14.5 13.25 14.72 13.25 15C13.25 15.28 13.47 15.5 13.75 15.5C14.03 15.5 14.25 15.28 14.25 15C14.25 14.72 14.03 14.5 13.75 14.5Z" fill="#232323"/>
<path d="M12 3.45C11.44 3.45 10.99 3 10.99 2.45C10.99 1.9 11.44 1.45 11.99 1.45C12.54 1.45 12.99 1.9 12.99 2.45C12.99 3 12.56 3.45 12 3.45Z" fill="#232323"/>
<path d="M17.25 3.6C16.83 3.6 16.49 3.26 16.49 2.85C16.49 2.44 16.83 2.1 17.24 2.1C17.65 2.1 18 2.44 18 2.85C18 3.26 17.67 3.6 17.25 3.6Z" fill="#232323"/>
<path d="M6.75 3.6C6.34 3.6 6 3.26 6 2.85C6 2.44 6.33 2.1 6.75 2.1H6.76001C7.17001 2.1 7.51001 2.44 7.51001 2.85C7.51001 3.26 7.17 3.6 6.75 3.6Z" fill="#232323"/>
<path d="M12 22.5C11.44 22.5 10.99 22.05 10.99 21.5C10.99 20.95 11.44 20.5 11.99 20.5C12.54 20.5 12.99 20.95 12.99 21.5C12.99 22.05 12.56 22.5 12 22.5Z" fill="#232323"/>
<path d="M17.25 21.85C16.83 21.85 16.49 21.51 16.49 21.1C16.49 20.69 16.83 20.35 17.24 20.35C17.65 20.35 18 20.69 18 21.1C18 21.51 17.67 21.85 17.25 21.85Z" fill="#232323"/>
<path d="M6.75 21.85C6.34 21.85 6 21.51 6 21.1C6 20.69 6.33 20.35 6.75 20.35H6.76001C7.17001 20.35 7.51001 20.69 7.51001 21.1C7.51001 21.51 7.17 21.85 6.75 21.85Z" fill="#232323"/>
<path d="M1.55005 13C1.00005 13 0.550049 12.56 0.550049 12C0.550049 11.45 1.00005 11 1.55005 11C2.10005 11 2.55005 11.45 2.55005 12C2.55005 12.55 2.10005 13 1.55005 13Z" fill="#232323"/>
<path d="M3.75 17.75C3.34 17.75 3 17.42 3 17V16.99C3 16.58 3.34 16.24 3.75 16.24C4.16 16.24 4.5 16.58 4.5 16.99C4.5 17.4 4.16 17.75 3.75 17.75Z" fill="#232323"/>
<path d="M3.75 7.76C3.34 7.76 3 7.42 3 7.01C3 6.6 3.34 6.26 3.75 6.26C4.16 6.26 4.5 6.59 4.5 7V7.01C4.5 7.42 4.16 7.76 3.75 7.76Z" fill="#232323"/>
<path d="M22.5 13C21.95 13 21.5 12.56 21.5 12C21.5 11.45 21.95 11 22.5 11C23.05 11 23.5 11.45 23.5 12C23.5 12.55 23.05 13 22.5 13Z" fill="#232323"/>
<path d="M20.3 17.75C19.89 17.75 19.55 17.42 19.55 17V16.99C19.55 16.58 19.89 16.24 20.3 16.24C20.71 16.24 21.05 16.58 21.05 16.99C21.05 17.4 20.71 17.75 20.3 17.75Z" fill="#232323"/>
<path d="M20.3 7.76C19.89 7.76 19.55 7.42 19.55 7.01C19.55 6.6 19.89 6.26 20.3 6.26C20.71 6.26 21.05 6.59 21.05 7.01V7.02C21.05 7.42 20.71 7.76 20.3 7.76Z" fill="#232323"/>
</svg>
