<svg width="24" height="24" viewBox="0 0 24 24" fill="none" xmlns="http://www.w3.org/2000/svg">
<path fill-rule="evenodd" clip-rule="evenodd" d="M5.46995 5.47C5.61058 5.32955 5.8012 5.25066 5.99995 5.25066C6.1987 5.25066 6.38933 5.32955 6.52995 5.47L12 10.94L17.4699 5.47C17.5386 5.39631 17.6214 5.33721 17.7134 5.29622C17.8054 5.25523 17.9047 5.23319 18.0054 5.23141C18.1061 5.22963 18.2062 5.24816 18.2995 5.28588C18.3929 5.3236 18.4778 5.37974 18.549 5.45096C18.6202 5.52218 18.6764 5.60701 18.7141 5.7004C18.7518 5.79379 18.7703 5.89382 18.7685 5.99452C18.7668 6.09523 18.7447 6.19454 18.7037 6.28654C18.6627 6.37854 18.6036 6.46134 18.53 6.53L13.06 12L18.53 17.47C18.6036 17.5387 18.6627 17.6215 18.7037 17.7135C18.7447 17.8055 18.7668 17.9048 18.7685 18.0055C18.7703 18.1062 18.7518 18.2062 18.7141 18.2996C18.6764 18.393 18.6202 18.4778 18.549 18.549C18.4778 18.6203 18.3929 18.6764 18.2995 18.7141C18.2062 18.7518 18.1061 18.7704 18.0054 18.7686C17.9047 18.7668 17.8054 18.7448 17.7134 18.7038C17.6214 18.6628 17.5386 18.6037 17.4699 18.53L12 13.06L6.52995 18.53C6.38778 18.6625 6.19973 18.7346 6.00543 18.7312C5.81113 18.7277 5.62574 18.649 5.48833 18.5116C5.35092 18.3742 5.2722 18.1888 5.26878 17.9945C5.26535 17.8002 5.33747 17.6122 5.46995 17.47L10.9399 12L5.46995 6.53C5.3295 6.38938 5.25061 6.19875 5.25061 6C5.25061 5.80125 5.3295 5.61063 5.46995 5.47Z" fill="black"/>
</svg>
