<svg width="24" height="24" viewBox="0 0 24 24" fill="none" xmlns="http://www.w3.org/2000/svg">
<path d="M15.0012 22.75C14.7312 22.75 14.4812 22.6 14.3512 22.37C14.2212 22.14 14.2212 21.85 14.3612 21.62L15.4112 19.87C15.6212 19.51 16.0812 19.4 16.4412 19.61C16.8012 19.82 16.9112 20.28 16.7012 20.64L16.4312 21.09C19.1912 20.44 21.2612 17.96 21.2612 15C21.2612 14.59 21.6012 14.25 22.0112 14.25C22.4212 14.25 22.7612 14.59 22.7612 15C22.7512 19.27 19.2712 22.75 15.0012 22.75Z" fill="#232323"/>
<path d="M2.00098 9.75C1.59098 9.75 1.25098 9.41 1.25098 9C1.25098 4.73 4.73098 1.25 9.00098 1.25C9.27098 1.25 9.52097 1.4 9.65097 1.63C9.78097 1.86 9.78098 2.15 9.64098 2.38L8.59097 4.13C8.38097 4.49 7.92097 4.60001 7.56097 4.39001C7.20097 4.18001 7.09098 3.71999 7.30098 3.35999L7.57098 2.90997C4.81098 3.55997 2.74098 6.04 2.74098 9C2.75098 9.41 2.41098 9.75 2.00098 9.75Z" fill="#232323"/>
<path d="M17.6808 7.49987C17.5508 7.49987 17.4209 7.4699 17.3009 7.3999L13.3309 5.09985C12.9709 4.88985 12.8509 4.42988 13.0609 4.06988C13.2709 3.70988 13.7309 3.58986 14.0809 3.79986L17.6808 5.87988L21.2509 3.80987C21.6109 3.59987 22.0709 3.72989 22.2709 4.07989C22.4809 4.43989 22.3509 4.89986 22.0009 5.10986L18.0509 7.38989C17.9409 7.45989 17.8108 7.49987 17.6808 7.49987Z" fill="#232323"/>
<path d="M17.6812 11.5698C17.2712 11.5698 16.9312 11.2298 16.9312 10.8198V6.73975C16.9312 6.32975 17.2712 5.98975 17.6812 5.98975C18.0912 5.98975 18.4312 6.32975 18.4312 6.73975V10.8198C18.4312 11.2398 18.0912 11.5698 17.6812 11.5698Z" fill="#232323"/>
<path d="M17.6808 11.7499C17.2208 11.7499 16.7508 11.6499 16.3808 11.4399L13.9808 10.1099C13.2008 9.67993 12.6108 8.66997 12.6108 7.77997V5.23993C12.6108 4.33993 13.2008 3.33997 13.9908 2.89997L16.3908 1.56995C17.1308 1.15995 18.2408 1.15995 18.9908 1.56995L21.3908 2.89997C22.1708 3.32997 22.7608 4.33992 22.7608 5.22992V7.76996C22.7608 8.66996 22.1708 9.66992 21.3908 10.0999L18.9908 11.4299C18.6008 11.6499 18.1408 11.7499 17.6808 11.7499ZM17.1108 2.86994L14.7108 4.19996C14.4108 4.36996 14.1108 4.87991 14.1108 5.21991V7.75995C14.1108 8.10995 14.4108 8.61997 14.7108 8.77997L17.1108 10.1199C17.4008 10.2799 17.9608 10.2799 18.2508 10.1199L20.6508 8.78992C20.9508 8.61992 21.2508 8.10996 21.2508 7.76996V5.22992C21.2508 4.87992 20.9508 4.36997 20.6508 4.20997L18.2508 2.87995C17.9608 2.70995 17.3908 2.70994 17.1108 2.86994Z" fill="#232323"/>
<path d="M6.321 18.4999C6.191 18.4999 6.06099 18.4699 5.94099 18.3999L1.97099 16.0998C1.61099 15.8898 1.49099 15.4299 1.70099 15.0699C1.91099 14.7099 2.37099 14.5899 2.72099 14.7999L6.321 16.8799L9.89099 14.8099C10.251 14.5999 10.711 14.7299 10.911 15.0799C11.121 15.4399 10.991 15.8999 10.641 16.1099L6.69099 18.3899C6.58099 18.4599 6.451 18.4999 6.321 18.4999Z" fill="#232323"/>
<path d="M6.3208 22.5698C5.9108 22.5698 5.5708 22.2298 5.5708 21.8198V17.7397C5.5708 17.3297 5.9108 16.9897 6.3208 16.9897C6.7308 16.9897 7.0708 17.3297 7.0708 17.7397V21.8198C7.0708 22.2398 6.7408 22.5698 6.3208 22.5698Z" fill="#232323"/>
<path d="M6.32098 22.7499C5.86098 22.7499 5.39098 22.6499 5.02098 22.4399L2.62097 21.1099C1.84097 20.6799 1.25098 19.67 1.25098 18.78V16.2399C1.25098 15.3399 1.84097 14.3399 2.62097 13.9099L5.02098 12.58C5.76098 12.17 6.88097 12.17 7.62097 12.58L10.021 13.9099C10.801 14.3399 11.391 15.3499 11.391 16.2399V18.78C11.391 19.68 10.801 20.6799 10.011 21.1199L7.61098 22.45C7.25098 22.65 6.79098 22.7499 6.32098 22.7499ZM5.75098 13.8699L3.35098 15.2C3.05098 15.37 2.75098 15.8799 2.75098 16.2199V18.76C2.75098 19.11 3.05098 19.62 3.35098 19.78L5.75098 21.1099C6.04098 21.2699 6.60098 21.2699 6.89098 21.1099L9.29097 19.78C9.59097 19.61 9.89098 19.1 9.89098 18.76V16.2199C9.89098 15.8699 9.59097 15.36 9.29097 15.2L6.89098 13.8599C6.61098 13.7099 6.04098 13.7099 5.75098 13.8699Z" fill="#232323"/>
</svg>
