<svg width="24" height="24" viewBox="0 0 24 24" fill="none" xmlns="http://www.w3.org/2000/svg">
<path d="M9.6 20.75C5.21 20.75 3.25 18.79 3.25 14.4V9.6C3.25 5.21 5.21 3.25 9.6 3.25H14.4C18.79 3.25 20.75 5.21 20.75 9.6C20.75 10.01 20.41 10.35 20 10.35C19.59 10.35 19.25 10.01 19.25 9.6C19.25 6.02 17.98 4.75 14.4 4.75H9.6C6.02 4.75 4.75 6.02 4.75 9.6V14.4C4.75 17.98 6.02 19.25 9.6 19.25C10.01 19.25 10.35 19.59 10.35 20C10.35 20.41 10.01 20.75 9.6 20.75Z" fill="#232323"/>
<path d="M7.98999 17.1C7.82999 17.1 7.65999 17.05 7.51999 16.94C6.64999 16.25 6.23999 15.15 6.23999 13.5V10.5C6.23999 7.6 7.58999 6.25 10.49 6.25H13.49C15.14 6.25 16.23 6.66 16.93 7.53C17.19 7.85 17.13 8.33 16.81 8.58C16.49 8.84 16.01 8.79 15.76 8.46C15.52 8.15 15.02 7.75 13.5 7.75H10.5C8.41999 7.75 7.74999 8.42 7.74999 10.5V13.5C7.74999 15.02 8.15999 15.52 8.45999 15.76C8.77999 16.02 8.83999 16.49 8.57999 16.81C8.42999 17 8.20999 17.1 7.98999 17.1Z" fill="#232323"/>
<path d="M8.01001 4.75C7.59001 4.75 7.26001 4.41 7.26001 4V2C7.26001 1.59 7.60001 1.25 8.01001 1.25C8.42001 1.25 8.76001 1.59 8.76001 2V4C8.76001 4.41 8.42001 4.75 8.01001 4.75Z" fill="#232323"/>
<path d="M12 4.75C11.59 4.75 11.25 4.41 11.25 4V2C11.25 1.59 11.59 1.25 12 1.25C12.41 1.25 12.75 1.59 12.75 2V4C12.75 4.41 12.41 4.75 12 4.75Z" fill="#232323"/>
<path d="M16 4.75C15.59 4.75 15.25 4.41 15.25 4V2C15.25 1.59 15.59 1.25 16 1.25C16.41 1.25 16.75 1.59 16.75 2V4C16.75 4.41 16.41 4.75 16 4.75Z" fill="#232323"/>
<path d="M22 8.75H20C19.59 8.75 19.25 8.41 19.25 8C19.25 7.59 19.59 7.25 20 7.25H22C22.41 7.25 22.75 7.59 22.75 8C22.75 8.41 22.42 8.75 22 8.75Z" fill="#232323"/>
<path d="M8.01001 22.75C7.60001 22.75 7.26001 22.41 7.26001 22V20C7.26001 19.59 7.60001 19.25 8.01001 19.25C8.42001 19.25 8.76001 19.59 8.76001 20V22C8.76001 22.41 8.42001 22.75 8.01001 22.75Z" fill="#232323"/>
<path d="M4 8.75H2C1.59 8.75 1.25 8.42 1.25 8C1.25 7.58 1.59 7.25 2 7.25H4C4.41 7.25 4.75 7.59 4.75 8C4.75 8.41 4.42 8.75 4 8.75Z" fill="#232323"/>
<path d="M4 12.75H2C1.59 12.75 1.25 12.41 1.25 12C1.25 11.59 1.59 11.25 2 11.25H4C4.41 11.25 4.75 11.59 4.75 12C4.75 12.41 4.42 12.75 4 12.75Z" fill="#232323"/>
<path d="M4 16.75H2C1.59 16.75 1.25 16.41 1.25 16C1.25 15.59 1.59 15.25 2 15.25H4C4.41 15.25 4.75 15.59 4.75 16C4.75 16.41 4.42 16.75 4 16.75Z" fill="#232323"/>
<path d="M16.7101 19.34C15.4201 19.34 14.3701 18.29 14.3701 17C14.3701 15.71 15.4201 14.66 16.7101 14.66C18.0001 14.66 19.0501 15.71 19.0501 17C19.0401 18.29 18.0001 19.34 16.7101 19.34ZM16.7101 16.16C16.2501 16.16 15.8701 16.54 15.8701 17C15.8701 17.46 16.2501 17.84 16.7101 17.84C17.1701 17.84 17.5501 17.46 17.5501 17C17.5401 16.54 17.1701 16.16 16.7101 16.16Z" fill="#232323"/>
<path d="M18.3999 22.75C17.8399 22.75 17.2899 22.46 16.9899 21.94L16.9199 21.83C16.8099 21.64 16.7199 21.59 16.6999 21.58C16.6899 21.58 16.5899 21.64 16.4799 21.83L16.4199 21.93C15.9599 22.72 14.9499 22.98 14.1799 22.52L13.2799 22C12.8699 21.77 12.5799 21.39 12.4599 20.93C12.3399 20.48 12.3999 20 12.6299 19.6C12.7399 19.41 12.7399 19.3 12.7299 19.28C12.7199 19.27 12.6299 19.22 12.4099 19.22C11.4399 19.22 10.6499 18.43 10.6499 17.47V16.54C10.6499 15.57 11.4399 14.79 12.3999 14.79C12.6199 14.79 12.7099 14.73 12.7299 14.72C12.7299 14.71 12.7299 14.6 12.6199 14.41C12.3899 14 12.3199 13.53 12.4499 13.08C12.5699 12.63 12.8599 12.25 13.2699 12.01L14.1799 11.48C14.9399 11.03 15.9499 11.29 16.3999 12.07L16.4599 12.18C16.5699 12.37 16.6599 12.42 16.6799 12.43C16.6899 12.43 16.7899 12.37 16.8999 12.18L16.9599 12.08C17.4299 11.29 18.4299 11.03 19.1999 11.49L20.1299 12C20.5399 12.23 20.8299 12.61 20.9499 13.07C21.0699 13.52 21.0099 14 20.7799 14.4C20.6699 14.59 20.6699 14.7 20.6799 14.72C20.6899 14.73 20.7799 14.78 20.9999 14.78C21.9699 14.78 22.7599 15.57 22.7599 16.53V17.46C22.7599 18.43 21.9699 19.21 21.0099 19.21C20.7899 19.21 20.6999 19.27 20.6799 19.28C20.6799 19.29 20.6799 19.4 20.7899 19.59C21.0199 20 21.0899 20.47 20.9599 20.92C20.8399 21.37 20.5499 21.75 20.1399 21.99L19.2299 22.52C18.9599 22.67 18.6799 22.75 18.3999 22.75ZM16.7099 20.08C17.3099 20.08 17.8599 20.44 18.2299 21.08L18.2899 21.19C18.3199 21.24 18.3999 21.27 18.4599 21.23L19.3799 20.7C19.4599 20.66 19.4899 20.58 19.4999 20.54C19.5099 20.5 19.5199 20.43 19.4799 20.35C19.1099 19.72 19.0799 19.06 19.3799 18.54C19.6799 18.02 20.2699 17.72 20.9999 17.72C21.1399 17.72 21.2599 17.6 21.2599 17.47V16.54C21.2599 16.4 21.1399 16.29 21.0099 16.29C20.2799 16.29 19.6799 15.99 19.3899 15.47C19.0899 14.95 19.1299 14.29 19.4899 13.66C19.5399 13.58 19.5299 13.5 19.5099 13.47C19.4999 13.43 19.4699 13.36 19.3899 13.31L18.4799 12.78C18.4099 12.74 18.3299 12.77 18.2899 12.83L18.2399 12.92C17.8699 13.56 17.3199 13.92 16.7199 13.92C16.1199 13.92 15.5699 13.56 15.1999 12.92L15.1399 12.82C15.1099 12.76 15.0199 12.74 14.9699 12.77L14.0499 13.3C13.9699 13.34 13.9399 13.42 13.9299 13.46C13.9199 13.5 13.9099 13.57 13.9499 13.65C14.3199 14.28 14.3499 14.94 14.0499 15.46C13.7499 15.98 13.1599 16.28 12.4299 16.28C12.2899 16.28 12.1699 16.4 12.1699 16.53V17.46C12.1699 17.6 12.2899 17.71 12.4199 17.71C13.1499 17.71 13.7499 18.01 14.0399 18.53C14.3399 19.05 14.2999 19.71 13.9399 20.34C13.8999 20.42 13.9099 20.49 13.9199 20.53C13.9299 20.57 13.9599 20.64 14.0399 20.69L14.9499 21.22C15.0199 21.26 15.0999 21.23 15.1399 21.17L15.1899 21.07C15.5499 20.44 16.1099 20.08 16.7099 20.08Z" fill="#232323"/>
</svg>
