<svg width="24" height="24" viewBox="0 0 24 24" fill="none" xmlns="http://www.w3.org/2000/svg">
<path d="M16.7001 19.73H7.30006C6.56006 19.73 5.81006 19.2 5.56006 18.51L1.42006 6.92001C0.910057 5.46001 1.28006 4.79001 1.68006 4.49001C2.08006 4.19001 2.83006 4.01001 4.09006 4.91001L7.99006 7.70001C8.11006 7.77001 8.22006 7.80001 8.30006 7.78001C8.39006 7.75001 8.46006 7.67001 8.51006 7.53001L10.2701 2.84001C10.8001 1.44001 11.5801 1.23001 12.0001 1.23001C12.4201 1.23001 13.2001 1.44001 13.7301 2.84001L15.4901 7.53001C15.5401 7.66001 15.6101 7.75001 15.7001 7.78001C15.7901 7.81001 15.9001 7.78001 16.0101 7.69001L19.6701 5.08001C21.0101 4.12001 21.7901 4.31001 22.2201 4.62001C22.6401 4.94001 23.0301 5.65001 22.4801 7.20001L18.4401 18.51C18.1901 19.2 17.4401 19.73 16.7001 19.73ZM2.68006 5.81001C2.70006 5.95001 2.74006 6.15001 2.84006 6.41001L6.98006 18C7.02006 18.1 7.20006 18.23 7.30006 18.23H16.7001C16.8101 18.23 16.9901 18.1 17.0201 18L21.0601 6.70001C21.2001 6.32001 21.2401 6.06001 21.2501 5.91001C21.1001 5.96001 20.8701 6.07001 20.5401 6.31001L16.8801 8.92001C16.3801 9.27001 15.7901 9.38001 15.2601 9.22001C14.7301 9.06001 14.3001 8.64001 14.0801 8.07001L12.3201 3.38001C12.1901 3.03001 12.0701 2.86001 12.0001 2.78001C11.9301 2.86001 11.8101 3.03001 11.6801 3.37001L9.92006 8.06001C9.71006 8.63001 9.28006 9.05001 8.74006 9.21001C8.21006 9.37001 7.61006 9.26001 7.12006 8.91001L3.22006 6.12001C2.99006 5.96001 2.81006 5.86001 2.68006 5.81001Z" fill="#232323"/>
<path d="M17.5 22.75H6.5C6.09 22.75 5.75 22.41 5.75 22C5.75 21.59 6.09 21.25 6.5 21.25H17.5C17.91 21.25 18.25 21.59 18.25 22C18.25 22.41 17.91 22.75 17.5 22.75Z" fill="#232323"/>
<path d="M14.5 14.75H9.5C9.09 14.75 8.75 14.41 8.75 14C8.75 13.59 9.09 13.25 9.5 13.25H14.5C14.91 13.25 15.25 13.59 15.25 14C15.25 14.41 14.91 14.75 14.5 14.75Z" fill="#232323"/>
</svg>
