<svg width="24" height="24" viewBox="0 0 24 24" fill="none" xmlns="http://www.w3.org/2000/svg">
<path d="M11.9999 18.9C10.8599 18.9 9.92993 17.97 9.92993 16.83V7.17C9.92993 6.03 10.8599 5.10001 11.9999 5.10001C13.1399 5.10001 14.0699 6.03 14.0699 7.17V16.83C14.0699 17.97 13.1399 18.9 11.9999 18.9ZM11.9999 6.60001C11.6899 6.60001 11.4299 6.85 11.4299 7.17V16.83C11.4299 17.14 11.6799 17.4 11.9999 17.4C12.3199 17.4 12.5699 17.15 12.5699 16.83V7.17C12.5699 6.86 12.3099 6.60001 11.9999 6.60001Z" fill="#232323"/>
<path d="M16.18 16.48C15.83 16.48 15.47 16.39 15.15 16.2L6.78 11.37C6.3 11.09 5.96 10.65 5.82 10.11C5.68 9.58 5.75 9.01999 6.03 8.53999C6.6 7.54999 7.87 7.21 8.85 7.78L17.22 12.61C18.21 13.18 18.55 14.45 17.98 15.43C17.59 16.11 16.89 16.48 16.18 16.48ZM7.82 9.02001C7.77 9.02001 7.72 9.02999 7.67 9.03999C7.52 9.07999 7.4 9.17 7.32 9.3C7.25 9.43 7.23 9.58 7.26 9.73C7.3 9.88 7.39 10 7.52 10.08L15.89 14.91C16.16 15.06 16.51 14.97 16.67 14.7C16.83 14.43 16.73 14.08 16.46 13.92L8.09 9.09C8.01 9.04 7.92 9.02001 7.82 9.02001Z" fill="#232323"/>
<path d="M7.82001 16.48C7.10001 16.48 6.41001 16.11 6.03001 15.45C5.46001 14.46 5.80002 13.2 6.79002 12.63L15.16 7.8C16.15 7.23 17.41 7.57 17.98 8.56C18.26 9.04 18.33 9.59001 18.19 10.13C18.05 10.66 17.71 11.11 17.23 11.39L8.86001 16.22C8.53001 16.39 8.17001 16.48 7.82001 16.48ZM7.32001 14.7C7.47001 14.97 7.83001 15.06 8.10001 14.91L16.47 10.08C16.6 10 16.69 9.88 16.73 9.73C16.77 9.58 16.75 9.43 16.67 9.3C16.59 9.17 16.47 9.07999 16.32 9.03999C16.17 8.99999 16.02 9.02001 15.89 9.10001L7.52001 13.93C7.26001 14.08 7.17001 14.43 7.32001 14.7Z" fill="#232323"/>
<path d="M12 22.75C6.07 22.75 1.25 17.93 1.25 12C1.25 6.07 6.07 1.25 12 1.25C17.93 1.25 22.75 6.07 22.75 12C22.75 17.93 17.93 22.75 12 22.75ZM12 2.75C6.9 2.75 2.75 6.9 2.75 12C2.75 17.1 6.9 21.25 12 21.25C17.1 21.25 21.25 17.1 21.25 12C21.25 6.9 17.1 2.75 12 2.75Z" fill="#232323"/>
</svg>
