<svg width="24" height="24" viewBox="0 0 24 24" fill="none" xmlns="http://www.w3.org/2000/svg">
<path d="M15 22.75H9C3.57 22.75 1.25 20.43 1.25 15V9C1.25 3.57 3.57 1.25 9 1.25H14C14.41 1.25 14.75 1.59 14.75 2C14.75 2.41 14.41 2.75 14 2.75H9C4.39 2.75 2.75 4.39 2.75 9V15C2.75 19.61 4.39 21.25 9 21.25H15C19.61 21.25 21.25 19.61 21.25 15V10C21.25 9.59 21.59 9.25 22 9.25C22.41 9.25 22.75 9.59 22.75 10V15C22.75 20.43 20.43 22.75 15 22.75Z" fill="#232323"/>
<path d="M22 10.75H18C14.58 10.75 13.25 9.41999 13.25 5.99999V1.99999C13.25 1.69999 13.43 1.41999 13.71 1.30999C13.99 1.18999 14.31 1.25999 14.53 1.46999L22.53 9.46999C22.74 9.67999 22.81 10.01 22.69 10.29C22.57 10.57 22.3 10.75 22 10.75ZM14.75 3.80999V5.99999C14.75 8.57999 15.42 9.24999 18 9.24999H20.19L14.75 3.80999Z" fill="#232323"/>
<path d="M9.42011 18.95C8.55011 18.95 6.53011 17.89 5.91011 15.95C5.48011 14.61 5.98011 12.86 7.53011 12.36C8.18011 12.15 8.87011 12.24 9.42011 12.58C9.96011 12.24 10.6601 12.15 11.3201 12.36C12.8701 12.86 13.3701 14.61 12.9401 15.95C12.3101 17.93 10.1901 18.95 9.42011 18.95ZM7.33011 15.5C7.75011 16.81 9.17011 17.43 9.43011 17.45C9.71011 17.42 11.1101 16.73 11.5001 15.5C11.7101 14.84 11.5001 14 10.8501 13.79C10.5801 13.7 10.2101 13.75 10.0401 14.01C9.90011 14.22 9.68011 14.34 9.43011 14.35C9.16011 14.35 8.95011 14.24 8.81011 14.04C8.60011 13.75 8.24011 13.71 7.98011 13.8C7.34011 14 7.12011 14.84 7.33011 15.5Z" fill="#232323"/>
</svg>
