<svg width="24" height="24" viewBox="0 0 24 24" fill="none" xmlns="http://www.w3.org/2000/svg">
<path d="M6.44 9.75C6.29 9.75 6.14999 9.71 6.01999 9.62L1.57999 6.62C1.37999 6.48 1.25 6.25001 1.25 6.01001C1.25 5.76001 1.36 5.53002 1.56 5.39002L7.12 1.39002C7.38 1.21002 7.72001 1.20001 7.98001 1.38001L12.42 4.38001C12.62 4.52001 12.75 4.74999 12.75 4.98999C12.75 5.23999 12.64 5.46999 12.44 5.60999L6.88 9.60999C6.75 9.69999 6.6 9.75 6.44 9.75ZM3.31 5.98001L6.42999 8.09L10.69 5.01999L7.57001 2.91001L3.31 5.98001Z" fill="#232323"/>
<path d="M17.5601 9.74999C17.4101 9.74999 17.2501 9.69998 17.1201 9.60998L11.5601 5.60998C11.3601 5.46998 11.2401 5.22998 11.2501 4.98998C11.2501 4.73998 11.3801 4.52 11.5801 4.38L16.0201 1.38C16.2801 1.21 16.6201 1.21 16.8801 1.39L22.4401 5.39001C22.6401 5.53001 22.7601 5.77 22.7501 6.01C22.7501 6.26 22.6201 6.47999 22.4201 6.61999L17.9801 9.61999C17.8501 9.70999 17.7001 9.74999 17.5601 9.74999ZM13.3101 5.01998L17.5701 8.08999L20.6901 5.98L16.4301 2.90999L13.3101 5.01998Z" fill="#232323"/>
<path d="M7.56009 17.75C7.41009 17.75 7.25009 17.7 7.12009 17.61L1.56009 13.61C1.36009 13.47 1.24009 13.23 1.25009 12.99C1.25009 12.74 1.38008 12.52 1.58008 12.38L6.02008 9.38C6.28008 9.21 6.6201 9.21 6.8801 9.39L12.4401 13.39C12.6401 13.53 12.7601 13.77 12.7501 14.01C12.7501 14.26 12.6201 14.48 12.4201 14.62L7.9801 17.62C7.8501 17.71 7.70009 17.75 7.56009 17.75ZM3.31009 13.02L7.5701 16.09L10.6901 13.98L6.43008 10.91L3.31009 13.02Z" fill="#232323"/>
<path d="M16.44 17.75C16.29 17.75 16.15 17.71 16.02 17.62L11.58 14.62C11.38 14.48 11.25 14.25 11.25 14.01C11.25 13.76 11.36 13.53 11.56 13.39L17.12 9.39002C17.37 9.21002 17.72 9.20001 17.98 9.38001L22.42 12.38C22.62 12.52 22.75 12.75 22.75 12.99C22.75 13.24 22.64 13.47 22.44 13.61L16.88 17.61C16.75 17.7 16.6 17.75 16.44 17.75ZM13.31 13.98L16.43 16.09L20.69 13.02L17.57 10.91L13.31 13.98Z" fill="#232323"/>
<path d="M12 22.65C11.75 22.65 11.5 22.6 11.27 22.49L4.69 19.45C4.42 19.33 4.25 19.06 4.25 18.77V15.5C4.25 15.09 4.59 14.75 5 14.75C5.41 14.75 5.75 15.09 5.75 15.5V18.29L11.9 21.13C11.97 21.16 12.04 21.16 12.11 21.13L18.26 18.29V15.5C18.26 15.09 18.6 14.75 19.01 14.75C19.42 14.75 19.76 15.09 19.76 15.5V18.77C19.76 19.06 19.59 19.33 19.32 19.45L12.74 22.49C12.5 22.6 12.25 22.65 12 22.65Z" fill="#232323"/>
</svg>
