<svg width="24" height="24" viewBox="0 0 24 24" fill="none" xmlns="http://www.w3.org/2000/svg">
<path d="M11.07 18.17C10.9 18.17 10.74 18.14 10.57 18.08C10.02 17.87 9.65995 17.36 9.65995 16.77V13.47H8.67995C8.11995 13.47 7.62995 13.15 7.39995 12.65C7.16995 12.14 7.25995 11.57 7.62995 11.15L11.89 6.31C12.28 5.87 12.88 5.72 13.43 5.93C13.98 6.14 14.34 6.65 14.34 7.24V10.54H15.33C15.89 10.54 16.38 10.86 16.61 11.36C16.84 11.87 16.75 12.44 16.38 12.86L12.12 17.7C11.84 18 11.46 18.17 11.07 18.17ZM8.89995 11.97H10.41C10.82 11.97 11.16 12.31 11.16 12.72V16.5L15.1 12.03H13.59C13.18 12.03 12.84 11.69 12.84 11.28V7.5L8.89995 11.97Z" fill="#232323"/>
<path d="M11.97 22.75C6.04997 22.75 1.21997 17.93 1.21997 12C1.21997 6.07 6.04997 1.25 11.97 1.25C17.89 1.25 22.72 6.07 22.72 12C22.72 17.93 17.9 22.75 11.97 22.75ZM11.97 2.75C6.86997 2.75 2.71997 6.9 2.71997 12C2.71997 17.1 6.86997 21.25 11.97 21.25C17.07 21.25 21.22 17.1 21.22 12C21.22 6.9 17.07 2.75 11.97 2.75Z" fill="#232323"/>
</svg>
