<svg width="24" height="24" viewBox="0 0 24 24" fill="none" xmlns="http://www.w3.org/2000/svg">
<path d="M19.41 21.75H4.59005C4.33005 21.75 4.08003 21.61 3.95003 21.39L0.770039 16.1C0.630039 15.87 0.630039 15.57 0.770039 15.34L8.18001 2.63C8.31001 2.4 8.56004 2.26001 8.83004 2.26001H15.18C15.45 2.26001 15.69 2.4 15.83 2.63C18.62 7.41001 22.83 14.62 23.19 15.18C23.29 15.31 23.34 15.46 23.34 15.63C23.34 15.81 23.28 15.97 23.17 16.1C22.91 16.49 21.15 19.52 20.06 21.38C19.93 21.61 19.68 21.75 19.41 21.75ZM5.01003 20.25H18.98C20.47 17.69 21.27 16.33 21.76 15.61C21.19 14.77 20.19 13.07 18.22 9.70001L14.75 3.75H9.26003L2.29 15.7L5.01003 20.25ZM22.37 16.33V16.35V16.33Z" fill="#232323"/>
<path d="M19.41 21.75C19.15 21.75 18.9 21.62 18.76 21.38L8.16998 3.38001C7.95998 3.02001 8.08 2.56001 8.44 2.35001C8.8 2.14001 9.25997 2.26 9.46997 2.62L20.06 20.62C20.27 20.98 20.15 21.44 19.79 21.65C19.67 21.72 19.54 21.75 19.41 21.75Z" fill="#232323"/>
<path d="M4.59002 21.75C4.46002 21.75 4.33002 21.72 4.21002 21.65C3.85002 21.44 3.73 20.98 3.94 20.62L14.53 2.62C14.74 2.26 15.2 2.14001 15.56 2.35001C15.92 2.56001 16.04 3.02001 15.83 3.38001L5.23999 21.38C5.08999 21.62 4.84002 21.75 4.59002 21.75Z" fill="#232323"/>
<path d="M22 16.46H1.5C1.09 16.46 0.75 16.12 0.75 15.71C0.75 15.3 1.09 14.96 1.5 14.96H22C22.41 14.96 22.75 15.3 22.75 15.71C22.75 16.12 22.41 16.46 22 16.46Z" fill="#232323"/>
</svg>
