<svg id="eilkYrHL6qc1" xmlns="http://www.w3.org/2000/svg" viewBox="0 0 24 24" shape-rendering="geometricPrecision" text-rendering="geometricPrecision">
<path d="M12,21.65c-.31,0-.61-.04-.86-.13-3.82-1.31-9.89-5.96-9.89-12.83002c0-3.5,2.83-6.34,6.31-6.34c1.69,0,3.27.66,4.44,1.84c1.17-1.18,2.75-1.84,4.44-1.84c3.48,0,6.31,2.85,6.31,6.34C22.75,15.57,16.68,20.21,12.86,21.52c-.25.09-.55.13-.86.13ZM7.56,3.84998c-2.65,0-4.81,2.17-4.81,4.84C2.75,15.52,9.32,19.32,11.63,20.11c.18.06.57.06.75,0c2.3-.79,8.88-4.58,8.88-11.42002c0-2.67-2.16-4.84-4.81-4.84-1.52,0-2.93.71-3.84,1.94-.28.38-.92.38-1.2,0-.93-1.24-2.33-1.94-3.85-1.94Z" fill="#707082"/>
<path d="M16.44,3.09998c-1.81,0-3.43.88-4.44,2.23-1.01-1.35-2.63-2.23-4.44-2.23-3.07,0-5.56,2.5-5.56,5.59C2,9.87998,2.19,10.98,2.52,12c1.58,5,6.45,7.99,8.86,8.81.34.12.9.12,1.24,0C15.03,19.99,19.9,17,21.48,12c.33-1.02.52-2.12002.52-3.31002c0-3.09-2.49-5.59-5.56-5.59Z" fill="#fff"/>
</svg>
