<svg width="24" height="24" viewBox="0 0 24 24" fill="none" xmlns="http://www.w3.org/2000/svg">
<path d="M14.76 22.72C14.59 22.72 14.4299 22.68 14.2999 22.6C13.8499 22.31 11.61 20.76 11.2 18.4C10.98 17.09 11.3499 15.79 12.3099 14.55C15.0999 10.94 15.4099 9.89 15.4199 9.85C15.4599 9.57 15.6499 9.37 15.9199 9.28C16.1899 9.19 16.4699 9.28 16.6799 9.48C18.9599 11.69 20 13.97 19.76 16.26C19.38 19.85 15.9 22.2 15.21 22.63C15.09 22.68 14.92 22.72 14.76 22.72ZM16.3799 11.31C15.9199 12.12 15.0799 13.42 13.4999 15.45C12.7899 16.36 12.5299 17.24 12.6799 18.13C12.9199 19.52 14.14 20.61 14.77 21.08C15.76 20.39 18 18.57 18.26 16.06C18.43 14.52 17.7999 12.93 16.3799 11.31Z" fill="#232323"/>
<path d="M10.2801 22.73C10.0201 22.73 9.76008 22.66 9.57008 22.61C7.36008 21.98 5.36009 19.96 4.58009 17.59C3.78009 15.16 4.27004 12.62 5.97004 10.43C9.07004 6.37 10.1001 3.1 10.3401 2.2C10.4501 1.77 10.7701 1.44 11.2101 1.31C11.6601 1.19 12.1501 1.32 12.4901 1.66C12.5201 1.68 12.5401 1.71 12.5601 1.74C13.5001 3 14.5101 5.25 14.5101 7.79C14.5101 9.53 13.2901 11.11 12.1101 12.63C10.8601 14.25 9.5701 15.92 9.7101 17.73C9.8401 19.07 10.4201 20.09 10.8101 20.77C11.1401 21.34 11.4501 21.88 11.0601 22.39C10.8501 22.65 10.5701 22.73 10.2801 22.73ZM9.75007 21.97H9.76008H9.75007ZM11.6501 3.06C11.1901 4.57 9.99005 7.63 7.16005 11.35C5.39005 13.64 5.56008 15.76 6.01008 17.13C6.54008 18.74 7.74009 20.14 9.14009 20.84C8.76009 20.1 8.34004 19.1 8.22004 17.86C8.04004 15.46 9.57007 13.47 10.9301 11.71C12.0001 10.32 13.0101 9.01 13.0101 7.78C13.0101 5.88 12.3301 4.14 11.6501 3.06ZM11.7901 2.57C11.7901 2.57 11.7901 2.58 11.7901 2.57C11.7901 2.58 11.7901 2.57 11.7901 2.57Z" fill="#232323"/>
</svg>
