<svg width="24" height="24" viewBox="0 0 24 24" fill="none" xmlns="http://www.w3.org/2000/svg">
<path d="M18.3601 22.75H5.59011C4.07011 22.75 2.68011 21.98 1.88011 20.68C1.08011 19.38 1.01011 17.8 1.69011 16.43L3.41011 12.98C3.97011 11.86 4.87011 11.16 5.88011 11.05C6.89011 10.94 7.92011 11.44 8.70011 12.41L8.92011 12.69C9.36011 13.23 9.87011 13.52 10.3701 13.47C10.8701 13.43 11.3301 13.07 11.6701 12.46L13.5601 9.05C14.3401 7.64 15.3801 6.91 16.5101 6.96C17.6301 7.02 18.5901 7.86 19.2301 9.34L22.3601 16.65C22.9401 18 22.8001 19.54 21.9901 20.77C21.1901 22.02 19.8301 22.75 18.3601 22.75ZM6.16011 12.55C6.12011 12.55 6.08011 12.55 6.04011 12.56C5.54011 12.61 5.08011 13.01 4.75011 13.66L3.03011 17.11C2.58011 18 2.63011 19.05 3.15011 19.9C3.67011 20.75 4.59011 21.26 5.59011 21.26H18.3501C19.3301 21.26 20.2001 20.79 20.7401 19.97C21.2801 19.15 21.3701 18.17 20.9801 17.27L17.8501 9.96C17.4701 9.06 16.9401 8.51 16.4301 8.49C15.9601 8.46 15.3501 8.96 14.8701 9.81L12.9801 13.22C12.4001 14.26 11.4901 14.91 10.5001 15C9.51011 15.08 8.50011 14.6 7.75011 13.66L7.53011 13.38C7.11011 12.83 6.63011 12.55 6.16011 12.55Z" fill="#232323"/>
<path d="M6.96997 8.75C4.90997 8.75 3.21997 7.07 3.21997 5C3.21997 2.93 4.89997 1.25 6.96997 1.25C9.03997 1.25 10.72 2.93 10.72 5C10.72 7.07 9.03997 8.75 6.96997 8.75ZM6.96997 2.75C5.72997 2.75 4.71997 3.76 4.71997 5C4.71997 6.24 5.72997 7.25 6.96997 7.25C8.20997 7.25 9.21997 6.24 9.21997 5C9.21997 3.76 8.20997 2.75 6.96997 2.75Z" fill="#232323"/>
</svg>
