<svg width="24" height="24" viewBox="0 0 24 24" fill="none" xmlns="http://www.w3.org/2000/svg">
<path d="M12 22.43C11.52 22.43 11.04 22.3 10.61 22.05L4.10999 18.23C3.26999 17.74 2.75 16.83 2.75 15.86V8.14999C2.75 7.17999 3.26999 6.26999 4.10999 5.77999L10.61 1.96C11.47 1.45 12.54 1.45 13.4 1.96L19.9 5.77999C20.74 6.26999 21.26 7.17999 21.26 8.14999V15.86C21.26 16.83 20.74 17.74 19.9 18.23L13.4 22.05C12.96 22.3 12.48 22.43 12 22.43ZM11.37 3.24L4.87 7.05999C4.49 7.27999 4.25 7.69999 4.25 8.13999V15.85C4.25 16.29 4.49 16.7 4.87 16.93L11.37 20.75C11.76 20.98 12.25 20.98 12.64 20.75L19.14 16.93C19.52 16.71 19.76 16.29 19.76 15.85V8.13999C19.76 7.69999 19.52 7.28999 19.14 7.05999L12.64 3.24C12.24 3.01 11.76 3.01 11.37 3.24Z" fill="#232323"/>
<path d="M12 18.75C11.87 18.75 11.73 18.71 11.61 18.64L6.60999 15.64C6.24999 15.43 6.13998 14.97 6.34998 14.61C6.55998 14.25 7.02 14.14 7.38 14.35L11.99 17.12L15.53 14.99L6.59998 9.63001C6.36998 9.49001 6.23999 9.25001 6.23999 8.99001C6.23999 8.73001 6.37998 8.48001 6.59998 8.35001L11.6 5.35001C11.84 5.21001 12.14 5.21001 12.37 5.35001L17.37 8.35001C17.73 8.56001 17.84 9.02001 17.63 9.38001C17.42 9.73001 16.96 9.85 16.6 9.64L11.99 6.87L8.45001 9L17.38 14.36C17.61 14.5 17.74 14.74 17.74 15C17.74 15.26 17.6 15.51 17.38 15.64L12.38 18.64C12.27 18.71 12.13 18.75 12 18.75Z" fill="#232323"/>
<path d="M9.49997 12.75C9.30997 12.75 9.11994 12.68 8.96994 12.53C8.67994 12.24 8.67994 11.76 8.96994 11.47L10.9699 9.47C11.2599 9.18 11.74 9.18 12.03 9.47C12.32 9.76 12.32 10.24 12.03 10.53L10.03 12.53C9.88 12.68 9.68997 12.75 9.49997 12.75Z" fill="#232323"/>
<path d="M12.5 14.75C12.31 14.75 12.1199 14.68 11.9699 14.53C11.6799 14.24 11.6799 13.76 11.9699 13.47L13.9699 11.47C14.2599 11.18 14.74 11.18 15.03 11.47C15.32 11.76 15.32 12.24 15.03 12.53L13.03 14.53C12.88 14.68 12.69 14.75 12.5 14.75Z" fill="#232323"/>
</svg>
