<svg width="24" height="24" viewBox="0 0 24 24" fill="none" xmlns="http://www.w3.org/2000/svg">
<path d="M15 22.75H9C3.57 22.75 1.25 20.43 1.25 15V9C1.25 3.57 3.57 1.25 9 1.25H15C20.43 1.25 22.75 3.57 22.75 9V15C22.75 20.43 20.43 22.75 15 22.75ZM9 2.75C4.39 2.75 2.75 4.39 2.75 9V15C2.75 19.61 4.39 21.25 9 21.25H15C19.61 21.25 21.25 19.61 21.25 15V9C21.25 4.39 19.61 2.75 15 2.75H9Z" fill="#232323"/>
<path d="M8.81023 18.2501C8.74023 18.2501 8.66023 18.2501 8.59023 18.2301L7.40023 18.0701C6.68023 17.9701 6.05023 17.3501 5.94023 16.6101L5.77023 15.4001C5.70023 14.9201 5.90023 14.3101 6.25023 13.9501L8.53023 11.6701C8.19023 10.0501 8.68023 8.37007 9.87023 7.19007C11.7802 5.28007 14.9002 5.28007 16.8102 7.19007C17.7402 8.12007 18.2502 9.35007 18.2502 10.6601C18.2502 11.9701 17.7402 13.2101 16.8102 14.1301C15.6202 15.3101 13.9402 15.8001 12.3302 15.4601L10.0402 17.7401C9.75023 18.0501 9.26023 18.2501 8.81023 18.2501ZM13.3402 7.25007C12.4702 7.25007 11.5902 7.58007 10.9302 8.25007C10.0302 9.15007 9.71023 10.4601 10.0802 11.6801C10.1602 11.9501 10.0902 12.2301 9.89023 12.4301L7.31023 15.0101C7.29023 15.0401 7.25023 15.1501 7.25023 15.1901L7.42023 16.3901C7.43023 16.4501 7.54023 16.5601 7.60023 16.5701L8.80023 16.7401C8.85023 16.7301 8.95023 16.7101 8.98023 16.6801L11.5702 14.0901C11.7702 13.8901 12.0602 13.8301 12.3202 13.9101C13.5302 14.2901 14.8402 13.9701 15.7402 13.0701C16.3802 12.4301 16.7402 11.5701 16.7402 10.6601C16.7402 9.75007 16.3902 8.89007 15.7402 8.25007C15.0902 7.59007 14.2102 7.25007 13.3402 7.25007Z" fill="#232323"/>
<path d="M10.4498 17.0301C10.2598 17.0301 10.0698 16.9601 9.91978 16.8101L9.05979 15.9501C8.76979 15.6601 8.76979 15.1801 9.05979 14.8901C9.34979 14.6001 9.82978 14.6001 10.1198 14.8901L10.9798 15.7501C11.2698 16.0401 11.2698 16.5201 10.9798 16.8101C10.8398 16.9601 10.6498 17.0301 10.4498 17.0301Z" fill="#232323"/>
<path d="M13.3801 11.8001C13.2401 11.8001 13.1101 11.7801 12.9901 11.7301C12.8701 11.6801 12.7601 11.6001 12.6701 11.5101C12.4801 11.3201 12.3701 11.0701 12.3701 10.8001C12.3701 10.5401 12.4801 10.2801 12.6701 10.1001C12.9001 9.86012 13.2501 9.75012 13.5701 9.82012C13.6301 9.84012 13.7001 9.85012 13.7601 9.88012C13.8201 9.91012 13.8801 9.94012 13.9301 9.97012C13.9801 10.0101 14.0401 10.0501 14.0801 10.1001C14.2701 10.2801 14.3801 10.5401 14.3801 10.8001C14.3801 10.9401 14.3501 11.0601 14.3001 11.1901C14.2501 11.3101 14.1801 11.4201 14.0801 11.5101C13.8901 11.7001 13.6401 11.8001 13.3801 11.8001Z" fill="#232323"/>
</svg>
