<svg width="24" height="24" viewBox="0 0 24 24" fill="none" xmlns="http://www.w3.org/2000/svg">
<path d="M4.18012 19.0799C3.99012 19.0799 3.80012 19.0099 3.65012 18.8599C3.36012 18.5699 3.36012 18.0899 3.65012 17.7999L19.5001 1.94992C19.7901 1.65992 20.2701 1.65992 20.5601 1.94992C20.8501 2.23992 20.8501 2.71992 20.5601 3.00992L4.71012 18.8599C4.56012 19.0099 4.37012 19.0799 4.18012 19.0799Z" fill="#232323"/>
<path d="M5.24982 13.75C4.95982 13.75 4.68982 13.58 4.55982 13.3C4.06982 12.18 3.81982 11.04 3.81982 9.90001C3.81982 7.18001 4.99982 4.67001 7.04982 3.01001C8.96982 1.47001 11.3498 0.910008 13.7498 1.44001C15.3298 1.79001 16.7698 2.62001 17.8998 3.84001C18.1798 4.14001 18.1598 4.62001 17.8598 4.90001C17.5598 5.18001 17.0798 5.16001 16.7998 4.86001C15.8698 3.86001 14.7098 3.18001 13.4298 2.90001C11.4798 2.48001 9.54982 2.93001 7.99982 4.18001C6.29982 5.55001 5.32982 7.63001 5.32982 9.90001C5.32982 10.83 5.53982 11.77 5.93982 12.7C6.10982 13.08 5.92982 13.52 5.54982 13.69C5.44982 13.73 5.34982 13.75 5.24982 13.75Z" fill="#232323"/>
<path d="M14.6101 19.75H9.4201C9.0301 19.75 8.4801 19.71 8.1101 19.33C7.7501 18.96 7.7601 18.49 7.7701 18.18V17.27C7.3701 16.99 6.9901 16.6699 6.6301 16.3099C6.3401 16.0199 6.3401 15.54 6.6301 15.25C6.9201 14.96 7.4001 14.96 7.6901 15.25C8.0801 15.63 8.4901 15.97 8.9201 16.25C9.1301 16.39 9.2701 16.6299 9.2701 16.8799V18.2199C9.2701 18.2299 9.2701 18.24 9.2701 18.25C9.3101 18.25 9.3601 18.25 9.4301 18.25H14.6201C14.6901 18.25 14.7401 18.25 14.7801 18.24C14.7801 18.2 14.7801 18.1599 14.7801 18.1299V16.87C14.7801 16.61 14.9101 16.38 15.1301 16.24C17.6001 14.66 19.5001 11.16 18.3601 7.52995C18.2401 7.12995 18.4601 6.70995 18.8501 6.58995C19.2401 6.45995 19.6701 6.68995 19.7901 7.07995C21.1001 11.26 19.0601 15.29 16.2801 17.27V18.04C16.2901 18.35 16.3001 18.8799 15.8901 19.2999C15.5801 19.5999 15.1601 19.75 14.6101 19.75Z" fill="#232323"/>
<path d="M15.4998 22.7499C15.4298 22.7499 15.3598 22.7399 15.2898 22.7199C13.1298 22.0999 10.8598 22.0999 8.69977 22.7199C8.29977 22.8299 7.88977 22.5999 7.76977 22.1999C7.64977 21.7999 7.88977 21.3899 8.28977 21.2699C10.7098 20.5799 13.2798 20.5799 15.6998 21.2699C16.0998 21.3799 16.3298 21.7999 16.2198 22.1999C16.1298 22.5399 15.8298 22.7499 15.4998 22.7499Z" fill="#232323"/>
</svg>
