<svg width="24" height="24" viewBox="0 0 24 24" fill="none" xmlns="http://www.w3.org/2000/svg">
<path d="M11.9999 13.8499C11.8699 13.8499 11.7399 13.8199 11.6299 13.7499C11.2699 13.5399 11.1499 13.0799 11.3499 12.7299L12.1999 11.2499H11.3599C10.8599 11.2499 10.4499 11.0299 10.2299 10.6599C10.0099 10.2799 10.0299 9.8199 10.2799 9.3799L11.3499 7.5199C11.5599 7.1599 12.0199 7.0399 12.3699 7.2399C12.7299 7.4499 12.8499 7.9099 12.6499 8.2599L11.7999 9.7499H12.6399C13.1399 9.7499 13.5499 9.9699 13.7699 10.3399C13.9899 10.7199 13.9699 11.1799 13.7199 11.6199L12.6499 13.4799C12.5099 13.7199 12.2599 13.8499 11.9999 13.8499Z" fill="#232323"/>
<path d="M14.7701 19.75H9.26012C8.82012 19.75 8.26012 19.7 7.89012 19.32C7.53012 18.95 7.54012 18.49 7.55012 18.18V17.29C5.03012 15.61 3.37012 12.69 3.37012 9.91005C3.37012 7.28005 4.55012 4.82005 6.60012 3.17005C8.65012 1.52005 11.3401 0.900047 13.9701 1.48005C16.4701 2.03005 18.6301 3.70005 19.7501 5.95005C21.9201 10.32 19.8301 15.05 16.4901 17.3V18.05C16.5001 18.34 16.5101 18.87 16.1001 19.29C15.7901 19.59 15.3501 19.75 14.7701 19.75ZM9.04012 18.24C9.09012 18.24 9.16012 18.25 9.25012 18.25H14.7701C14.8701 18.25 14.9401 18.24 14.9801 18.23C14.9801 18.2 14.9801 18.16 14.9801 18.13V16.87C14.9801 16.61 15.1201 16.36 15.3401 16.23C18.3001 14.44 20.2601 10.35 18.3901 6.60005C17.4701 4.75005 15.6901 3.38005 13.6301 2.93005C11.4501 2.45005 9.22012 2.96005 7.52012 4.33005C5.82012 5.70005 4.85012 7.73005 4.85012 9.91005C4.85012 12.69 6.77012 15.09 8.67012 16.24C8.90012 16.38 9.03012 16.62 9.03012 16.88V18.23C9.04012 18.23 9.04012 18.23 9.04012 18.24Z" fill="#232323"/>
<path d="M15.4998 22.7499C15.4298 22.7499 15.3598 22.7399 15.2898 22.7199C13.1298 22.0999 10.8598 22.0999 8.69977 22.7199C8.29977 22.8299 7.88977 22.5999 7.76977 22.1999C7.64977 21.7999 7.88977 21.3899 8.28977 21.2699C10.7098 20.5799 13.2798 20.5799 15.6998 21.2699C16.0998 21.3799 16.3298 21.7999 16.2198 22.1999C16.1298 22.5399 15.8298 22.7499 15.4998 22.7499Z" fill="#232323"/>
</svg>
