<svg width="25" height="24" viewBox="0 0 25 24" fill="none" xmlns="http://www.w3.org/2000/svg">
<path d="M16.5015 18.25H14.9915C14.5815 18.25 14.2415 17.91 14.2415 17.5C14.2415 17.09 14.5815 16.75 14.9915 16.75H16.5015C19.1215 16.75 21.2515 14.62 21.2515 12C21.2515 9.38 19.1215 7.25 16.5015 7.25H15.0015C14.5915 7.25 14.2515 6.91 14.2515 6.5C14.2515 6.09 14.5815 5.75 15.0015 5.75H16.5015C19.9515 5.75 22.7515 8.55 22.7515 12C22.7515 15.45 19.9515 18.25 16.5015 18.25Z" fill="#232323"/>
<path d="M9.00146 18.25H7.50146C4.05146 18.25 1.25146 15.45 1.25146 12C1.25146 8.55 4.05146 5.75 7.50146 5.75H9.00146C9.41146 5.75 9.75146 6.09 9.75146 6.5C9.75146 6.91 9.41146 7.25 9.00146 7.25H7.50146C4.88146 7.25 2.75146 9.38 2.75146 12C2.75146 14.62 4.88146 16.75 7.50146 16.75H9.00146C9.41146 16.75 9.75146 17.09 9.75146 17.5C9.75146 17.91 9.41146 18.25 9.00146 18.25Z" fill="#232323"/>
<path d="M16.0015 12.75H8.00146C7.59146 12.75 7.25146 12.41 7.25146 12C7.25146 11.59 7.59146 11.25 8.00146 11.25H16.0015C16.4115 11.25 16.7515 11.59 16.7515 12C16.7515 12.41 16.4115 12.75 16.0015 12.75Z" fill="#232323"/>
</svg>
