<svg width="25" height="24" viewBox="0 0 25 24" fill="none" xmlns="http://www.w3.org/2000/svg">
<path d="M8.9914 21.5C7.3314 21.5 5.6614 20.87 4.3914 19.6C1.8614 17.06 1.8614 12.94 4.3914 10.41C4.6814 10.12 5.1614 10.12 5.4514 10.41C5.7414 10.7 5.7414 11.18 5.4514 11.47C3.5014 13.42 3.5014 16.59 5.4514 18.54C7.4014 20.49 10.5714 20.49 12.5214 18.54C13.4614 17.6 13.9814 16.34 13.9814 15C13.9814 13.67 13.4614 12.41 12.5214 11.46C12.2314 11.17 12.2314 10.69 12.5214 10.4C12.8114 10.11 13.2914 10.11 13.5814 10.4C14.8114 11.63 15.4814 13.26 15.4814 15C15.4814 16.74 14.8014 18.37 13.5814 19.6C12.3214 20.87 10.6614 21.5 8.9914 21.5Z" fill="#232323"/>
<path d="M19.0715 14.16C18.8815 14.16 18.6915 14.09 18.5415 13.94C18.2515 13.65 18.2515 13.17 18.5415 12.88C20.5915 10.83 20.5915 7.49999 18.5415 5.45999C16.4915 3.40999 13.1615 3.40999 11.1215 5.45999C10.1315 6.44999 9.58154 7.76999 9.58154 9.16999C9.58154 10.57 10.1315 11.89 11.1215 12.88C11.4115 13.17 11.4115 13.65 11.1215 13.94C10.8315 14.23 10.3515 14.23 10.0615 13.94C8.79154 12.67 8.08154 10.97 8.08154 9.16999C8.08154 7.36999 8.78154 5.66999 10.0615 4.39999C12.6915 1.76999 16.9715 1.76999 19.6115 4.39999C22.2415 7.02999 22.2415 11.32 19.6115 13.95C19.4615 14.09 19.2615 14.16 19.0715 14.16Z" fill="#232323"/>
</svg>
