<svg width="24" height="24" viewBox="0 0 24 24" fill="none" xmlns="http://www.w3.org/2000/svg">
<path d="M12.0001 22.75C7.30006 22.75 3.18006 19.74 1.76006 15.27C1.69006 15.04 1.73006 14.8 1.87006 14.6C2.01006 14.41 2.23006 14.29 2.47006 14.29L6.26006 14.26V9C6.26006 8.68 6.46006 8.4 6.75006 8.29C7.05006 8.18 7.38006 8.27 7.58006 8.52L12.0001 13.83L16.4201 8.52C16.6201 8.28 16.9601 8.19 17.2501 8.29C17.5501 8.4 17.7401 8.68 17.7401 9V14.25H21.5301C21.7701 14.25 21.9901 14.36 22.1301 14.56C22.2701 14.75 22.3101 15 22.2401 15.23C20.8401 19.73 16.7101 22.75 12.0001 22.75ZM3.55006 15.78C5.03006 19.09 8.30006 21.25 12.0001 21.25C15.7101 21.25 18.9901 19.08 20.4601 15.75H17.0001C16.5901 15.75 16.2501 15.41 16.2501 15V11.07L12.5801 15.48C12.2901 15.82 11.7101 15.82 11.4301 15.48L7.76006 11.07V15C7.76006 15.41 7.43006 15.75 7.02006 15.75L3.55006 15.78Z" fill="#232323"/>
<path d="M2.47 15.79C2.14 15.79 1.85 15.58 1.75 15.26C1.42 14.19 1.25 13.09 1.25 12C1.25 6.07 6.07 1.25 12 1.25C17.93 1.25 22.75 6.07 22.75 12C22.75 13.1 22.58 14.19 22.26 15.23C22.16 15.54 21.87 15.75 21.54 15.75H17C16.59 15.75 16.25 15.41 16.25 15V11.07L12.58 15.48C12.29 15.82 11.71 15.82 11.43 15.48L7.76 11.07V15C7.76 15.41 7.43 15.75 7.02 15.75L2.47 15.79ZM12 2.75C6.9 2.75 2.75 6.9 2.75 12C2.75 12.76 2.85 13.53 3.04 14.29L6.25 14.26V9C6.25 8.68 6.45 8.4 6.74 8.29C7.04 8.18 7.37 8.27 7.57 8.52L12 13.83L16.42 8.52C16.62 8.28 16.96 8.19 17.25 8.29C17.55 8.4 17.74 8.68 17.74 9V14.25H20.96C21.14 13.52 21.24 12.76 21.24 12C21.25 6.9 17.1 2.75 12 2.75Z" fill="#232323"/>
</svg>
