<svg width="24" height="24" viewBox="0 0 24 24" fill="none" xmlns="http://www.w3.org/2000/svg">
<path d="M12.0001 10.07C10.4001 10.07 9.09009 8.76 9.09009 7.16C9.09009 5.56 10.4001 4.25 12.0001 4.25C13.6001 4.25 14.9101 5.56 14.9101 7.16C14.9101 8.76 13.6001 10.07 12.0001 10.07ZM12.0001 5.75C11.2201 5.75 10.5901 6.38 10.5901 7.16C10.5901 7.94 11.2201 8.57 12.0001 8.57C12.7801 8.57 13.4101 7.94 13.4101 7.16C13.4101 6.38 12.7801 5.75 12.0001 5.75Z" fill="#232323"/>
<path d="M6.78988 19.7499C5.18988 19.7499 3.87988 18.4399 3.87988 16.8399C3.87988 15.2399 5.18988 13.9299 6.78988 13.9299C8.38988 13.9299 9.69988 15.2399 9.69988 16.8399C9.69988 18.4399 8.38988 19.7499 6.78988 19.7499ZM6.78988 15.4299C6.00988 15.4299 5.37988 16.0599 5.37988 16.8399C5.37988 17.6199 6.00988 18.2499 6.78988 18.2499C7.56988 18.2499 8.19988 17.6199 8.19988 16.8399C8.19988 16.0599 7.55988 15.4299 6.78988 15.4299Z" fill="#232323"/>
<path d="M17.21 19.7499C15.61 19.7499 14.3 18.4399 14.3 16.8399C14.3 15.2399 15.61 13.9299 17.21 13.9299C18.81 13.9299 20.12 15.2399 20.12 16.8399C20.12 18.4399 18.82 19.7499 17.21 19.7499ZM17.21 15.4299C16.43 15.4299 15.8 16.0599 15.8 16.8399C15.8 17.6199 16.43 18.2499 17.21 18.2499C17.99 18.2499 18.62 17.6199 18.62 16.8399C18.62 16.0599 17.99 15.4299 17.21 15.4299Z" fill="#232323"/>
</svg>
