<svg width="24" height="24" viewBox="0 0 24 24" fill="none" xmlns="http://www.w3.org/2000/svg">
<path d="M6.27991 22.75C4.14991 22.75 2.40991 21.01 2.40991 18.88C2.40991 16.75 4.14991 15.01 6.27991 15.01C8.40991 15.01 10.1499 16.75 10.1499 18.88C10.1499 21.01 8.40991 22.75 6.27991 22.75ZM6.27991 16.51C4.96991 16.51 3.90991 17.57 3.90991 18.88C3.90991 20.19 4.96991 21.25 6.27991 21.25C7.58991 21.25 8.64991 20.19 8.64991 18.88C8.64991 17.57 7.58991 16.51 6.27991 16.51Z" fill="#232323"/>
<path d="M9.3999 19.63C8.9899 19.63 8.6499 19.29 8.6499 18.88V6.30001C8.6499 4.72001 9.5999 3.48001 11.1199 3.07001L17.3599 1.37001C18.6299 1.02001 19.6999 1.15001 20.4499 1.73001C21.2099 2.31001 21.5899 3.28001 21.5899 4.61001V16.81C21.5899 17.22 21.2499 17.56 20.8399 17.56C20.4299 17.56 20.0899 17.22 20.0899 16.81V4.60001C20.0899 4.02001 19.9899 3.26001 19.5399 2.92001C19.0499 2.54001 18.2099 2.69001 17.7499 2.82001L11.5099 4.52001C10.6399 4.76001 10.1499 5.41001 10.1499 6.31001V18.89C10.1499 19.29 9.8099 19.63 9.3999 19.63Z" fill="#232323"/>
<path d="M17.7201 20.67C15.5901 20.67 13.8501 18.93 13.8501 16.8C13.8501 14.67 15.5901 12.93 17.7201 12.93C19.8501 12.93 21.5901 14.67 21.5901 16.8C21.5901 18.93 19.8501 20.67 17.7201 20.67ZM17.7201 14.43C16.4101 14.43 15.3501 15.49 15.3501 16.8C15.3501 18.11 16.4101 19.17 17.7201 19.17C19.0301 19.17 20.0901 18.11 20.0901 16.8C20.0901 15.49 19.0301 14.43 17.7201 14.43Z" fill="#232323"/>
<path d="M9.40005 10.27C9.07005 10.27 8.77005 10.05 8.68005 9.72C8.57005 9.32 8.80005 8.9 9.20005 8.79L20.64 5.67C21.04 5.56 21.45 5.8 21.56 6.2C21.67 6.6 21.43 7.01 21.03 7.12L9.60005 10.24C9.53005 10.26 9.46005 10.27 9.40005 10.27Z" fill="#232323"/>
</svg>
