<svg width="24" height="24" viewBox="0 0 24 24" fill="none" xmlns="http://www.w3.org/2000/svg">
<path d="M12.03 22.85L11.66 22.67C11.56 22.62 1.23999 17.32 1.23999 5V4.58L1.59998 4.36C1.69998 4.3 12.11 -1.8 22.37 4.36L22.73 4.58V5C22.73 5.47 22.61 16.5 12.37 22.64L12.03 22.85ZM2.75 5.44C2.96 15.28 10.27 20.13 11.98 21.13C20.06 16.05 21.1 7.42 21.23 5.42C12.92 0.699999 4.59 4.49 2.75 5.44Z" fill="#232323"/>
<path d="M7.09984 13.21C6.75984 13.21 6.41987 13.17 6.06987 13.09C3.98987 12.6 2.41987 10.65 1.37987 7.29C1.25987 6.89 1.47987 6.47 1.87987 6.35C2.27987 6.23 2.69987 6.45 2.81987 6.85C3.68987 9.66 4.89985 11.27 6.41985 11.63C8.22985 12.05 10.2899 10.58 11.1999 9.73C10.3799 3.44 15.8598 2.21 15.9198 2.2L16.5199 2.08C16.9199 2 17.3199 2.27 17.3999 2.67C17.4799 3.07 17.2099 3.47 16.8099 3.55L16.2198 3.66C16.0598 3.7 11.8799 4.67 12.7399 9.86C12.7799 10.09 12.7098 10.33 12.5398 10.5C12.4298 10.64 9.94984 13.21 7.09984 13.21Z" fill="#232323"/>
<path d="M16.3501 19.26C16.2401 19.26 16.1301 19.24 16.0301 19.19C15.6601 19.01 15.5001 18.57 15.6801 18.19C15.6901 18.17 16.5401 16.33 15.7901 14.36C15.2101 12.84 13.8401 11.61 11.7101 10.69C11.3301 10.53 11.1501 10.09 11.3201 9.71C11.4901 9.33 11.9201 9.15 12.3101 9.32C14.8401 10.4 16.4801 11.93 17.2101 13.86C18.1801 16.44 17.0901 18.75 17.0401 18.85C16.9001 19.1 16.6301 19.26 16.3501 19.26Z" fill="#232323"/>
</svg>
