<svg width="24" height="24" viewBox="0 0 24 24" fill="none" xmlns="http://www.w3.org/2000/svg">
<path d="M19 8.75C16.93 8.75 15.25 7.07 15.25 5C15.25 2.93 16.93 1.25 19 1.25C21.07 1.25 22.75 2.93 22.75 5C22.75 7.07 21.07 8.75 19 8.75ZM19 2.75C17.76 2.75 16.75 3.76 16.75 5C16.75 6.24 17.76 7.25 19 7.25C20.24 7.25 21.25 6.24 21.25 5C21.25 3.76 20.24 2.75 19 2.75Z" fill="#232323"/>
<path d="M15 22.75H9C3.57 22.75 1.25 20.43 1.25 15V9C1.25 3.57 3.57 1.25 9 1.25H14C14.41 1.25 14.75 1.59 14.75 2C14.75 2.41 14.41 2.75 14 2.75H9C4.39 2.75 2.75 4.39 2.75 9V15C2.75 19.61 4.39 21.25 9 21.25H15C19.61 21.25 21.25 19.61 21.25 15V10C21.25 9.59 21.59 9.25 22 9.25C22.41 9.25 22.75 9.59 22.75 10V15C22.75 20.43 20.43 22.75 15 22.75Z" fill="#232323"/>
<path d="M9.80993 18.33C8.88993 18.33 6.74993 17.21 6.08993 15.15C5.63993 13.74 6.15993 11.89 7.78993 11.36C8.48993 11.13 9.21993 11.24 9.79993 11.61C10.3699 11.24 11.1199 11.13 11.8199 11.36C13.4499 11.89 13.9799 13.74 13.5199 15.15C12.8699 17.25 10.6299 18.33 9.80993 18.33ZM7.51993 14.7C7.97993 16.15 9.53993 16.81 9.81993 16.84C10.1399 16.81 11.6699 16.07 12.0899 14.71C12.3199 13.98 12.0899 13.04 11.3599 12.8C11.0499 12.7 10.6299 12.76 10.4299 13.05C10.2899 13.26 10.0699 13.38 9.81993 13.39C9.57993 13.39 9.33993 13.28 9.19993 13.08C8.95993 12.75 8.53993 12.7 8.24993 12.8C7.52993 13.03 7.28993 13.97 7.51993 14.7Z" fill="#232323"/>
</svg>
