<svg width="24" height="24" viewBox="0 0 24 24" fill="none" xmlns="http://www.w3.org/2000/svg">
<path d="M11.7 22.75C11.6 22.75 11.51 22.75 11.41 22.75C5.92997 22.6 1.47998 17.88 1.47998 12.24V5.21001C1.47998 4.70001 1.77997 4.25 2.24997 4.06C2.71997 3.87 3.24995 3.97001 3.60995 4.33001L18.44 19.16C18.59 19.31 18.67 19.51 18.66 19.72C18.65 19.93 18.56 20.12 18.4 20.26C16.54 21.87 14.17 22.75 11.7 22.75ZM2.97998 5.81V12.24C2.97998 17.08 6.77998 21.12 11.45 21.25C13.38 21.29 15.25 20.73 16.78 19.62L2.97998 5.81Z" fill="#232323"/>
<path d="M21.2701 19.9C20.9501 19.9 20.6301 19.77 20.3901 19.53L5.69008 4.83C5.54008 4.68 5.46008 4.48001 5.47008 4.27001C5.48008 4.06001 5.57008 3.87 5.73008 3.73C7.64008 2.06 10.1101 1.17 12.6701 1.25C18.1001 1.4 22.5201 6.08 22.5201 11.68V18.64C22.5201 19.15 22.2201 19.6 21.7501 19.79C21.6001 19.86 21.4401 19.9 21.2701 19.9ZM7.35008 4.37L21.0301 18.05V11.69C21.0301 6.90001 17.2601 2.89 12.6301 2.76C10.7201 2.72 8.87008 3.27 7.35008 4.37Z" fill="#232323"/>
</svg>
