<svg width="25" height="24" viewBox="0 0 25 24" fill="none" xmlns="http://www.w3.org/2000/svg">
<path d="M10.9714 22.75C7.25144 22.75 4.22144 19.72 4.22144 16V10C4.22144 5.73 7.70144 2.25 11.9714 2.25C16.2414 2.25 19.7214 5.73 19.7214 10V15.5C19.7214 17.84 17.8114 19.75 15.4714 19.75C13.1314 19.75 11.2214 17.84 11.2214 15.5V12C11.2214 11.59 11.5614 11.25 11.9714 11.25C12.3814 11.25 12.7214 11.59 12.7214 12V15.5C12.7214 17.02 13.9514 18.25 15.4714 18.25C16.9914 18.25 18.2214 17.02 18.2214 15.5V10C18.2214 6.55 15.4214 3.75 11.9714 3.75C8.52144 3.75 5.72144 6.55 5.72144 10V16C5.72144 18.89 8.07144 21.25 10.9714 21.25C11.3814 21.25 11.7214 21.59 11.7214 22C11.7214 22.41 11.3914 22.75 10.9714 22.75Z" fill="#232323"/>
</svg>
