<svg width="24" height="24" viewBox="0 0 24 24" fill="none" xmlns="http://www.w3.org/2000/svg">
<path d="M16.98 13.1999C16.79 13.1999 16.59 13.1199 16.45 12.9799L11.05 7.56994C10.8 7.31994 10.76 6.93994 10.95 6.63994L12.64 3.96994C13.11 3.22994 13.82 2.76994 14.65 2.67994C15.58 2.58994 16.54 2.94994 17.29 3.69994L20.32 6.72994C21.04 7.44994 21.4 8.41994 21.29 9.37994C21.2 10.2199 20.75 10.9499 20.05 11.3899L17.38 13.0799C17.26 13.1599 17.12 13.1999 16.98 13.1999ZM12.53 6.93994L17.09 11.4999L19.26 10.1299C19.57 9.92994 19.77 9.60994 19.81 9.21994C19.87 8.71994 19.66 8.18994 19.27 7.79994L16.24 4.76994C15.81 4.33994 15.29 4.10994 14.82 4.17994C14.44 4.21994 14.13 4.42994 13.91 4.77994L12.53 6.93994Z" fill="#232323"/>
<path d="M5.89001 21.34C5.00001 21.34 4.20001 21.02 3.60001 20.43C2.90001 19.73 2.59001 18.76 2.72001 17.68L3.70001 9.35003C4.00001 6.83003 5.11001 5.91003 7.70001 6.06003L11.62 6.29003C12.03 6.32003 12.35 6.67003 12.32 7.08003C12.29 7.49003 11.94 7.81003 11.53 7.78003L7.61001 7.56003C5.83001 7.45003 5.39001 7.80003 5.19001 9.53003L4.21001 17.85C4.14001 18.46 4.30001 19 4.66001 19.36C5.03001 19.72 5.57001 19.89 6.18001 19.81L14.5 18.83C16.25 18.62 16.64 18.16 16.47 16.44L16.23 12.49C16.21 12.08 16.52 11.72 16.93 11.7C17.34 11.67 17.7 11.99 17.72 12.4L17.95 16.32C18.19 18.81 17.21 20.01 14.66 20.32L6.34001 21.3C6.20001 21.33 6.04001 21.34 5.89001 21.34Z" fill="#232323"/>
<path d="M4.61005 20.1699C4.42005 20.1699 4.23005 20.0999 4.08005 19.9499C3.79005 19.6599 3.79005 19.1799 4.08005 18.8899L7.12005 15.8499C7.41005 15.5599 7.89005 15.5599 8.18005 15.8499C8.47005 16.1399 8.47005 16.6199 8.18005 16.9099L5.14005 19.9499C4.99005 20.0999 4.80005 20.1699 4.61005 20.1699Z" fill="#232323"/>
</svg>
