<svg width="24" height="24" viewBox="0 0 24 24" fill="none" xmlns="http://www.w3.org/2000/svg">
<path d="M7.49998 15.45C7.36998 15.45 7.23998 15.42 7.11998 15.35L2.61998 12.75C2.38998 12.62 2.23999 12.37 2.23999 12.1V6.9C2.23999 6.63 2.37998 6.38 2.61998 6.25L7.11998 3.65C7.34998 3.52 7.63998 3.52 7.86998 3.65L12.37 6.25C12.6 6.38 12.75 6.63 12.75 6.9V8.47C12.75 8.88 12.41 9.22 12 9.22C11.59 9.22 11.25 8.88 11.25 8.47V7.33L7.49998 5.16L3.74998 7.33V11.66L7.49998 13.83L11.62 11.45C11.98 11.24 12.44 11.37 12.64 11.72C12.85 12.08 12.72 12.54 12.37 12.74L7.86998 15.34C7.75998 15.41 7.62998 15.45 7.49998 15.45Z" fill="#232323"/>
<path d="M16.5 20.64C16.37 20.64 16.24 20.61 16.12 20.54L11.62 17.94C11.39 17.81 11.24 17.56 11.24 17.29V15.64C11.24 15.23 11.58 14.89 11.99 14.89C12.4 14.89 12.74 15.23 12.74 15.64V16.86L16.49 19.03L20.24 16.86V12.53L16.49 10.36L12.37 12.74C12.01 12.95 11.55 12.82 11.35 12.47C11.14 12.11 11.27 11.65 11.62 11.45L16.12 8.84999C16.35 8.71999 16.64 8.71999 16.87 8.84999L21.37 11.45C21.6 11.58 21.75 11.83 21.75 12.1V17.3C21.75 17.57 21.61 17.82 21.37 17.95L16.87 20.55C16.76 20.61 16.63 20.64 16.5 20.64Z" fill="#232323"/>
</svg>
