<svg width="24" height="24" viewBox="0 0 24 24" fill="none" xmlns="http://www.w3.org/2000/svg">
<path d="M11.5 21.75C5.85 21.75 1.25 17.15 1.25 11.5C1.25 5.85 5.85 1.25 11.5 1.25C11.91 1.25 12.25 1.59 12.25 2C12.25 2.41 11.91 2.75 11.5 2.75C6.67 2.75 2.75 6.68 2.75 11.5C2.75 16.32 6.67 20.25 11.5 20.25C16.33 20.25 20.25 16.32 20.25 11.5C20.25 11.09 20.59 10.75 21 10.75C21.41 10.75 21.75 11.09 21.75 11.5C21.75 17.15 17.15 21.75 11.5 21.75Z" fill="#232323"/>
<path d="M21.9999 22.7499C21.8099 22.7499 21.6199 22.6799 21.4699 22.5299L19.4699 20.5299C19.1799 20.2399 19.1799 19.7599 19.4699 19.4699C19.7599 19.1799 20.2399 19.1799 20.5299 19.4699L22.5299 21.4699C22.8199 21.7599 22.8199 22.2399 22.5299 22.5299C22.3799 22.6799 22.1899 22.7499 21.9999 22.7499Z" fill="#232323"/>
<path d="M17.5001 9.53994C16.5801 9.53994 14.4401 8.41994 13.7801 6.35994C13.3301 4.94994 13.8501 3.09994 15.4801 2.56994C16.1801 2.33994 16.9101 2.44994 17.4901 2.81994C18.0601 2.44994 18.8101 2.34994 19.5101 2.56994C21.1401 3.09994 21.6701 4.94994 21.2101 6.35994C20.5601 8.45994 18.3101 9.53994 17.5001 9.53994ZM15.2101 5.90994C15.6701 7.35994 17.2301 8.01994 17.5101 8.04994C17.8301 8.01994 19.3601 7.27994 19.7801 5.91994C20.0101 5.18994 19.7801 4.24994 19.0501 4.00994C18.7401 3.90994 18.3201 3.96994 18.1201 4.25994C17.9801 4.46994 17.7601 4.58994 17.5101 4.59994C17.2901 4.60994 17.0301 4.48994 16.8901 4.28994C16.6601 3.95994 16.2401 3.90994 15.9401 3.99994C15.2201 4.23994 14.9801 5.17994 15.2101 5.90994Z" fill="#232323"/>
</svg>
