<svg width="24" height="24" viewBox="0 0 24 24" fill="none" xmlns="http://www.w3.org/2000/svg">
<path d="M11 20.75C5.62 20.75 1.25 16.38 1.25 11C1.25 5.62 5.62 1.25 11 1.25C11.41 1.25 11.75 1.59 11.75 2C11.75 2.41 11.41 2.75 11 2.75C6.45 2.75 2.75 6.45 2.75 11C2.75 15.55 6.45 19.25 11 19.25C15.55 19.25 19.25 15.55 19.25 11C19.25 10.59 19.59 10.25 20 10.25C20.41 10.25 20.75 10.59 20.75 11C20.75 16.38 16.38 20.75 11 20.75Z" fill="#232323"/>
<path d="M16.5 9.53994C15.58 9.53994 13.44 8.41994 12.78 6.35994C12.33 4.94994 12.85 3.09994 14.48 2.56994C15.18 2.33994 15.91 2.44994 16.49 2.81994C17.06 2.44994 17.81 2.34994 18.51 2.56994C20.14 3.09994 20.67 4.94994 20.21 6.35994C19.56 8.45994 17.31 9.53994 16.5 9.53994ZM14.21 5.90994C14.67 7.35994 16.23 8.01994 16.51 8.04994C16.83 8.01994 18.36 7.27994 18.78 5.91994C19.01 5.18994 18.78 4.24994 18.05 4.00994C17.74 3.90994 17.32 3.96994 17.12 4.25994C16.98 4.46994 16.76 4.58994 16.51 4.59994C16.28 4.60994 16.03 4.48994 15.89 4.28994C15.66 3.95994 15.24 3.90994 14.94 3.99994C14.22 4.23994 13.98 5.17994 14.21 5.90994Z" fill="#232323"/>
<path d="M20.1601 22.79C20.0801 22.79 20.0001 22.78 19.9301 22.77C19.4601 22.71 18.6101 22.39 18.1301 20.96C17.8801 20.21 17.9701 19.46 18.3801 18.89C18.7901 18.32 19.4801 18 20.2701 18C21.2901 18 22.0901 18.39 22.4501 19.08C22.8101 19.77 22.7101 20.65 22.1401 21.5C21.4301 22.57 20.6601 22.79 20.1601 22.79ZM19.5601 20.49C19.7301 21.01 19.9701 21.27 20.1301 21.29C20.2901 21.31 20.5901 21.12 20.9001 20.67C21.1901 20.24 21.2101 19.93 21.1401 19.79C21.0701 19.65 20.7901 19.5 20.2701 19.5C19.9601 19.5 19.7301 19.6 19.6001 19.77C19.4801 19.94 19.4601 20.2 19.5601 20.49Z" fill="#232323"/>
</svg>
