<svg width="24" height="24" viewBox="0 0 24 24" fill="none" xmlns="http://www.w3.org/2000/svg">
<path fill-rule="evenodd" clip-rule="evenodd" d="M12 1.25C12.1017 1.25 12.1987 1.27024 12.2871 1.30691C12.3755 1.34351 12.4584 1.39776 12.5303 1.46967L16.5303 5.46967C16.8232 5.76256 16.8232 6.23744 16.5303 6.53033C16.2374 6.82322 15.7626 6.82322 15.4697 6.53033L12.75 3.81066V15C12.75 15.4142 12.4142 15.75 12 15.75C11.5858 15.75 11.25 15.4142 11.25 15V3.81066L8.53033 6.53033C8.23744 6.82322 7.76256 6.82322 7.46967 6.53033C7.17678 6.23744 7.17678 5.76256 7.46967 5.46967L11.4697 1.46967C11.5416 1.39776 11.6245 1.34351 11.7129 1.30691C11.8013 1.27024 11.8983 1.25 12 1.25ZM4.75 12C4.75 11.5858 4.41421 11.25 4 11.25C3.58579 11.25 3.25 11.5858 3.25 12V20C3.25 20.7293 3.53973 21.4288 4.05546 21.9445C4.57118 22.4603 5.27065 22.75 6 22.75H18C18.7293 22.75 19.4288 22.4603 19.9445 21.9445C20.4603 21.4288 20.75 20.7293 20.75 20V12C20.75 11.5858 20.4142 11.25 20 11.25C19.5858 11.25 19.25 11.5858 19.25 12V20C19.25 20.3315 19.1183 20.6495 18.8839 20.8839C18.6495 21.1183 18.3315 21.25 18 21.25H6C5.66848 21.25 5.35054 21.1183 5.11612 20.8839C4.8817 20.6495 4.75 20.3315 4.75 20V12Z" fill="#232323"/>
</svg>
