<svg width="24" height="24" viewBox="0 0 24 24" fill="none" xmlns="http://www.w3.org/2000/svg">
<path d="M18.61 6.68001C18.2 6.68001 17.86 6.34001 17.86 5.93001V4.42001C17.86 3.82001 17.37 3.32001 16.76 3.32001H3.82999C3.22999 3.32001 2.72999 3.81001 2.72999 4.42001V5.93001C2.72999 6.34001 2.38999 6.68001 1.97999 6.68001C1.56999 6.68001 1.23999 6.34001 1.23999 5.93001V4.42001C1.23999 2.99001 2.40999 1.82001 3.83999 1.82001H16.76C18.19 1.82001 19.36 2.98001 19.36 4.42001V5.93001C19.36 6.34001 19.02 6.68001 18.61 6.68001Z" fill="#232323"/>
<path d="M10.3 18.85C9.89005 18.85 9.55005 18.51 9.55005 18.1V3.32001C9.55005 2.91001 9.89005 2.57001 10.3 2.57001C10.71 2.57001 11.05 2.91001 11.05 3.32001V18.1C11.05 18.52 10.71 18.85 10.3 18.85Z" fill="#232323"/>
<path d="M12.48 18.85H6.90002C6.49002 18.85 6.15002 18.51 6.15002 18.1C6.15002 17.69 6.49002 17.35 6.90002 17.35H12.48C12.89 17.35 13.23 17.69 13.23 18.1C13.23 18.51 12.89 18.85 12.48 18.85Z" fill="#232323"/>
<path d="M22.0101 13.2C21.6001 13.2 21.2601 12.86 21.2601 12.45V11.65C21.2601 11.34 21.0001 11.08 20.6901 11.08H13.6801C13.2701 11.08 12.9301 10.74 12.9301 10.33C12.9301 9.92002 13.2701 9.58002 13.6801 9.58002H20.6901C21.8301 9.58002 22.7601 10.51 22.7601 11.65V12.45C22.7601 12.87 22.4301 13.2 22.0101 13.2Z" fill="#232323"/>
<path d="M16.08 22.18C15.67 22.18 15.33 21.84 15.33 21.43V10.87C15.33 10.46 15.67 10.12 16.08 10.12C16.49 10.12 16.83 10.46 16.83 10.87V21.43C16.83 21.84 16.49 22.18 16.08 22.18Z" fill="#232323"/>
<path d="M18.2199 22.18H13.9399C13.5299 22.18 13.1899 21.84 13.1899 21.43C13.1899 21.02 13.5299 20.68 13.9399 20.68H18.2199C18.6299 20.68 18.9699 21.02 18.9699 21.43C18.9699 21.84 18.6299 22.18 18.2199 22.18Z" fill="#232323"/>
</svg>
