<svg width="24" height="24" viewBox="0 0 24 24" fill="none" xmlns="http://www.w3.org/2000/svg">
<path d="M17.4098 22.35C16.8798 22.35 16.1998 22.18 15.3498 21.68L12.3598 19.91C12.0598 19.73 11.4498 19.73 11.1398 19.91L8.15981 21.68C6.38981 22.73 5.34981 22.31 4.87981 21.97C4.40981 21.63 3.69981 20.76 4.16981 18.76L4.87981 15.69C4.94981 15.37 4.79981 14.81 4.55981 14.58L2.07981 12.1C0.829807 10.87 0.929807 9.81 1.09981 9.28C1.26981 8.75 1.80981 7.84 3.52981 7.55L6.71981 7.02C7.00981 6.97 7.44981 6.65 7.57981 6.38L9.33981 2.85C10.1498 1.24 11.1898 1 11.7498 1C12.2998 1 13.3498 1.24 14.1498 2.85L15.9098 6.37C16.0498 6.65 16.4798 6.96 16.7798 7.02L19.9698 7.55C21.6998 7.84 22.2398 8.76 22.3998 9.29C22.5698 9.81 22.6598 10.87 21.4198 12.11L18.9398 14.59C18.7098 14.82 18.5498 15.38 18.6198 15.7L19.3298 18.77C19.7898 20.77 19.0798 21.64 18.6198 21.98C18.3798 22.16 17.9798 22.35 17.3998 22.35H17.4098ZM11.7498 18.27C12.2398 18.27 12.7298 18.39 13.1198 18.61L16.1098 20.38C16.9898 20.9 17.5398 20.91 17.7398 20.76C17.9398 20.61 18.0998 20.09 17.8698 19.1L17.1598 16.03C16.9698 15.2 17.2798 14.12 17.8798 13.52L20.3598 11.04C20.8498 10.56 21.0698 10.07 20.9698 9.74C20.8598 9.41 20.3998 9.14 19.7198 9.03L16.5298 8.5C15.7498 8.37 14.8998 7.74 14.5598 7.04L12.7998 3.53C12.4798 2.89 12.0898 2.51 11.7398 2.51C11.3898 2.51 10.9898 2.89 10.6698 3.53L8.90981 7.05C8.56981 7.75 7.72981 8.37 6.94981 8.5L3.75981 9.03C3.08981 9.14 2.61981 9.41 2.50981 9.74C2.39981 10.07 2.62981 10.56 3.10981 11.04L5.58981 13.52C6.18981 14.12 6.49981 15.19 6.30981 16.02L5.59981 19.1C5.36981 20.08 5.52981 20.61 5.73981 20.76C5.94981 20.91 6.49981 20.91 7.36981 20.39L10.3598 18.62C10.7598 18.39 11.2498 18.28 11.7398 18.28L11.7498 18.27Z" fill="#F88700"/>
<path d="M11.7499 19.02C11.3899 19.02 11.0299 19.1 10.7599 19.26L7.76991 21.03C5.62991 22.3 4.32991 21.35 4.88991 18.93L5.59991 15.86C5.72991 15.28 5.49991 14.47 5.07991 14.05L2.59991 11.57C1.13991 10.11 1.60991 8.63001 3.64991 8.29001L6.83991 7.76001C7.36991 7.67001 8.00991 7.20001 8.24991 6.71001L10.0099 3.19001C10.4899 2.24001 11.1199 1.76001 11.7499 1.76001" fill="#F88700"/>
</svg>
