<svg width="24" height="24" viewBox="0 0 24 24" fill="none" xmlns="http://www.w3.org/2000/svg">
<path d="M5.28012 19.4C5.22012 19.4 5.17012 19.39 5.11012 19.38C4.71012 19.29 4.45012 18.88 4.55012 18.48L5.12012 16.02C5.20012 15.7 5.04012 15.15 4.80012 14.91L2.32012 12.43C1.08012 11.19 1.18012 10.13 1.35012 9.61002C1.52012 9.09002 2.06012 8.17002 3.78012 7.88002L6.97012 7.35002C7.27012 7.29002 7.70012 6.97002 7.83012 6.70002L9.60012 3.17002C10.4001 1.56002 11.4501 1.33002 12.0001 1.33002C12.5501 1.33002 13.6001 1.57002 14.4001 3.17002L16.1601 6.69002C16.2201 6.81002 16.3501 6.95002 16.5001 7.07002C16.8301 7.32002 16.8901 7.80002 16.6301 8.12002C16.3801 8.45002 15.9101 8.51002 15.5801 8.25002C15.3401 8.07002 15.0201 7.76002 14.8201 7.36002L13.0601 3.84002C12.7501 3.21002 12.3501 2.83002 12.0001 2.83002C11.6501 2.83002 11.2501 3.21002 10.9401 3.85002L9.17012 7.37002C8.82012 8.07002 7.98012 8.69002 7.21012 8.82002L4.03012 9.35002C3.35012 9.46002 2.89012 9.73002 2.78012 10.06C2.67012 10.39 2.90012 10.88 3.39012 11.36L5.87012 13.84C6.47012 14.44 6.78012 15.52 6.59012 16.35L6.02012 18.81C5.93012 19.16 5.63012 19.4 5.28012 19.4Z" fill="#232323"/>
<path d="M17.6598 22.67C17.1298 22.67 16.4498 22.5 15.5998 22L12.6098 20.23C12.2998 20.05 11.6998 20.05 11.3998 20.23L8.39982 22C8.04982 22.21 7.57982 22.09 7.36982 21.74C7.15982 21.38 7.27982 20.92 7.62982 20.71L10.6198 18.94C11.3998 18.48 12.5798 18.48 13.3598 18.94L16.3498 20.71C17.2198 21.23 17.7698 21.23 17.9798 21.08C18.1898 20.93 18.3398 20.4 18.1198 19.42L17.4098 16.35C17.2198 15.52 17.5298 14.45 18.1298 13.84L20.6098 11.36C21.0998 10.87 21.3198 10.39 21.2198 10.06C21.1098 9.73003 20.6498 9.46003 19.9698 9.35003C19.5598 9.28003 19.2898 8.90002 19.3498 8.49002C19.4198 8.08002 19.7998 7.81002 20.2098 7.87002C21.9398 8.16002 22.4798 9.08003 22.6398 9.60003C22.7998 10.12 22.8998 11.18 21.6698 12.42L19.1998 14.9C18.9598 15.14 18.8098 15.68 18.8798 16.01L19.5898 19.08C20.0498 21.08 19.3398 21.95 18.8798 22.29C18.6298 22.47 18.2298 22.67 17.6598 22.67Z" fill="#232323"/>
<path d="M1.99994 22.75C1.80994 22.75 1.61994 22.68 1.46994 22.53C1.17994 22.24 1.17994 21.76 1.46994 21.47L21.4699 1.47C21.7599 1.18 22.2399 1.18 22.5299 1.47C22.8199 1.76 22.8199 2.24 22.5299 2.53L2.52994 22.53C2.37994 22.68 2.18994 22.75 1.99994 22.75Z" fill="#232323"/>
</svg>
