<svg width="24" height="24" viewBox="0 0 24 24" fill="none" xmlns="http://www.w3.org/2000/svg">
<path d="M13.7299 3.51001L15.4899 7.03001C15.7299 7.52002 16.3699 7.99001 16.9099 8.08001L20.0999 8.61001C22.1399 8.95001 22.6199 10.43 21.1499 11.89L18.6699 14.37C18.2499 14.79 18.0199 15.6 18.1499 16.18L18.8599 19.25C19.4199 21.68 18.1299 22.62 15.9799 21.35L12.9899 19.58C12.4499 19.26 11.5599 19.26 11.0099 19.58L8.01991 21.35C5.87991 22.62 4.57991 21.67 5.13991 19.25L5.84991 16.18C5.97991 15.6 5.74991 14.79 5.32991 14.37L2.84991 11.89C1.38991 10.43 1.85991 8.95001 3.89991 8.61001L7.08991 8.08001C7.61991 7.99001 8.25991 7.52002 8.49991 7.03001L10.2599 3.51001C11.2199 1.60001 12.7799 1.60001 13.7299 3.51001Z" fill="#F88700"/>
<path fill-rule="evenodd" clip-rule="evenodd" d="M10.9301 3.84683C10.93 3.84702 10.9302 3.84664 10.9301 3.84683L9.17203 7.36294C8.98469 7.74378 8.67178 8.0692 8.35042 8.30747C8.02813 8.54644 7.62764 8.74945 7.21553 8.81943L7.21289 8.81988L4.02327 9.34981C4.02314 9.34983 4.02339 9.34979 4.02327 9.34981C3.13367 9.49816 2.84387 9.84851 2.77693 10.0582C2.70974 10.2685 2.7433 10.7227 3.3803 11.3597L5.8603 13.8397C6.18269 14.1621 6.39834 14.5932 6.51726 15.0086C6.63627 15.4244 6.68078 15.9025 6.58181 16.344L6.5807 16.349L5.87068 19.419C5.60626 20.5617 5.87372 20.9788 6.00954 21.0779C6.14596 21.1774 6.62632 21.305 7.6372 20.705L10.6328 18.9317C11.0487 18.6897 11.5468 18.59 12.0037 18.59C12.4598 18.59 12.9581 18.6894 13.372 18.9346C13.3721 18.9347 13.3719 18.9346 13.372 18.9346L16.3614 20.7043C16.3616 20.7044 16.3612 20.7041 16.3614 20.7043C17.3805 21.3061 17.8604 21.1791 17.9944 21.0815C18.1271 20.9847 18.3945 20.5702 18.1291 19.4184L17.4181 16.3441C17.3191 15.9025 17.3637 15.4244 17.4827 15.0086C17.6016 14.5932 17.8172 14.1621 18.1396 13.8397L20.6196 11.3597L20.6215 11.3579C21.2626 10.721 21.2942 10.2681 21.2272 10.0595C21.1596 9.84925 20.8674 9.49835 19.977 9.34987C19.9769 9.34985 19.9772 9.34989 19.977 9.34987L16.787 8.81987C16.3707 8.75048 15.9671 8.54824 15.6422 8.30851C15.3186 8.06977 15.0054 7.74405 14.8179 7.363L13.0584 3.84402C12.6377 2.998 12.21 2.82751 11.9987 2.82751C11.7861 2.82751 11.3558 3.00015 10.9301 3.84683ZM14.4012 3.17535C13.8719 2.11171 13.0447 1.32751 11.9987 1.32751C10.9539 1.32751 10.1241 2.11037 9.58985 3.1732L7.82915 6.6946L7.82642 6.70011C7.77359 6.80797 7.64731 6.96146 7.45702 7.10256C7.26737 7.24317 7.0834 7.32012 6.96547 7.34042C6.96511 7.34048 6.96476 7.34054 6.96441 7.3406L3.77705 7.87016C2.62694 8.06184 1.66106 8.62155 1.34801 9.60187C1.03519 10.5815 1.49663 11.5973 2.31964 12.4203L4.79964 14.9003C4.89724 14.998 5.0066 15.1818 5.07518 15.4214C5.14334 15.6595 5.1491 15.8755 5.11856 16.014C5.11842 16.0147 5.11827 16.0153 5.11813 16.016L4.40928 19.0809C4.40928 19.0809 4.40927 19.081 4.40928 19.0809C4.11373 20.3582 4.21624 21.6263 5.12539 22.2896C6.03398 22.9526 7.27361 22.6651 8.40273 21.995L11.3871 20.2283C11.3878 20.2279 11.3884 20.2276 11.389 20.2272C11.5232 20.1497 11.7443 20.09 12.0037 20.09C12.265 20.09 12.4816 20.1505 12.6076 20.2252L15.5979 21.9954C16.7284 22.6632 17.9695 22.9559 18.878 22.2936C19.7878 21.6303 19.8854 20.3599 19.5908 19.0816L18.8818 16.016C18.8817 16.0153 18.8815 16.0147 18.8814 16.014C18.8508 15.8755 18.8566 15.6595 18.9248 15.4214C18.9933 15.1818 19.1027 14.998 19.2003 14.9003L21.6785 12.4222C21.6788 12.4218 21.6792 12.4215 21.6795 12.4211C22.5077 11.5982 22.9706 10.5815 22.6552 9.60051C22.3403 8.6208 21.3726 8.06178 20.2233 7.87022L17.0333 7.34022C17.0334 7.34024 17.0331 7.3402 17.0333 7.34022M14.4012 3.17535C14.4013 3.17557 14.4011 3.17513 14.4012 3.17535Z" fill="#F88700"/>
</svg>
