<svg width="24" height="24" viewBox="0 0 24 24" fill="none" xmlns="http://www.w3.org/2000/svg">
<path d="M12 21.4C11.06 21.4 10.12 21.08 9.40998 20.43L2.47997 14.14C1.26997 13.04 0.889967 11.03 1.61997 9.57L4.01998 4.75C4.61998 3.55 6.12997 2.61 7.46997 2.61H16.53C17.87 2.61 19.38 3.55 19.98 4.75L22.38 9.57C23.11 11.03 22.73 13.04 21.52 14.14L14.59 20.43C13.88 21.07 12.94 21.4 12 21.4ZM7.46997 4.1C6.68997 4.1 5.70997 4.71 5.35997 5.41L2.95998 10.23C2.53998 11.08 2.77998 12.38 3.48998 13.02L10.42 19.31C11.28 20.09 12.73 20.09 13.58 19.31L20.51 13.02C21.21 12.38 21.46 11.08 21.04 10.23L18.64 5.41C18.29 4.72 17.31 4.11 16.53 4.11H7.46997V4.1Z" fill="#232323"/>
<path d="M12 15.25C11.59 15.25 11.25 14.91 11.25 14.5V8.5C11.25 8.09 11.59 7.75 12 7.75C12.41 7.75 12.75 8.09 12.75 8.5V14.5C12.75 14.91 12.41 15.25 12 15.25Z" fill="#232323"/>
<path d="M16 9.25H8C7.59 9.25 7.25 8.91 7.25 8.5C7.25 8.09 7.59 7.75 8 7.75H16C16.41 7.75 16.75 8.09 16.75 8.5C16.75 8.91 16.41 9.25 16 9.25Z" fill="#232323"/>
</svg>
