<svg width="24" height="24" viewBox="0 0 24 24" fill="none" xmlns="http://www.w3.org/2000/svg">
<path d="M21.33 7.92003C20.92 7.92003 20.58 7.58003 20.58 7.17003V5.35003C20.58 4.62003 19.99 4.03003 19.26 4.03003H4.74004C4.01004 4.03003 3.42004 4.62003 3.42004 5.35003V7.18003C3.42004 7.59003 3.08004 7.93003 2.67004 7.93003C2.26004 7.93003 1.92004 7.59003 1.92004 7.17003V5.35003C1.92004 3.79003 3.19004 2.53003 4.74004 2.53003H19.26C20.82 2.53003 22.08 3.80003 22.08 5.35003V7.18003C22.08 7.59003 21.75 7.92003 21.33 7.92003Z" fill="#232323"/>
<path d="M12 21.47C11.59 21.47 11.25 21.13 11.25 20.72V4.10999C11.25 3.69999 11.59 3.35999 12 3.35999C12.41 3.35999 12.75 3.69999 12.75 4.10999V20.72C12.75 21.14 12.41 21.47 12 21.47Z" fill="#232323"/>
<path d="M15.9401 21.47H8.06006C7.65006 21.47 7.31006 21.13 7.31006 20.72C7.31006 20.31 7.65006 19.97 8.06006 19.97H15.9401C16.3501 19.97 16.6901 20.31 16.6901 20.72C16.6901 21.13 16.3501 21.47 15.9401 21.47Z" fill="#232323"/>
</svg>
