<svg width="24" height="24" viewBox="0 0 24 24" fill="none" xmlns="http://www.w3.org/2000/svg">
<path d="M5.63994 22.75C5.05994 22.75 4.5199 22.47 4.1599 21.96C3.6499 21.24 3.70993 20.31 4.30993 19.67L11.6399 11.71L8.08996 8.12C7.65996 7.69 7.4799 7.07 7.5999 6.47C7.7199 5.87 8.12993 5.38 8.68993 5.14L17.6299 1.39C18.4199 1.06 19.2899 1.3 19.8099 1.98C20.3199 2.67 20.2999 3.57 19.7599 4.24L13.6899 11.65L17.2699 15.28C17.6999 15.71 17.8799 16.33 17.7599 16.93C17.6399 17.53 17.2299 18.02 16.6699 18.26L6.36992 22.6C6.12992 22.7 5.88994 22.75 5.63994 22.75ZM12.6899 12.79L5.41991 20.69C5.25991 20.86 5.33994 21.02 5.38994 21.11C5.44994 21.19 5.57991 21.32 5.78991 21.22L16.09 16.88C16.23 16.82 16.2699 16.7 16.2899 16.64C16.2999 16.58 16.3099 16.45 16.1999 16.34L12.6899 12.79ZM9.1599 7.07L12.6299 10.58L18.59 3.3C18.73 3.13 18.6599 2.97 18.5999 2.89C18.5399 2.81 18.4199 2.69 18.1999 2.78L9.25994 6.53C9.11994 6.59 9.07993 6.71 9.05993 6.77C9.03993 6.83 9.0599 6.96 9.1599 7.07Z" fill="#232323"/>
</svg>
