<svg width="24" height="24" viewBox="0 0 24 24" fill="none" xmlns="http://www.w3.org/2000/svg">
<path fill-rule="evenodd" clip-rule="evenodd" d="M21.5849 6.14884C21.7906 6.27925 21.9334 6.482 21.9819 6.71251C22.0304 6.94301 21.9806 7.18239 21.8435 7.37799L10.6566 18.6058C10.58 18.7148 10.479 18.8063 10.3608 18.8737C10.2425 18.9412 10.1101 18.9828 9.97287 18.9957C9.83568 19.0086 9.69719 18.9924 9.56737 18.9483C9.43756 18.9041 9.31966 18.8332 9.22216 18.7405L4.2502 14.013C4.08553 13.845 3.99588 13.6227 4.00015 13.3931C4.00441 13.1635 4.10224 12.9444 4.27305 12.782C4.44385 12.6195 4.67428 12.5265 4.9158 12.5225C5.15731 12.5184 5.39105 12.6037 5.56777 12.7602L9.73551 16.723L20.2922 6.39467C20.4294 6.19909 20.6426 6.06332 20.885 6.01722C21.1274 5.97112 21.3792 6.01846 21.5849 6.14884Z" fill="black"/>
</svg>
