<svg width="24" height="24" viewBox="0 0 24 24" fill="none" xmlns="http://www.w3.org/2000/svg">
<path d="M10.5 22.54C10.1 22.54 9.71001 22.45 9.34001 22.28L2.84001 19.22C1.88001 18.77 1.26001 17.79 1.26001 16.73V9.26999C1.26001 8.20999 1.88001 7.23 2.84001 6.78L9.34001 3.72001C10.08 3.37001 10.93 3.38001 11.67 3.72001L14.34 4.98002C14.65 5.13002 14.82 5.46001 14.76 5.79001C14.75 5.86001 14.75 5.93001 14.75 6.00001C14.75 7.79 16.21 9.25001 18 9.25001C18.29 9.25001 18.55 9.22 18.8 9.15C19.02 9.08 19.27 9.12999 19.46 9.26999C19.65 9.40999 19.76 9.63 19.76 9.87V16.73C19.76 17.79 19.14 18.77 18.18 19.22L11.68 22.28C11.3 22.45 10.9 22.54 10.5 22.54ZM10.5 4.96C10.32 4.96 10.13 4.99999 9.96002 5.07999L3.46002 8.14002C3.02002 8.35002 2.74002 8.77999 2.74002 9.26999V16.73C2.74002 17.22 3.02002 17.65 3.46002 17.86L9.96002 20.92C10.3 21.07 10.69 21.08 11.03 20.92L17.53 17.86C17.97 17.65 18.25 17.22 18.25 16.73V10.74C18.17 10.74 18.08 10.75 18 10.75C15.42 10.75 13.32 8.69001 13.25 6.13001L11.03 5.07999C10.86 4.99999 10.68 4.96 10.5 4.96Z" fill="#232323"/>
<path d="M9 16.25C7.48 16.25 6.25 15.02 6.25 13.5V10.5C6.25 10.09 6.59 9.75 7 9.75C7.41 9.75 7.75 10.09 7.75 10.5V13.5C7.75 14.19 8.31 14.75 9 14.75C9.69 14.75 10.25 14.19 10.25 13.5V10.5C10.25 10.09 10.59 9.75 11 9.75C11.41 9.75 11.75 10.09 11.75 10.5V13.5C11.75 15.02 10.52 16.25 9 16.25Z" fill="#232323"/>
<path d="M14 16.19C13.59 16.19 13.25 15.85 13.25 15.44V10.5C13.25 10.09 13.59 9.75 14 9.75C14.41 9.75 14.75 10.09 14.75 10.5V15.44C14.75 15.86 14.41 16.19 14 16.19Z" fill="#232323"/>
<path d="M18 10.75C15.38 10.75 13.25 8.62 13.25 6C13.25 5.85 13.25 5.68 13.28 5.53C13.48 3.12 15.51 1.25 18 1.25C20.62 1.25 22.75 3.38 22.75 6C22.75 8.17 21.28 10.06 19.19 10.6C18.82 10.7 18.43 10.75 18 10.75ZM18 2.75C16.3 2.75 14.91 4.03 14.77 5.72C14.75 5.86 14.75 5.93 14.75 6C14.75 7.79 16.21 9.25 18 9.25C18.29 9.25 18.55 9.21999 18.8 9.14999C20.25 8.77999 21.25 7.49 21.25 6C21.25 4.21 19.79 2.75 18 2.75Z" fill="#232323"/>
<path d="M19.0899 5.91C19.3299 5.7 19.4599 5.41999 19.4599 5.07999C19.4599 4.30999 18.8799 3.79999 17.9999 3.79999C17.1199 3.79999 16.5399 4.31999 16.5399 5.07999C16.5399 5.40999 16.6699 5.7 16.9099 5.91C16.5899 6.15 16.4099 6.50001 16.4099 6.89001C16.4099 7.70001 17.0199 8.20001 18.0099 8.20001C18.9999 8.20001 19.6099 7.70001 19.6099 6.89001C19.5999 6.49001 19.4199 6.14 19.0899 5.91ZM17.9999 5.51001C17.7299 5.51001 17.5599 5.36 17.5599 5.13C17.5599 4.85 17.7899 4.76001 17.9999 4.76001C18.2099 4.76001 18.4399 4.86 18.4399 5.13C18.4399 5.36 18.2699 5.51001 17.9999 5.51001ZM17.9999 6.34C18.2799 6.34 18.5799 6.46001 18.5799 6.79001C18.5799 7.08001 18.3599 7.25 17.9999 7.25C17.6399 7.25 17.4199 7.08001 17.4199 6.79001C17.4199 6.38001 17.8599 6.34 17.9999 6.34Z" fill="#232323"/>
</svg>
