<svg width="24" height="24" viewBox="0 0 24 24" fill="none" xmlns="http://www.w3.org/2000/svg">
<path d="M22 3.78H2C1.59 3.78 1.25 3.44 1.25 3.03C1.25 2.62 1.59 2.28 2 2.28H22C22.41 2.28 22.75 2.62 22.75 3.03C22.75 3.44 22.41 3.78 22 3.78Z" fill="#232323"/>
<path d="M12.0001 21.72C11.3601 21.72 10.7801 21.4 10.4301 20.87L2.47015 8.48C2.10015 7.91 2.08014 7.18 2.40014 6.58C2.73014 5.98 3.35015 5.61 4.03015 5.61H19.9601C20.6401 5.61 21.2701 5.98 21.5901 6.58C21.9201 7.18 21.8901 7.91 21.5201 8.48L13.5601 20.87C13.2201 21.4 12.6401 21.72 12.0001 21.72ZM4.04016 7.11C3.85016 7.11 3.75015 7.24 3.72015 7.3C3.69015 7.36 3.63016 7.51 3.73016 7.67L11.6901 20.06C11.7801 20.2 11.9201 20.23 11.9901 20.23C12.0601 20.23 12.2002 20.21 12.2902 20.06L20.2501 7.67C20.3501 7.51 20.2902 7.36 20.2602 7.3C20.2302 7.24 20.1401 7.11 19.9401 7.11H4.04016Z" fill="#232323"/>
</svg>
