<svg width="24" height="24" viewBox="0 0 24 24" fill="none" xmlns="http://www.w3.org/2000/svg">
<path d="M13.8801 20.59C13.0901 20.59 12.2201 20.31 11.3501 19.76L8.43008 17.93C8.23008 17.81 8.00008 17.74 7.77008 17.74H6.33008C3.91008 17.74 2.58008 16.41 2.58008 13.99V9.99C2.58008 7.57 3.91008 6.24 6.33008 6.24H7.76008C7.99008 6.24 8.22008 6.17 8.42008 6.05L11.3401 4.22C12.8001 3.31 14.2201 3.14 15.3401 3.76C16.4601 4.38 17.0701 5.67 17.0701 7.4V16.57C17.0701 18.29 16.4501 19.59 15.3401 20.21C14.9001 20.47 14.4101 20.59 13.8801 20.59ZM6.33008 7.75C4.75008 7.75 4.08008 8.42 4.08008 10V14C4.08008 15.58 4.75008 16.25 6.33008 16.25H7.76008C8.28008 16.25 8.78008 16.39 9.22008 16.67L12.1401 18.5C13.1101 19.1 14.0101 19.26 14.6201 18.92C15.2301 18.58 15.5801 17.73 15.5801 16.6V7.41C15.5801 6.27 15.2301 5.42 14.6201 5.09C14.0101 4.75 13.1101 4.9 12.1401 5.51L9.22008 7.33C8.78008 7.61 8.28008 7.75 7.76008 7.75H6.33008Z" fill="#232323"/>
<path d="M19.3301 16.75C19.1701 16.75 19.0201 16.7 18.8801 16.6C18.5501 16.35 18.4801 15.88 18.7301 15.55C20.3001 13.46 20.3001 10.54 18.7301 8.45C18.4801 8.12 18.5501 7.65 18.8801 7.4C19.2101 7.15 19.6801 7.22 19.9301 7.55C21.9001 10.17 21.9001 13.83 19.9301 16.45C19.7901 16.65 19.5601 16.75 19.3301 16.75Z" fill="#232323"/>
</svg>
