<svg width="24" height="24" viewBox="0 0 24 24" fill="none" xmlns="http://www.w3.org/2000/svg">
<path d="M7 17.75H5C2.58 17.75 1.25 16.42 1.25 14V10C1.25 7.58 2.58 6.25 5 6.25H6.43C6.66 6.25 6.89 6.18 7.09 6.06L10.01 4.23C11.47 3.32 12.89 3.15 14.01 3.77C15.13 4.39 15.74 5.68 15.74 7.41V8.37C15.74 8.78 15.4 9.12 14.99 9.12C14.58 9.12 14.24 8.78 14.24 8.37V7.41C14.24 6.27 13.89 5.42 13.28 5.09C12.67 4.75 11.77 4.9 10.8 5.51L7.88 7.33C7.45 7.61 6.94 7.75 6.43 7.75H5C3.42 7.75 2.75 8.42 2.75 10V14C2.75 15.58 3.42 16.25 5 16.25H7C7.41 16.25 7.75 16.59 7.75 17C7.75 17.41 7.41 17.75 7 17.75Z" fill="#232323"/>
<path d="M12.5501 20.59C11.7601 20.59 10.8901 20.31 10.0201 19.76C9.67009 19.54 9.56009 19.08 9.78009 18.73C10.0001 18.38 10.4601 18.27 10.8101 18.49C11.7801 19.09 12.6801 19.25 13.2901 18.91C13.9001 18.57 14.2501 17.72 14.2501 16.59V12.95C14.2501 12.54 14.5901 12.2 15.0001 12.2C15.4101 12.2 15.7501 12.54 15.7501 12.95V16.59C15.7501 18.31 15.1301 19.61 14.0201 20.23C13.5701 20.47 13.0701 20.59 12.5501 20.59Z" fill="#232323"/>
<path d="M18 16.75C17.84 16.75 17.69 16.7 17.55 16.6C17.22 16.35 17.15 15.88 17.4 15.55C18.66 13.87 18.93 11.64 18.12 9.71C17.96 9.33 18.14 8.89 18.52 8.73C18.9 8.57 19.34 8.75 19.5 9.13C20.52 11.55 20.17 14.36 18.6 16.46C18.45 16.65 18.23 16.75 18 16.75Z" fill="#232323"/>
<path d="M19.8301 19.25C19.6701 19.25 19.5201 19.2 19.3801 19.1C19.0501 18.85 18.9801 18.38 19.2301 18.05C21.3701 15.2 21.8401 11.38 20.4601 8.09C20.3001 7.71 20.4801 7.27 20.8601 7.11C21.2501 6.95 21.6801 7.13 21.8401 7.51C23.4301 11.29 22.8901 15.67 20.4301 18.95C20.2901 19.15 20.0601 19.25 19.8301 19.25Z" fill="#232323"/>
<path d="M1.99994 22.75C1.80994 22.75 1.61994 22.68 1.46994 22.53C1.17994 22.24 1.17994 21.76 1.46994 21.47L21.4699 1.47C21.7599 1.18 22.2399 1.18 22.5299 1.47C22.8199 1.76 22.8199 2.24 22.5299 2.53L2.52994 22.53C2.37994 22.68 2.18994 22.75 1.99994 22.75Z" fill="#232323"/>
</svg>
