<svg width="24" height="24" viewBox="0 0 24 24" fill="none" xmlns="http://www.w3.org/2000/svg">
<path d="M17.0001 19.75C16.7401 19.75 16.4901 19.61 16.3601 19.38L14.5101 16.28C14.3701 16.05 14.3701 15.76 14.5001 15.52L17.8401 9.69L15.3501 5.36C15.2201 5.13 15.2201 4.84 15.3501 4.61C15.4801 4.38 15.7301 4.24001 16.0001 4.24001H19.5001C19.7701 4.24001 20.0201 4.38 20.1501 4.62L22.8501 9.32001C22.9801 9.55001 22.9801 9.83 22.8501 10.06L17.6501 19.36C17.5201 19.59 17.2701 19.74 17.0101 19.74C17.0101 19.75 17.0001 19.75 17.0001 19.75ZM16.0201 15.89L16.9801 17.5L21.3401 9.7L19.0701 5.74001H17.3001L19.3501 9.32001C19.4801 9.55001 19.4801 9.84001 19.3501 10.07L16.0201 15.89Z" fill="#232323"/>
<path d="M10.0001 19.75C9.74009 19.75 9.49007 19.61 9.36007 19.38L7.5101 16.28C7.3701 16.05 7.37009 15.76 7.50009 15.52L10.8401 9.69L8.35009 5.36C8.22009 5.13 8.22009 4.84 8.35009 4.61C8.48009 4.38 8.73009 4.24001 9.00009 4.24001H12.5001C12.7701 4.24001 13.0201 4.38 13.1501 4.62L15.8501 9.32001C15.9801 9.55001 15.9801 9.83 15.8501 10.06L10.6501 19.36C10.5201 19.59 10.2701 19.74 10.0101 19.74C10.0101 19.75 10.0001 19.75 10.0001 19.75ZM9.02008 15.89L9.9801 17.5L14.3401 9.7L12.0701 5.74001H10.3001L12.3501 9.32001C12.4801 9.55001 12.4801 9.84001 12.3501 10.07L9.02008 15.89Z" fill="#232323"/>
<path d="M6.29992 13.45C6.02992 13.45 5.78992 13.31 5.64992 13.08L1.14992 5.38C1.00992 5.15 1.00992 4.86 1.14992 4.63C1.27992 4.4 1.52992 4.25 1.79992 4.25H5.29992C5.56992 4.25 5.81994 4.4 5.94994 4.63L8.64992 9.42999C8.77992 9.65999 8.77994 9.94999 8.63994 10.18L6.93993 13.08C6.80993 13.31 6.56992 13.45 6.29992 13.45ZM3.10991 5.75L6.29992 11.22L7.12993 9.8L4.85991 5.75999H3.10991V5.75Z" fill="#232323"/>
</svg>
